<svg xmlns="http://www.w3.org/2000/svg" xmlns:xlink="http://www.w3.org/1999/xlink" viewBox="0 0 4680 3120"><defs><style>.cls-1{fill:none;}.cls-2,.cls-8{fill:#fff;}.cls-2{opacity:0;}.cls-21,.cls-3{fill:#e4f6f8;}.cls-3,.cls-4{fill-rule:evenodd;}.cls-4{fill:#ade0e0;}.cls-5{fill:#0e6864;}.cls-6{fill:#1b9b94;}.cls-7{fill:#1daaa6;}.cls-9{fill:#ffc05d;}.cls-10{fill:#23b9ba;}.cls-11{clip-path:url(#clip-path);}.cls-12{fill:#daecf7;}.cls-13{fill:#f25619;}.cls-14{fill:#ff794a;}.cls-15{fill:#f5ae97;}.cls-16{fill:#ed856e;}.cls-17{fill:#023531;}.cls-18{fill:#055451;}.cls-19{fill:#c63210;}.cls-20{fill:#78c4bf;}.cls-22{fill:#e88503;}.cls-23{fill:#ffb200;}.cls-24{fill:#edb183;}.cls-25{fill:#bc835c;}.cls-26{fill:#8b8e0a;}.cls-27{fill:#75750a;}.cls-28{fill:#a3af0b;}.cls-29{fill:#364547;}.cls-30{fill:#b6cc17;}.cls-31{fill:#eff275;}.cls-32{fill:#3c7219;}.cls-33{fill:#c7c365;}.cls-34{fill:#be5712;}.cls-35{opacity:0.6;}.cls-36{fill:#602904;}.cls-37{fill:#6b2f05;}.cls-38{fill:#913f07;}.cls-39{fill:#131e36;}.cls-40{fill:#072c35;}.cls-41{fill:#fdab00;}.cls-42{fill:#cb6655;}.cls-43{fill:#b73108;}.cls-44{fill:#db4516;}.cls-45{fill:#93dbd7;}.cls-46{fill:#ffa829;}.cls-47{fill:#a04a10;}.cls-48{fill:#ffc476;}</style><clipPath id="clip-path"><path class="cls-1" d="M2398.3,679.54l-58.52-29.14v422.16a38.38,38.38,0,0,1-38.38,38.38H1376a38.36,38.36,0,0,1-38.38-38.38V455.71A38.38,38.38,0,0,1,1376,417.32H2301.4a38.37,38.37,0,0,1,38.38,38.39V579.16l67.78,89.2C2412.33,674.62,2405.36,683.06,2398.3,679.54Z"/></clipPath></defs><title>03</title><g id="_03" data-name="03"><rect class="cls-2" width="4680" height="3120"/><path class="cls-3" d="M3714.31,2121.57c-76.86,212.11-261.27,405.4-629.12,511l-1524.94-26.73S949.76,2403.8,1035.52,1843.3c16.8-109.82,60.33-233.4,140.42-371.92C1664.78,625.9,2046,281.57,2599.42,361.5s793,668.74,956.16,863.93C3673.56,1366.62,3841.73,1769.94,3714.31,2121.57Z"/><path class="cls-4" d="M3714.31,2121.57c-76.86,212.11-261.27,405.4-629.12,511l-1524.94-26.73S949.76,2403.8,1035.52,1843.3c80.72-37.74,166.21-64.88,254.26-79.2,230.65-37.54,467.1,12.3,688.63,86.71s434.58,173.39,658.88,239a2326.57,2326.57,0,0,0,698.07,92.85C3463.82,2180.07,3594.46,2166.12,3714.31,2121.57Z"/><path class="cls-5" d="M2439.46,668.35l-67.78-89.18V455.71a38.38,38.38,0,0,0-38.38-38.38H1407.94a38.38,38.38,0,0,0-38.38,38.38v616.85A38.39,38.39,0,0,0,1408,1111H2333.3a38.38,38.38,0,0,0,38.38-38.39V650.4l5.23,2.61-.83,3.15,25.84,24.19h32.66v-.06A7.5,7.5,0,0,0,2439.46,668.35Z"/><path class="cls-6" d="M2398.3,679.54l-58.52-29.14v422.16a38.38,38.38,0,0,1-38.38,38.38H1376a38.36,38.36,0,0,1-38.38-38.38V455.71A38.38,38.38,0,0,1,1376,417.32H2301.4a38.37,38.37,0,0,1,38.38,38.39V579.16l67.78,89.2C2412.33,674.62,2405.36,683.06,2398.3,679.54Z"/><path class="cls-7" d="M2398.3,679.54l-58.52-29.14v422.16a38.38,38.38,0,0,1-38.38,38.38H1376a38.28,38.28,0,0,1-29.13-13.38h0l982.19-668.4h0a38.34,38.34,0,0,1,10.67,26.57V579.16l67.78,89.2C2412.33,674.62,2405.36,683.06,2398.3,679.54Z"/><rect class="cls-5" x="1391.73" y="477.66" width="607.23" height="17.94" rx="8.97"/><rect class="cls-5" x="1391.73" y="644.05" width="305.44" height="93.46" rx="13.55"/><rect class="cls-5" x="1391.73" y="555.95" width="518.85" height="17.94" rx="8.97"/><rect class="cls-5" x="1444.88" y="763.4" width="373.82" height="17.94" rx="8.97"/><rect class="cls-5" x="1470.49" y="605.06" width="40.59" height="5.65" rx="2.82" transform="translate(132.57 1472.3) rotate(-54.66)"/><rect class="cls-5" x="1391.73" y="597.73" width="82.76" height="17.94" rx="8.97"/><rect class="cls-5" x="1512.87" y="597.73" width="130.02" height="17.94" rx="8.97"/><rect class="cls-5" x="1391.73" y="514.23" width="398.8" height="17.94" rx="8.97"/><circle class="cls-5" cx="1409.09" cy="772.37" r="15.02"/><rect class="cls-5" x="1444.88" y="824.89" width="222.41" height="17.94" rx="8.97"/><circle class="cls-5" cx="1409.09" cy="833.85" r="15.02"/><rect class="cls-5" x="1444.88" y="886.37" width="81.79" height="17.94" rx="8.97"/><circle class="cls-5" cx="1409.09" cy="895.34" r="15.02"/><rect class="cls-8" x="1381.83" y="471.25" width="607.23" height="17.94" rx="8.97"/><rect class="cls-8" x="1381.83" y="637.63" width="305.44" height="93.46" rx="13.55"/><rect class="cls-9" x="1381.83" y="549.53" width="518.85" height="17.94" rx="8.97"/><rect class="cls-10" x="1434.98" y="756.98" width="373.82" height="17.94" rx="8.97"/><rect class="cls-8" x="1460.6" y="598.65" width="40.59" height="5.65" rx="2.82" transform="translate(133.63 1461.53) rotate(-54.66)"/><rect class="cls-8" x="1381.83" y="591.31" width="82.76" height="17.94" rx="8.97"/><rect class="cls-8" x="1502.98" y="591.31" width="130.02" height="17.94" rx="8.97"/><rect class="cls-8" x="1381.83" y="507.81" width="398.8" height="17.94" rx="8.97"/><circle class="cls-10" cx="1399.19" cy="765.95" r="15.02"/><rect class="cls-8" x="1434.98" y="818.47" width="222.41" height="17.94" rx="8.97"/><circle class="cls-8" cx="1399.19" cy="827.44" r="15.02"/><rect class="cls-8" x="1434.98" y="879.96" width="81.79" height="17.94" rx="8.97"/><circle class="cls-8" cx="1399.19" cy="888.93" r="15.02"/><g class="cls-11"><polygon class="cls-8" points="2029.82 1404.84 1976.9 1392.99 1888.61 1373.22 1793.67 1072.92 1796.57 802.84 1890.52 799.99 1892.97 804.18 1988.22 967.51 2018.34 1141.5 2029.82 1404.84"/><path class="cls-12" d="M1976.91,1393c26.23-272.06-83.94-588.81-83.94-588.81l95.25,163.33,30.12,174,11.48,263.34Z"/><path class="cls-13" d="M2239.25,1036.71s-110.52,160.76-205.23,44c0,0,34.47,250,52,332.35l-77.11,1.4c-.74-4.68-1.52-9.62-2.3-14.81-9.59-62.61-22.32-159.58-25.18-248.14-3.94-122.57-65.32-287-85-336.7-3.75-9.52-6-14.83-6-14.83s56.47,2.42,87.69,30.33c36.48,32.62,126.68,134.74,126.68,134.74Z"/><path class="cls-14" d="M1917.13,823.8l13.56,14.25,21.62,22.73,5,5.21-.94-7.26-16.16,26.21-2.29,3.71a5.89,5.89,0,0,0,0,6l14.63,20.77,23.15,32.89L1981,956l-.82-3,.38,11.89.9,28.54,1.09,34.39.94,29.85c.16,4.84.22,9.68.46,14.51a1.41,1.41,0,0,1,0,.2c.1,3.13,2.68,6.14,6,6s6.1-2.63,6-6l-.26-8.13-.65-20.52-.85-27-.88-27.93-.73-22.86-.38-12.23a7.54,7.54,0,0,0-1.16-4.18l-3.28-4.66-13.57-19.26-15.79-22.43-9.71-13.79-.47-.67v6l16.16-26.2,2.29-3.71a6.11,6.11,0,0,0-.93-7.26l-13.57-14.25-21.62-22.73-5-5.21a6,6,0,0,0-8.46,0,6.11,6.11,0,0,0,0,8.47Z"/><path class="cls-13" d="M1640.42,1421.15c.12-18.28,1.1-40.71,2.71-66,.51-8.08,1.1-16.46,1.74-25.09q.86-11.65,1.87-23.9c2.25-27.63,5-57.19,8-87.47,7.31-73.21,16.3-150.59,24.13-214.68,10.17-83.37,18.38-144.26,18.38-144.26l.61-.46c47.75-35.92,98.67-56.47,98.67-56.47h0c2.87,3.34,5.66,6.77,8.37,10.34l0,0c107,140.14,102.38,452.82,123.91,510.76a321.14,321.14,0,0,1,16.11,61.84,199.15,199.15,0,0,1,2.37,29.74Z"/><path class="cls-15" d="M1796.57,802.84c1.19-25.23-3-61.77-4.64-74.55a7.34,7.34,0,0,0-4.72-6,110.55,110.55,0,0,1-16.2-7.89c-2.13-1.18-4.29-2.67-6.51-4.17-.06,0,0-.06-.11-.07-13.93-9.79-27.05-25.26-21.82-47.15,11.2-46.5,52.39-17.32,52.39-17.32l68.94-103,6.71-10.06,10.4,2.91,91.82,25.95-3,62.34-1.43,29.91s-5,133-75.79,127.83l-4.15,36.19a21.47,21.47,0,0,1-11.83,16.84C1861,842.24,1830.08,848.13,1796.57,802.84Z"/><path class="cls-16" d="M1892.63,781.51c-7.94-.51-34.59-4.32-53.08-35.62,0,0-4.11,37,51,54.1Z"/><path class="cls-16" d="M1783.13,667c2.42-6-4.33-11.91-10-8.75-4.71,2.62-8.75,8.5-5.44,21.55,6.45,25.37,20.44,14.67,19.59,7s-7.74-11.14-4.27-19.53C1783.06,667.17,1783.09,667.09,1783.13,667Z"/><path class="cls-16" d="M1771,714.37a110.87,110.87,0,0,0,16.22,7.84s15.82,1.55,18.54-13.31C1804.68,710.26,1793,724.06,1771,714.37Z"/><path class="cls-17" d="M1734,542.27a1.15,1.15,0,0,0,.29-2.07c-5.21-3.19-18.73-10.67-24.65-6.45C1702.45,538.85,1713.92,547.86,1734,542.27Z"/><path class="cls-17" d="M1738.72,536.33a1.55,1.55,0,0,0,2.59-1.16c-.11-8.33-1.3-29.39-10.49-33.16C1719.74,497.47,1717.68,517.28,1738.72,536.33Z"/><path class="cls-16" d="M1783.32,576.11,1795,645.64s74-57.82,122.93-32c25.67,13.56,42.1,13.35,51.93,10.07l3-62.34L1881,535.45l-17.11,7.15Z"/><path class="cls-18" d="M1728.85,635.54h.06a252.58,252.58,0,0,0,14.4,24.75s10.93-38.6,51.65-14.66c0,0,54.51-53.73,104.94-49,9,.86,17.57,4.29,25.4,8.89,12,7,44.33,20.29,68-5.9,30.16-33.42,7.18-68.11,5.41-70.55a.25.25,0,0,1,0-.13s5.06-77-59.32-59.85c-13.77,3.67-31.16,12.59-40.82,12.59-38.69-.22-44.26-29.45-71.92-6.77-34.54,28.32-74.92,15.87-72,73.35C1754.58,548.28,1688.06,554.62,1728.85,635.54Z"/><path class="cls-17" d="M1728.91,635.55a252.58,252.58,0,0,0,14.4,24.75s10.93-38.6,51.65-14.66c0,0,54.51-53.73,104.94-49,9,.86,17.57,4.29,25.4,8.89,12,7,44.33,20.29,68-5.9,30.16-33.42,7.18-68.11,5.41-70.55.43,2.88,8.61,59.16-34.2,69-43.94,10.09-47.74-36.94-98.2-13.45s-90,14.34-99.89-13.23C1766.39,571.44,1772.23,642.13,1728.91,635.55Z"/><path class="cls-17" d="M1789.79,503.46s-49,27.44-6.25,70.09C1783.54,573.55,1756.67,535.69,1789.79,503.46Z"/><path class="cls-17" d="M1981.05,550s-2,43-61.38,28.07C1919.67,578,1959,583.76,1981.05,550Z"/><path class="cls-17" d="M1980,509.77s-1.18-43.57-47.62-29.62C1932.35,480.15,1972.22,477.79,1980,509.77Z"/><path class="cls-17" d="M1919.52,510.25s6,21.13-23.63,28.21c0,0-28.49,56.3-89.79,24.82,0,0,57.35,19.78,83.05-30.31C1889.15,533,1911.31,534.06,1919.52,510.25Z"/><path class="cls-15" d="M1782.37,1490.1h0c-22.11-5.23-50.94-35.71-77.95-87.34l8.16-25.56s23.22-27.31,24.41-29.12,25.76-19.39,25.76-19.39l28.38,2.75s31.81-.22,46.73,9.47c3.4,2.2,5.93,4.93,7,8.29,5.76,18.08,3.41,19.87,3.41,19.87l14.49,15,3.46,3.59a65.63,65.63,0,0,1,4.73,15.66c2.13,11.92,1.92,28.7-10.1,43.12C1847.46,1462.5,1819.24,1498.84,1782.37,1490.1Z"/><path class="cls-16" d="M1860.84,1446.44c12-14.42,12.23-31.2,10.1-43.12a65.63,65.63,0,0,0-4.73-15.66l-3.46-3.59h0l-14.49-15s2.35-1.79-3.41-19.87c-1.07-3.36-3.6-6.09-7-8.29,0,0,6.84,9.92,3.36,19.86l-22.42-11.54s14.64,25.22,33.7,42a21.63,21.63,0,0,1,7.1,19.45c-3.08,20.08-17.08,58.1-77.22,79.41C1819.24,1498.84,1847.46,1462.5,1860.84,1446.44Z"/><path class="cls-19" d="M1743.64,979.46s-19.83,118.44-41.85,146.37l99.71,176.9-139.07-36.54-20.6-127.64-3.14-79.09s37.18-53.47,41.73-57S1743.64,979.46,1743.64,979.46Z"/><path class="cls-8" d="M1700.71,1420.06l14.44,8.47c14.22-24.91,49-77.92,86.74-99.49L1785,1314.38l-12.92-11.21-70.58,27.7-12.27,32.23.34,22.83.21,14.37.06,3.93,6.57,15.91Z"/><path class="cls-13" d="M1801.51,1302.73s-6.58,4.09-16.5,11.65c-23.81,18.14-66.88,56.27-84.3,105.68l-4.29.08-16.34.29c-9.37-15.93-22.49-38.74-36.95-65.26-28.16-51.63-61.38-117.37-81.77-174-13.93-38.67-21.88-73.09-18.12-95.81,2.18-13.15,7-27.37,13.78-42.08,31.08-68.09,101.84-146.59,129.16-175.52a38.85,38.85,0,0,1,11.71-8.48,37.06,37.06,0,0,1,30.6-.61c15.11,6.56,29.15,23.88,25,66.88a376.26,376.26,0,0,1-9.8,53.87h0c-18.41,73.68-53.77,147.79-53.77,147.79l111.55,175.32Z"/><path class="cls-14" d="M1602.85,1112.16a76.31,76.31,0,0,1-41.49,69c-13.94-38.69-21.88-73.1-18.12-95.82,2.17-13.15,7-27.37,13.78-42.09A76.32,76.32,0,0,1,1602.85,1112.16Z"/><ellipse class="cls-14" cx="1647.15" cy="1318.97" rx="8.51" ry="14.13" transform="translate(-378.32 727.16) rotate(-22.4)"/><ellipse class="cls-14" cx="1665.22" cy="1355.34" rx="8.51" ry="14.13" transform="translate(-390.82 736.78) rotate(-22.4)"/><ellipse class="cls-14" cx="1681.82" cy="1389.44" rx="8.51" ry="14.13" transform="translate(-402.56 745.68) rotate(-22.4)"/><path class="cls-14" d="M1781.42,819.94l-4.66,19-7.44,30.31-1.7,6.92a6.19,6.19,0,0,0,2.76,6.76l30.8,19.77,4.37,2.8-2.76-6.76-3.06,15.07-6,29.83-4.37,21.53c-.1.46-.2.92-.28,1.38a6.77,6.77,0,0,0,.79,4.91c.65,1.07,1.39,2.1,2.09,3.14l9.89,14.85,15.07,22.62,17.33,26,16.68,25,13.1,19.68,6.62,9.93.3.45c1.73,2.6,5.36,4,8.19,2.15,2.59-1.68,4-5.41,2.15-8.2l-8.1-12.14-19.43-29.18-23.5-35.27L1810,980.18c-3.28-4.92-6.39-10-9.86-14.8a1.64,1.64,0,0,1-.14-.22l.6,4.62,4.65-22.92,7.42-36.53,1.7-8.38a6.22,6.22,0,0,0-2.75-6.76l-30.81-19.77-4.36-2.8,2.75,6.76,4.67-19,7.43-30.31,1.7-6.92c.74-3-1-6.63-4.18-7.36a6.09,6.09,0,0,0-7.37,4.18Z"/></g><path class="cls-5" d="M2175,498.74A118.89,118.89,0,1,0,2293.49,627q.36-4.62.36-9.33A118.89,118.89,0,0,0,2175,498.74ZM2253.65,627a79.25,79.25,0,1,1,.55-9.33A79.23,79.23,0,0,1,2253.65,627Z"/><path class="cls-8" d="M2167.21,494.81A118.89,118.89,0,1,0,2285.73,623c.24-3.08.37-6.19.37-9.33A118.89,118.89,0,0,0,2167.21,494.81Zm0,198.12a79.24,79.24,0,1,1,79.23-79.23,77.66,77.66,0,0,1-.55,9.33A79.23,79.23,0,0,1,2167.21,692.93Z"/><path class="cls-13" d="M2286.1,613.7c0,3.14-.13,6.25-.37,9.33h-39.84a77.66,77.66,0,0,0,.55-9.33,79.24,79.24,0,0,0-79.23-79.24V494.81A118.89,118.89,0,0,1,2286.1,613.7Z"/><path class="cls-5" d="M1689.73,1429.83h-396.6l41.54-138.2a9.34,9.34,0,0,0-9.37-12h-34.16l-40.59,47.86,8.23,14.21L1169,1429.83H888.68a34.89,34.89,0,0,0-34.89,34.88v589.52a34.89,34.89,0,0,0,34.89,34.88h801.05a34.88,34.88,0,0,0,34.88-34.88V1464.71A34.88,34.88,0,0,0,1689.73,1429.83Z"/><path class="cls-7" d="M1689.74,1464.71v589.51a34.89,34.89,0,0,1-34.89,34.89h-801a34.87,34.87,0,0,1-34.88-34.89V1464.71a34.88,34.88,0,0,1,34.88-34.88h280.33l150.21-147.53c6.88-6.75,18.23.1,15.45,9.33l-41.53,138.2h396.59a34.9,34.9,0,0,1,34.89,34.88Z"/><path class="cls-6" d="M825.11,2074.06v0a34.76,34.76,0,0,1-6.2-19.87V1464.71a34.88,34.88,0,0,1,34.88-34.88h280.33l150.21-147.53c6.88-6.75,18.23.1,15.45,9.33l-41.53,138.2h396.59a34.72,34.72,0,0,1,23.87,9.45Z"/><path class="cls-20" d="M1405.52,1873.77c-15.22-16.08-29.27-25.69-43.6-25.5h-43.87l-15.72,12.7-1.83,5c-34-9.25-60.87-44.68-69.78-51.42-7.84-11.65-59.35-54-47-99.93l6.36-6c23.79-23.55,16-45.68-8.81-71.84h0c-16.12-17-27.78-34-40.84-34.32H1096.1l-9.52,50.84,1.63,1.81a88.46,88.46,0,0,0-5.65,16h0s-14.49,43.73,9,93.48a134.89,134.89,0,0,0,24.18,35.18l61.71,65.2,61.71,65.21a134.82,134.82,0,0,0,33.79,26.08,140.4,140.4,0,0,0,14.22,6.69l1.82,3.24,4.94,7h46.32c15.6-.07,25.55-2.77,25.55-2.77h0c17.25-3.22,35.5-12.47,51.09-27.22l12.71-12C1449.87,1912,1427.54,1897,1405.52,1873.77Z"/><path class="cls-21" d="M1361.7,1873.77c-24.76-26.16-46.43-35.21-71.26-12.75l-6.35,6c-46.5,9.78-86-44-97.2-52.45-7.84-11.65-59.34-54-47-99.93l6.36-6c23.8-23.55,16-45.68-8.8-71.84h0c-22-23.27-35.71-46.39-56-27.19l-12.71,12c-15.59,14.75-25.83,32.46-30,49.51h0s-14.49,43.73,9,93.48a134.92,134.92,0,0,0,24.19,35.18l61.71,65.2,61.71,65.21a134.64,134.64,0,0,0,33.79,26.08c48.38,26.18,92.85,14.12,92.85,14.12h0c17.24-3.22,35.5-12.47,51.08-27.22l12.72-12c20.28-19.2-2.06-34.14-24.07-57.4Z"/><path class="cls-22" d="M1447.41,1593.78l-82.32-24.87a5.4,5.4,0,0,0-1.8-.23h-24.77l4.25,10,11.49,11.36,7.93-2.76.83,2.45c-16.31,8-72.51,40-90.41,106.73l-5.53.79-19.57,27.33v38.7h24.54a4,4,0,0,0,4.22-3.32c6.06-31.74,26.11-79.58,90.07-107.25l2.38,13.9h24a5.39,5.39,0,0,0,4.53-1.92l52.76-62.1A5.46,5.46,0,0,0,1447.41,1593.78Z"/><path class="cls-23" d="M1422.65,1593.78l-82.31-24.87a5.47,5.47,0,0,0-6.76,7l4.69,13.79c-20.79,10.23-106.43,59.36-94.87,169.87a4.11,4.11,0,0,0,8.12.36c6.54-34.25,29.36-87.25,106.06-113.41l5.56,16.36a5.46,5.46,0,0,0,9.34,1.78l52.76-62.1A5.47,5.47,0,0,0,1422.65,1593.78Z"/><ellipse class="cls-24" cx="2426.59" cy="2632.6" rx="1295.65" ry="137.13"/><ellipse class="cls-25" cx="2474.93" cy="2632.59" rx="1051.46" ry="73.39"/><path class="cls-26" d="M3274.59,1809s-41.74-148.2-21.35-268.35,34.3-196.94,32.85-222.33c0,0,54.94,101.64,86.83,159.21,70.35,127,96.25,229.4,54.12,346,0,0,7.12,60,6.95,62.67s-54.15,68.75-54.15,68.75l-99.14-45.29Z"/><path class="cls-27" d="M3357.51,1977s-57-318.34-56.7-508.87c0,0,40.66,337,104.34,486.93Z"/><path class="cls-28" d="M3316,1969.82l-.32,75.55-.32,83.89,28.44,4.68s11.42-11.56,28.52-26.9c26.4-23.59,66.3-56.11,98.6-68.72,53.21-20.81,136.52-101.56,200-246.39,2.24-5.09,4.54-10,6.94-14.58,65.26-127.79,183.24-95,183.24-95-96-31.26-177.6-30-246.19-10.29h0C3403.11,1732.93,3316,1969.82,3316,1969.82Z"/><path class="cls-26" d="M3315.65,2045.37l-.32,83.89,28.44,4.68s11.42-11.56,28.52-26.9c192.13-374.62,313.35-421.29,317.15-422.69C3505.8,1727.13,3363.74,1957.72,3315.65,2045.37Z"/><path class="cls-28" d="M3411.62,2012.7l-19,69.29-21.14,76.91-27.25-3s-7.5-13.51-19.26-31.93c-18.15-28.35-46.38-68.33-72.75-88.14-43.42-32.65-99.09-127.9-120.24-276.77-.76-5.24-1.62-10.29-2.63-15.14-27.13-133.72-143.57-133.85-143.57-133.85,95.9-4.11,170.35,17.88,228.13,53.47h0C3392.32,1773.45,3411.62,2012.7,3411.62,2012.7Z"/><path class="cls-26" d="M3392.61,2082l-21.14,76.91-27.25-3s-7.5-13.51-19.26-31.93c-80.25-392.22-179.37-465.94-182.49-468.19C3299.74,1741.91,3371,1989.42,3392.61,2082Z"/><path class="cls-29" d="M3719.81,1875.31s-264.49,37.15-357.73,229.88C3362.08,2105.19,3443,1941.07,3719.81,1875.31Z"/><path class="cls-29" d="M3690.62,1839.47c-4.09,24.18-15,30.35-20.06,31.92a2.67,2.67,0,0,1-3.42-2.08c-.93-5.24-.42-17.75,19.22-32.45A2.69,2.69,0,0,1,3690.62,1839.47Z"/><path class="cls-29" d="M3660.1,1847.11c-2.18,24.44-12.56,31.44-17.5,33.4a2.66,2.66,0,0,1-3.57-1.81c-1.33-5.14-1.81-17.65,16.61-33.85A2.69,2.69,0,0,1,3660.1,1847.11Z"/><path class="cls-29" d="M3625.42,1859.84c1.7,21.85-6.4,29.55-10.46,32a2.39,2.39,0,0,1-3.41-1.07c-1.94-4.33-4.22-15.28,9.61-32.28A2.4,2.4,0,0,1,3625.42,1859.84Z"/><path class="cls-29" d="M3593.56,1870.05c6,21.07-.42,30.23-3.92,33.45a2.39,2.39,0,0,1-3.56-.37c-2.75-3.87-7.15-14.15,3-33.54A2.4,2.4,0,0,1,3593.56,1870.05Z"/><path class="cls-29" d="M3562.85,1882.79c8.62,18.73,4,28.17,1.2,31.66a2.24,2.24,0,0,1-3.36.17c-3.13-3.19-8.7-12.11-2-31.62A2.26,2.26,0,0,1,3562.85,1882.79Z"/><path class="cls-29" d="M3525.43,1891.66c17,11.68,17.83,22.17,17.23,26.59a2.25,2.25,0,0,1-2.81,1.87c-4.32-1.15-13.67-6-17.91-26.13A2.26,2.26,0,0,1,3525.43,1891.66Z"/><path class="cls-29" d="M3721.37,1908.53c-18-16.7-30.42-14.94-35.41-13.08a2.68,2.68,0,0,0-1.44,3.75c2.46,4.71,10.5,14.33,35.06,14A2.69,2.69,0,0,0,3721.37,1908.53Z"/><path class="cls-29" d="M3692.49,1921.1c-16.65-18-29.16-17.27-34.28-15.81a2.67,2.67,0,0,0-1.73,3.62c2.09,4.9,9.35,15.11,33.85,16.7A2.69,2.69,0,0,0,3692.49,1921.1Z"/><path class="cls-29" d="M3657.2,1932.19c-12-18.37-23.12-19.54-27.84-19a2.38,2.38,0,0,0-2.06,2.93c1.11,4.62,6,14.7,27.33,19.73A2.4,2.4,0,0,0,3657.2,1932.19Z"/><path class="cls-29" d="M3625.7,1943.55c-8.12-20.38-18.81-23.73-23.54-24.14a2.39,2.39,0,0,0-2.6,2.46c.17,4.75,3,15.59,22.9,24.75A2.4,2.4,0,0,0,3625.7,1943.55Z"/><path class="cls-29" d="M3594.66,1961.61c-1.58-21.88-10.75-28.3-15.14-30.13a2.39,2.39,0,0,0-3.22,1.57c-1.27,4.58-1.89,15.75,14.34,30.51A2.41,2.41,0,0,0,3594.66,1961.61Z"/><path class="cls-29" d="M3564.12,1973.93c.5-21.93-8-29.19-12.22-31.43a2.39,2.39,0,0,0-3.35,1.26c-1.7,4.44-3.38,15.51,11.38,31.73A2.41,2.41,0,0,0,3564.12,1973.93Z"/><path class="cls-29" d="M3010.12,1680.68s299.68,162.23,325.32,434.22C3335.44,2114.9,3311.77,1882.61,3010.12,1680.68Z"/><path class="cls-29" d="M3061,1650.83c-5.88,30.74,4.39,43,9.76,47.11a3.42,3.42,0,0,0,5-1c3.44-5.85,8.41-21-8.52-47.35A3.43,3.43,0,0,0,3061,1650.83Z"/><path class="cls-29" d="M3094.07,1673.57c-8.28,30.18,1,43.18,6,47.73a3.41,3.41,0,0,0,5.08-.58c3.89-5.55,10-20.3-4.79-47.87A3.43,3.43,0,0,0,3094.07,1673.57Z"/><path class="cls-29" d="M3129.87,1704.24c-11.77,25.36-5.52,38.18-1.77,42.93a3.05,3.05,0,0,0,4.57.25c4.24-4.32,11.84-16.39,2.88-42.87A3.06,3.06,0,0,0,3129.87,1704.24Z"/><path class="cls-29" d="M3163.41,1730.63c-16.55,22.53-13,36.34-10.22,41.74a3.06,3.06,0,0,0,4.43,1.15c5-3.4,14.85-13.73,11.3-41.46A3.07,3.07,0,0,0,3163.41,1730.63Z"/><path class="cls-29" d="M3194.45,1759.54c-18.65,18.56-17.3,31.91-15.54,37.33a2.87,2.87,0,0,0,4,1.7c5.16-2.43,15.8-10.61,16.51-36.9A2.89,2.89,0,0,0,3194.45,1759.54Z"/><path class="cls-29" d="M3235.25,1786.82c-25.51,6.4-31.19,18.56-32.45,24.12a2.89,2.89,0,0,0,2.52,3.49c5.68.55,19-1,33.07-23.27A2.89,2.89,0,0,0,3235.25,1786.82Z"/><path class="cls-29" d="M2993.45,1719.71c29-11.94,43-4.31,48.17.13a3.42,3.42,0,0,1,.05,5.12c-5,4.55-18.94,12.46-48.15,1.12A3.43,3.43,0,0,1,2993.45,1719.71Z"/><path class="cls-29" d="M3022.38,1747.61c28-14.17,42.56-7.66,48-3.64a3.42,3.42,0,0,1,.46,5.1C3066.19,1754,3053,1763,3023,1754A3.43,3.43,0,0,1,3022.38,1747.61Z"/><path class="cls-29" d="M3059.64,1776.58c22.52-16.62,36.35-13.06,41.76-10.33a3.06,3.06,0,0,1,1.16,4.43c-3.39,5-13.71,14.9-41.48,11.41A3.07,3.07,0,0,1,3059.64,1776.58Z"/><path class="cls-29" d="M3092.25,1804.2c18.78-20.75,33.05-20,38.89-18.38a3,3,0,0,1,2,4.11c-2.32,5.6-10.49,17.32-38.4,19.39A3.07,3.07,0,0,1,3092.25,1804.2Z"/><path class="cls-29" d="M3121.31,1839.62c11.63-25.46,25.46-29,31.52-29.28a3.06,3.06,0,0,1,3.16,3.31c-.53,6-4.76,19.68-30.74,30.1A3.08,3.08,0,0,1,3121.31,1839.62Z"/><path class="cls-29" d="M3152.34,1868c9.17-26.45,22.59-31.33,28.6-32.14a3.06,3.06,0,0,1,3.46,3c0,6.06-2.88,20-27.75,32.87A3.07,3.07,0,0,1,3152.34,1868Z"/><path class="cls-30" d="M3734.37,2239.5c-44.89-49.51-195.51-196.83-350.61-137.16q-8.67,3.32-17.37,7.54a18.83,18.83,0,0,1-6.51,1.89c-3.42.29-7.88-.29-10.23-4.57a10.67,10.67,0,0,1,.64-10.83,337,337,0,0,1,42.91-52.54c43.5-43.51,115.64-90.85,204.11-54.75,118.49,48.34,143.75,191.13,149.11,245.05A7,7,0,0,1,3734.37,2239.5Z"/><path class="cls-31" d="M3682.89,2116c-8.81-12.29-134.33-170.07-299.13-13.67q-8.67,3.32-17.37,7.54a18.83,18.83,0,0,1-6.51,1.89c-3.42.29-7.88-.29-10.23-4.57a10.67,10.67,0,0,1,.64-10.83S3527.8,1899.87,3682.89,2116Z"/><path class="cls-32" d="M3683.36,2116.65a7.52,7.52,0,0,0-.47-.64C3683.14,2116.33,3683.28,2116.54,3683.36,2116.65Z"/><path class="cls-30" d="M2914.16,2036.69c70.79-14.61,296.31-47.25,393.73,103.79q5.47,8.43,10.37,17.67a20.46,20.46,0,0,0,4.48,5.8c2.81,2.44,7.07,4.77,11.85,2.54a11.58,11.58,0,0,0,6.35-9.88,364.33,364.33,0,0,0-4-73.26c-10.24-65.75-43.07-153.11-143.37-178-134.33-33.35-247.46,75.27-286.53,119A7.52,7.52,0,0,0,2914.16,2036.69Z"/><path class="cls-31" d="M3037.89,1961.65c15.66-4.7,225.79-62.89,270,178.83q5.47,8.43,10.37,17.67a20.46,20.46,0,0,0,4.48,5.8c2.81,2.44,7.07,4.77,11.85,2.54a11.58,11.58,0,0,0,6.35-9.88,364.33,364.33,0,0,0-4-73.26C3308.14,2002.91,3232.73,1896.68,3037.89,1961.65Z"/><path class="cls-29" d="M3587.47,1451s-340.86,409.85-219.92,819.73C3367.55,2270.73,3266.84,1919.65,3587.47,1451Z"/><path class="cls-29" d="M3496.25,1437.23c26.42,41.21,18.61,65,13.22,74.08a5.34,5.34,0,0,1-7.86,1.51c-8.39-6.49-24.44-25.64-15.15-73.71A5.37,5.37,0,0,1,3496.25,1437.23Z"/><path class="cls-29" d="M3461.42,1489.49c29.58,39,23.65,63.29,19,72.82a5.35,5.35,0,0,1-7.72,2.12c-8.87-5.81-26.37-23.65-20.88-72.3A5.37,5.37,0,0,1,3461.42,1489.49Z"/><path class="cls-29" d="M3427.27,1554.84c31.84,30,30.22,52.24,27.53,61.32a4.76,4.76,0,0,1-6.48,3c-8.68-3.8-26.74-16.91-29.12-60.58A4.79,4.79,0,0,1,3427.27,1554.84Z"/><path class="cls-29" d="M3393.91,1612.68c37.14,23.09,40,45.23,39.11,54.66a4.78,4.78,0,0,1-5.76,4.24c-9.26-2-29.55-11.3-40.52-53.63A4.79,4.79,0,0,1,3393.91,1612.68Z"/><path class="cls-29" d="M3365.64,1672.71c37.87,16.09,43.69,36.27,44.27,45.17a4.49,4.49,0,0,1-4.74,4.77c-8.9-.53-29.11-6.23-45.43-44A4.51,4.51,0,0,1,3365.64,1672.71Z"/><path class="cls-29" d="M3322.26,1736c40.77-5.54,56.09,8.82,61.14,16.17a4.48,4.48,0,0,1-1.63,6.52c-7.92,4.1-28.2,9.54-61.55-14.57A4.51,4.51,0,0,1,3322.26,1736Z"/><path class="cls-29" d="M3634.36,1498c-49-.47-65,18.78-69.86,28.21a5.35,5.35,0,0,0,2.9,7.47c10,3.67,34.75,7.08,70.58-26.37A5.38,5.38,0,0,0,3634.36,1498Z"/><path class="cls-29" d="M3608.57,1555.32c-48.82-4.32-66.25,13.62-71.86,22.65a5.35,5.35,0,0,0,2.31,7.67c9.65,4.43,34.09,9.78,72.43-20.76A5.38,5.38,0,0,0,3608.57,1555.32Z"/><path class="cls-29" d="M3571.32,1619.05c-42.36-11-60.38,2.17-66.65,9.29a4.78,4.78,0,0,0,.9,7.1c7.84,5.34,28.57,13.67,66.87-7.54A4.8,4.8,0,0,0,3571.32,1619.05Z"/><path class="cls-29" d="M3540,1678.12c-39.35-19.21-59.62-9.81-67.17-4.08a4.78,4.78,0,0,0-.53,7.14c6.63,6.78,25.3,19,67,5.83A4.8,4.8,0,0,0,3540,1678.12Z"/><path class="cls-29" d="M3518.42,1746.47c-31.7-30.21-53.86-27.39-62.8-24.21a4.78,4.78,0,0,0-2.66,6.65c4.27,8.47,18.36,25.81,62.14,25.83A4.8,4.8,0,0,0,3518.42,1746.47Z"/><path class="cls-29" d="M3489.84,1805.65c-28.7-33.07-51-32.35-60.22-30a4.78,4.78,0,0,0-3.28,6.36c3.45,8.84,15.83,27.43,59.41,31.6A4.8,4.8,0,0,0,3489.84,1805.65Z"/><path class="cls-33" d="M3182.92,2194.12h0l0,0Z"/><path class="cls-34" d="M3512.09,2194.12l-42.34,417.38a551.8,551.8,0,0,1-242.66.41l-1.79-.41-37.83-369-4.5-48.4Z"/><g class="cls-35"><path class="cls-36" d="M3512.09,2194.12l-42.34,417.38a548.41,548.41,0,0,1-58.94,10.06c67.12-538.09-223.34-379-223.34-379l-4.5-48.4Z"/></g><path class="cls-37" d="M3533.37,2111.86v60.59a21.66,21.66,0,0,1-21.67,21.66l-118.76,4.51q-45.39,1.71-90.82,0l-118.82-4.51a21.65,21.65,0,0,1-21.66-21.66v-60.59a21.66,21.66,0,0,1,21.66-21.67l119.75,4.51q45.39,1.71,90.83,0l117.82-4.49A21.67,21.67,0,0,1,3533.37,2111.86Z"/><path class="cls-38" d="M3533.37,2111.86V2144a21.67,21.67,0,0,1-21.67,21.67l-118.76,4.49q-45.39,1.72-90.82,0l-118.82-4.49a21.67,21.67,0,0,1-21.66-21.67v-32.09a21.66,21.66,0,0,1,21.66-21.67l119.75,4.51q45.39,1.71,90.83,0l117.82-4.49A21.67,21.67,0,0,1,3533.37,2111.86Z"/><path class="cls-15" d="M2526.11,1210.51s-94,111-187.7,55.55,55.71-300.12,55.71-300.12.64-17.83,6.38-49.45,83.85-82.13,83.85-82.13l18.75-4.69s9.84,100,7.33,122.22-34.87,48.35-34.87,48.35l-55,155.73,20.44-21,34-4.65L2521,1124Z"/><path class="cls-16" d="M2428.78,908.58s-21.53,41.11,7.45,46.22,44.3,23.1,51.84,15.08,8.26-64.45,8.26-64.45l-27.24-27Z"/><polygon class="cls-16" points="2475.08 1130.32 2411.74 1182.16 2420.59 1155.97 2441.03 1134.96 2475.08 1130.32"/><rect class="cls-5" x="2459.85" y="783.18" width="97.8" height="162.28" rx="6.67" transform="translate(745.51 -1118.57) rotate(29.35)"/><path class="cls-21" d="M2595.33,827.56l-73,129.83a6.67,6.67,0,0,1-9.08,2.55l-73.63-41.4a6.54,6.54,0,0,1-3-3.66,5.57,5.57,0,0,1-.33-1.41,6.6,6.6,0,0,1,.81-4l73-129.83a6.65,6.65,0,0,1,9.07-2.54l73.63,41.39a6.7,6.7,0,0,1,2.55,9.08Z"/><path class="cls-8" d="M2595.33,827.56l-73,129.83a6.67,6.67,0,0,1-9.08,2.55l-73.63-41.4a6.54,6.54,0,0,1-3-3.66l-.33-1.41,159.61-91.12A6.56,6.56,0,0,1,2595.33,827.56Z"/><circle class="cls-5" cx="2485.3" cy="925.38" r="8.59"/><path class="cls-10" d="M2506,1450.79c4.8-36.38,7.6-70.75,6.67-98.34-.75-22.73-4-40.83-10.8-51.62-41.2-65.65-22.55-103.06-22.55-103.06a137.63,137.63,0,0,0-8.89-22.42C2457.71,1150,2441,1135,2441,1135c53.54-72.8,121.58-100.22,121.58-100.22l130.9-17.8s36,7.64,70.59,28.85c19.57,12,23.17,40.88,19.9,90.36-1.83,27.72-5.83,61.91-10.37,103.22a737.8,737.8,0,0,0-4.07,97.69c4.59,200.76,83.88,366,83.88,366H2455.05S2490.66,1566.81,2506,1450.79Z"/><path class="cls-6" d="M2528.24,1103.71c-12.12,40.8-49,94.06-49,94.06a137.63,137.63,0,0,0-8.89-22.42C2496.08,1155.63,2528.24,1103.71,2528.24,1103.71Z"/><path class="cls-39" d="M2702.68,714.64l5.49,154.89c32.6,246.35,199.83,158.89,199.83,158.89-75.48-57.58-26.56-252.46-82.51-318.13S2702.68,714.64,2702.68,714.64Z"/><path d="M2725.24,709.18s61.68-46,97.26,20.91,15.31,157.14,31.52,202.15c0,0-18.31-29.32-22.21-114.5S2781,684.18,2725.24,709.18Z"/><path d="M2781.22,764.26S2801.8,807.75,2802,867s21.79,70.12,21.79,70.12-28.46-8.47-32.09-81.74S2781.22,764.26,2781.22,764.26Z"/><path d="M2691.28,726.05l16.58-16.26s74.42,22.82,25,129.82c3.41,36.75,15,98.66,54.23,114.39,59.11,23.7,33.4,69.63,120.94,74.42,0,0-167.23,87.46-199.83-158.89l-2.87-80.92Z"/><path class="cls-39" d="M2726.4,898.52l.09,2.48s15.18,123.9,116.37,127.51C2842.86,1028.51,2765.18,1008.3,2726.4,898.52Z"/><path class="cls-15" d="M2673.2,996.83c-24.1-18.49-13.1-79-13.1-79a7.72,7.72,0,0,1,4.92-6.54,120.05,120.05,0,0,0,17.19-8.8c2.27-1.29,4.52-2.95,6.89-4.56.05-.05.05-.11.1-.11,14.7-10.77,28.46-27.61,22.43-50.89-13-49.59-56.45-17.51-56.45-17.51L2579.3,720.53l-7.42-10.62-11,3.34-97.78,29.64,4.46,66.66,2.13,32s8,142.29,83.71,135.3c0,0,15.93-1.35,21.94-6.77,0,0,1.59,7.67,2.48,16.58.07.63.1,1.31.18,2,.71,8.39,1.61,18.06-1.85,22,0,0,1.55,30.85,32.51,31.33S2673.2,996.83,2673.2,996.83Z"/><path class="cls-16" d="M2668.28,852.09c-2.71-6.39,4.39-12.83,10.52-9.56,5.09,2.71,9.54,8.92,6.25,23-6.39,27.29-21.58,16.11-20.83,7.86s8.06-12.08,4.17-21Z"/><path class="cls-40" d="M2548.92,836.47a8.91,8.91,0,0,1,3.63-5.22,11.08,11.08,0,0,1,7.18-2c4.92.21,11.56,3.74,12.43,8.87.36,2.12,3.11,3.19,5,2.62,2.27-.7,3-2.84,2.62-5-.76-4.48-4.18-7.9-7.79-10.36a24,24,0,0,0-12.46-4.1c-8.23-.33-16.31,5.16-18.28,13.28-1.21,5,6.5,6.84,7.71,1.87Z"/><path class="cls-40" d="M2482.8,836.14c1-4.19,6.75-7.81,11-8,4.88-.23,9.1,4.32,11.43,8.75a4,4,0,0,0,5.47,1.26,4.05,4.05,0,0,0,1.26-5.47c-3.58-6.8-10.74-13.12-18.88-12.45-7.68.64-16,6.33-18,14a4,4,0,0,0,7.72,1.87Z"/><ellipse class="cls-40" cx="2494.49" cy="860.09" rx="7.07" ry="11.28" transform="translate(-25.12 76.63) rotate(-1.75)"/><ellipse class="cls-40" cx="2559.28" cy="858.11" rx="7.46" ry="11.9" transform="translate(-25.03 78.61) rotate(-1.75)"/><path class="cls-16" d="M2682.22,902.55a117.56,117.56,0,0,1-17.21,8.72s-16.9,2-20.12-13.87C2646.08,898.83,2658.85,913.37,2682.22,902.55Z"/><path class="cls-41" d="M2702.68,714.66s44.21,48.2,7.92,129.77C2710.6,844.43,2778.28,774,2702.68,714.66Z"/><path class="cls-39" d="M2460.38,800.71a77.69,77.69,0,0,0,7.5,14.19s72.59-16.61,85.2-58.38c0,0-8.56,65.5,90.2,94.8l4.79-8.84c6.47-11.8,17.94-20.46,31.28-22.14,12.78-1.55,26.86,2.84,32.28,26.62,0,0,51.62-154.55-74.2-160.77a68.57,68.57,0,0,0-10.07-9.73h-.05a82.39,82.39,0,0,0-52-18.72c-27.18-.09-62.62,13.21-104.61,58.23C2470.73,716,2443.48,758.52,2460.38,800.71Z"/><path d="M2460.38,800.71a77.69,77.69,0,0,0,7.5,14.19s72.59-16.61,85.2-58.38c0,0-8.56,65.5,90.2,94.8l4.79-8.84c6.47-11.8,17.94-20.46,31.28-22.14,12.78-1.55,26.86,2.84,32.28,26.62-13-74.25-66.83-16.67-66.83-16.67-73.5-4.7-89.87-94.18-89.87-94.18C2539.89,786.33,2460.38,800.71,2460.38,800.71Z"/><path d="M2578.22,747s6,55.64,69.14,57.35C2647.36,804.32,2599.43,786.82,2578.22,747Z"/><path d="M2534.18,731.61s-21.11,45-71.83,51.46C2462.35,783.07,2498,769.29,2534.18,731.61Z"/><path d="M2599.16,705.42c23.13-17.9,38.27-19.23,38.27-19.23a68.57,68.57,0,0,0-10.07-9.73h-.05a82.39,82.39,0,0,0-52-18.72C2620.12,663.52,2599.16,705.42,2599.16,705.42Z"/><path class="cls-16" d="M2575.31,970.07s1.59,7.67,2.48,16.58c.07.63.1,1.31.18,2,30.67-15.49,34.61-55.69,34.61-55.69C2605.06,952,2575.31,970.07,2575.31,970.07Z"/><path class="cls-42" d="M2542.58,923.22c3.1,12.28.92,20.34-6.84,23.49s-16.51-.35-21.27-12.08-.1-18.31,7.66-21.46S2540.49,915,2542.58,923.22Z"/><path class="cls-13" d="M2597.61,1047.58v13.07c-15.74,72.54-70.14,76.25-95.52,73.81a3,3,0,0,1-2.53-4,2.89,2.89,0,0,1,1.79-1.78c47.55-17.7,83.75-74.37,83.75-74.37Z"/><path class="cls-13" d="M2597.61,1057.37s-11.17,88.19,4,108.4c9,12,21.9,23.46,31,30.87a4.94,4.94,0,0,0,8-4.75c-2.62-13.8-6.07-35.82-5.1-52.4,1.51-26-27.54-89.19-27.54-89.19Z"/><path class="cls-43" d="M2619,1047.38l-3.25,5a19.45,19.45,0,0,1-18.93,8.74c-7.49-1.05-15.67-3.57-16.67-9.57a26.41,26.41,0,0,1-.35-3.73c-.26-10.06,4.71-19.32,4.71-19.32l9.41-6.64,14.49,1.2,8.55,19.63Z"/><path class="cls-44" d="M2617,1042.7l-2.39,3.66a19.42,19.42,0,0,1-18.92,8.74c-6.45-.9-13.4-2.89-15.85-7.27-.26-10.06,4.71-19.32,4.71-19.32l9.41-6.64,14.49,1.2Z"/><path class="cls-8" d="M2608.43,1023.07l7.59,48.26s48.95-6.25,77.49-54.38L2673,981.78S2649.65,1006.06,2608.43,1023.07Z"/><path class="cls-8" d="M2578.52,996.12l-15.91,38.63s5.62,16.85,16.86,25.52l14.48-38.4S2578.05,1006.42,2578.52,996.12Z"/><path class="cls-43" d="M2597.61,1060.11v.54c-15.74,72.54-70.14,76.25-95.52,73.81a3,3,0,0,1-2.53-4c62.61,7.55,97.28-69.29,97.28-69.29Z"/><path class="cls-43" d="M2634.05,1187.83s-11.74-8-25-25.57-6.69-98.43-6.69-98.43S2597.11,1158.19,2634.05,1187.83Z"/><path class="cls-6" d="M2773.63,1239.37a737.8,737.8,0,0,0-4.07,97.69h0a272.52,272.52,0,0,1-58.72,55.8L2563.26,1502h-27.21l-30.1-51.21c4.8-36.38,7.6-70.75,6.67-98.34l114.83-93.37,83.43-175.48,22.28-3.25,50.84,55.8C2782.17,1163.87,2778.17,1198.06,2773.63,1239.37Z"/><path class="cls-15" d="M2766.9,1279.9l-23.23,51.32a87.5,87.5,0,0,1-26.44,33.34L2535.39,1481.8a46.32,46.32,0,0,0-6.21,4.77l-4.82,4.41a42.08,42.08,0,0,1-28.39,11h-25v-43.55H2307.53c35.84-45.15,99.74-51.9,132.27-52.2a65.64,65.64,0,0,0,38.56-12.88l3.64-2.7,0,0,153.78-114.1,20.76-55.14,18.21-10.9h0l63.68-38.14Z"/><path class="cls-16" d="M2486.06,1502h-15.14v-43.55H2307.53s155.9-25,174.5-8.1C2496,1463.06,2489.93,1489.64,2486.06,1502Z"/><path class="cls-16" d="M2683.41,1285.65s-38.19-2.92-47,0-152.18,103.43-154.42,105l153.78-114.1,20.76-55.14,18.21-10.9-23.81,65S2669.58,1275.13,2683.41,1285.65Z"/><path class="cls-10" d="M2656.58,1221.42s43.61-112.25,61.13-154.55,83.95-27.78,84.77,48.43-35.57,164.61-35.57,164.61S2727.08,1211.44,2656.58,1221.42Z"/><rect class="cls-22" x="1971.28" y="1457.45" width="532.9" height="44.56" rx="22.28"/><rect class="cls-9" x="1790.14" y="1457.45" width="532.9" height="44.56" rx="22.28"/><rect class="cls-19" x="2114.67" y="1502.01" width="1229.73" height="89.68" rx="12"/><rect class="cls-13" x="1481.9" y="1502.01" width="1229.73" height="89.68" rx="12"/><path class="cls-7" d="M2192.89,1591.69h1067a0,0,0,0,1,0,0v953a76.06,76.06,0,0,1-76.06,76.06H2268.94a76.06,76.06,0,0,1-76.06-76.06v-953A0,0,0,0,1,2192.89,1591.69Z"/><path class="cls-45" d="M2619,1591.68v953.05a76.06,76.06,0,0,1-76.06,76.06H1628a76.07,76.07,0,0,1-76.06-76.06v-953Z"/><path class="cls-20" d="M2619,2480.22v64.51a76.06,76.06,0,0,1-76.06,76.06H1628a76.07,76.07,0,0,1-76.06-76.06v-953h149.5S1553.8,2525.28,2619,2480.22Z"/><rect class="cls-19" x="2150.62" y="1861.06" width="1142.13" height="360.19" rx="23.18"/><rect class="cls-13" x="1515.9" y="1861.06" width="1152.82" height="360.19" rx="23.29"/><path class="cls-20" d="M2342.88,2165c-21.14-22.34-40.66-35.69-60.58-35.42h-60.93l-21.85,17.63-2.54,7c-47.27-12.85-84.55-62.06-96.94-71.43-10.89-16.18-82.44-75.08-65.31-138.82l8.83-8.36c33.05-32.72,22.16-63.47-12.23-99.81h0c-22.4-23.67-38.6-47.24-56.74-47.67H1913l-13.21,70.63,2.25,2.5a123.4,123.4,0,0,0-7.84,22.27h0s-20.12,60.76,12.49,129.87a187.53,187.53,0,0,0,33.6,48.86l85.73,90.58,85.72,90.59a187.46,187.46,0,0,0,46.94,36.23,195.31,195.31,0,0,0,19.75,9.3l2.53,4.49,6.86,9.68h64.36c21.67-.11,35.49-3.85,35.49-3.85h0c24-4.48,49.31-17.33,71-37.82l17.67-16.71C2404.49,2218.11,2373.46,2197.35,2342.88,2165Z"/><path class="cls-21" d="M2282,2165c-34.4-36.35-64.5-48.91-99-17.71l-8.83,8.36c-64.59,13.59-119.46-61.09-135-72.86-10.89-16.18-82.44-75.08-65.31-138.82l8.83-8.36c33-32.72,22.16-63.47-12.23-99.81h0c-30.59-32.32-49.6-64.44-77.78-37.77L1875,1814.78c-21.65,20.49-35.87,45.1-41.66,68.78h0s-20.13,60.76,12.49,129.87a187.28,187.28,0,0,0,33.6,48.86l85.72,90.58,85.73,90.59a187.46,187.46,0,0,0,46.94,36.23c67.21,36.37,129,19.62,129,19.62h0c24-4.48,49.32-17.33,71-37.82l17.66-16.71c28.18-26.67-2.85-47.43-33.43-79.74Z"/><rect class="cls-22" x="1545.39" y="857.12" width="692.35" height="507.65" rx="28.76"/><path class="cls-46" d="M2208.25,885.87V1336a28.76,28.76,0,0,1-28.76,28.76H1544.65a28.69,28.69,0,0,1-23.61-12.35h0a28.65,28.65,0,0,1-5.13-16.4V885.87a28.75,28.75,0,0,1,28.75-28.75h634.84a28.77,28.77,0,0,1,28.76,28.75Z"/><path class="cls-9" d="M2202,868,1521,1352.42h0a28.65,28.65,0,0,1-5.13-16.4V885.87a28.75,28.75,0,0,1,28.75-28.75h634.84A28.71,28.71,0,0,1,2202,868Z"/><path class="cls-37" d="M2057,1287v45.26a11.47,11.47,0,0,1-7.4,10.72,11.28,11.28,0,0,1-4.08.75A11.48,11.48,0,0,1,2034,1332.3V1287a11.47,11.47,0,0,1,11.47-11.48,11.07,11.07,0,0,1,4.08.75A11.42,11.42,0,0,1,2057,1287Z"/><path class="cls-47" d="M2057,1287v45.26a7.91,7.91,0,1,1-14.8,0V1287a7.59,7.59,0,1,1,14.8,0Z"/><path class="cls-37" d="M2090.61,1287v45.26a11.47,11.47,0,0,1-7.4,10.72,11.28,11.28,0,0,1-4.08.75,11.48,11.48,0,0,1-11.47-11.47V1287a11.47,11.47,0,0,1,11.47-11.48,11.07,11.07,0,0,1,4.08.75,11.42,11.42,0,0,1,7.4,10.73Z"/><path class="cls-47" d="M2090.61,1287v45.26a7.91,7.91,0,1,1-14.8,0V1287a7.59,7.59,0,1,1,14.8,0Z"/><path class="cls-37" d="M2124.25,1287v45.26a11.47,11.47,0,0,1-7.4,10.72,11.28,11.28,0,0,1-4.08.75,11.48,11.48,0,0,1-11.47-11.47V1287a11.47,11.47,0,0,1,11.47-11.48,11.07,11.07,0,0,1,4.08.75,11.42,11.42,0,0,1,7.4,10.73Z"/><path class="cls-47" d="M2124.25,1287v45.26a7.91,7.91,0,1,1-14.8,0V1287a7.59,7.59,0,1,1,14.8,0Z"/><path class="cls-37" d="M2157.89,1287v45.26a11.47,11.47,0,0,1-7.4,10.72,11.28,11.28,0,0,1-4.08.75,11.48,11.48,0,0,1-11.47-11.47V1287a11.47,11.47,0,0,1,11.47-11.48,11.07,11.07,0,0,1,4.08.75,11.42,11.42,0,0,1,7.4,10.73Z"/><path class="cls-47" d="M2157.89,1287v45.26a7.91,7.91,0,1,1-14.8,0V1287a7.59,7.59,0,1,1,14.8,0Z"/><path class="cls-37" d="M1747.54,1035.59h148.21a17.79,17.79,0,0,1,17.79,17.79V1502a0,0,0,0,1,0,0H1729.75a0,0,0,0,1,0,0V1053.37A17.79,17.79,0,0,1,1747.54,1035.59Z"/><path class="cls-47" d="M1729.78,1035.59H1878a17.79,17.79,0,0,1,17.79,17.79V1502a0,0,0,0,1,0,0H1712a0,0,0,0,1,0,0V1053.37A17.79,17.79,0,0,1,1729.78,1035.59Z"/><path class="cls-22" d="M3699.12,604.53H3084.7A36.82,36.82,0,0,0,3048,641.24V969.63l-114.88,99.91-3.17-2.38-20.49,7.28L2892,1090.91h36.48a8,8,0,0,0,2.25-.2L3048,1063.83v110a36.82,36.82,0,0,0,36.71,36.71h614.42a36.82,36.82,0,0,0,36.71-36.71V641.24A36.82,36.82,0,0,0,3699.12,604.53Z"/><path class="cls-48" d="M3699.35,641.23v532.58a36.82,36.82,0,0,1-36.71,36.7H3048.21a36.64,36.64,0,0,1-27.73-12.72v0a36.46,36.46,0,0,1-9-24v-110l-117.3,26.89c-7.76,1.78-12.74-8-6.73-13.23l124-107.85V641.23a36.82,36.82,0,0,1,36.7-36.71h614.43a36.82,36.82,0,0,1,36.71,36.71Z"/><path class="cls-46" d="M3699.35,641.23v532.58a36.82,36.82,0,0,1-36.71,36.7H3048.21a36.64,36.64,0,0,1-27.73-12.72v0l665-585.18v0A36.71,36.71,0,0,1,3699.35,641.23Z"/><path class="cls-34" d="M3522.34,1210.51h-31c-1-.44-1.9-.86-2.84-1.25l.16,1.25H3123.83c9.1-14.16,95.56-148.53,107.77-164,12.88-16.31,79-41.65,79-41.65s85-19.5,152.8,13.78h0C3522.55,1033.52,3524.18,1159.25,3522.34,1210.51Z"/><path class="cls-15" d="M3433.21,917.08c-.06,0-.06.06-.11,0-2,1.32-4.08,2.58-6.06,3.62a101.56,101.56,0,0,1-15.11,6.67,6.75,6.75,0,0,0-4.52,5.44c-1.9,11.65-6.9,45-6.61,68.14-22.87,22.71-39.91,32.2-52.43,34.86-15.83,3.35-30.92-8.31-32.21-24.45l-2.65-33c-65,2.54-65.35-119.47-65.35-119.47l10.9-82.71,82.45-25.1,66.06,103.52s38.34-23,47.1,20C3458.78,894.77,3446.29,908.52,3433.21,917.08Z"/><path class="cls-16" d="M3314.87,995.4c51-13.9,48.38-47.94,48.38-47.94-17.92,28.08-42.45,30.74-49.74,30.95Z"/><path class="cls-16" d="M3417.42,877c-2-5.59,4.34-10.77,9.43-7.69,4.23,2.55,7.75,8.06,4.3,19.91-6.71,23-19.18,12.79-18.17,5.77s7.44-10,4.53-17.75Z"/><path class="cls-16" d="M3427,920.75a101.56,101.56,0,0,1-15.11,6.67s-14.53.92-16.56-12.77C3396.32,915.92,3406.57,928.93,3427,920.75Z"/><path class="cls-16" d="M3405.62,858s-29.47,26.4-67.42-21c0,0-19.71-24.78-25.11-41.39-4.28-13.19-13.07,3.72-12.28,9.61,0,0-10.5-32.71-24.54-4.26,0,0-4,6.32-13.79,43.25L3256,774.55,3295.75,742l75.22-2.46,33,29.36,32.09,44.33Z"/><path class="cls-39" d="M3455,850.7c-2,3.11-4.16,6.33-6.52,9.59,0,0-12-23.38-41.19-3.27-27.45,18.84-81.31-29.8-87.27-66.52-1.05-6.6-8.13-11-14-7.6-2.7,1.51-5.26,4.5-7,9.79,0,0-6.94-22.23-22.93-.52s-5.66,62.55-28.15,76.4C3230,879.63,3222.05,864,3221,840.72a158.67,158.67,0,0,1,.59-18.86c3-32.49-13.42-53,13.72-70.09,0,0,23-63.36,67.48-33.86,0,0,39.77-34.76,91.1-20.88S3451,751,3451,751,3503.18,775.74,3455,850.7Z"/><path d="M3455,850.7c-2,3.11-4.16,6.33-6.52,9.59,0,0-12-23.38-41.19-3.27-27.45,18.84-81.31-29.8-87.27-66.52-1.05-6.6-8.13-11-14-7.6-2.7,1.51-5.26,4.5-7,9.79,0,0-6.94-22.23-22.93-.52s-5.66,62.55-28.15,76.4C3230,879.63,3222.05,864,3221,840.72l.06-.06s9.11,29.79,24.79,14.21,16-116,52.31-74.38c0,0,18.57-27.58,29.41,7.3s53.23,64.44,73,53.42,48.63-5.53,53.44,7.41C3454.32,849.28,3454.63,850,3455,850.7Z"/><path d="M3344.68,764.87s12,59.54,75.25,59.59C3419.93,824.46,3374.56,809,3344.68,764.87Z"/><path d="M3451.76,764.55s25,17.4,1.55,63.9C3453.31,828.45,3464.27,792.5,3451.76,764.55Z"/><path d="M3299.22,727.55s-34.58-24.09-55.22,27.17C3244,754.72,3259.43,722.18,3299.22,727.55Z"/><path d="M3439.16,748s-32.93-58-111.63-27.4C3327.53,720.61,3397.32,705.65,3439.16,748Z"/><path class="cls-10" d="M3123.83,1210.51l-.78,1.21v-1.21Z"/></g></svg>