<?xml version="1.0" encoding="utf-8"?>
<!-- Generator: Adobe Illustrator 24.0.0, SVG Export Plug-In . SVG Version: 6.00 Build 0)  -->
<svg version="1.1" id="Layer_1" xmlns="http://www.w3.org/2000/svg" xmlns:xlink="http://www.w3.org/1999/xlink" x="0px" y="0px"
	 viewBox="0 0 4680 3120" style="enable-background:new 0 0 4680 3120;" xml:space="preserve">
<style type="text/css">
	.st0{fill:#FFFFFF;fill-opacity:0;}
	.st1{fill:#E4F6F8;}
	.st2{fill:#ADE0E0;}
	.st3{clip-path:url(#SVGID_2_);}
	.st4{fill:#0E6864;}
	.st5{fill:#1DAAA6;}
	.st6{fill:#78C4BF;}
	.st7{fill:#93DBD7;}
	.st8{fill:#FFFFFF;}
	.st9{fill:#F25619;}
	.st10{fill:#A3AF0B;}
	.st11{fill:#8B8E0A;}
	.st12{fill:#75750A;}
	.st13{fill:#364547;}
	.st14{fill:#B6CC17;}
	.st15{fill:#EFF275;}
	.st16{fill:#3C7219;}
	.st17{fill:#EDB183;}
	.st18{fill-rule:evenodd;clip-rule:evenodd;fill:#BC835C;}
	.st19{fill:#BC835C;}
	.st20{fill:#FFC05D;}
	.st21{fill:#FFA829;}
	.st22{fill:#E88503;}
	.st23{fill:#F7DE9C;}
	.st24{fill:#8E1E03;}
	.st25{fill:#E3E3E3;}
	.st26{fill:#FF4557;}
	.st27{fill:#565252;}
	.st28{fill:#BFBFBF;}
	.st29{fill:#6B2F05;}
	.st30{fill:#F43D47;}
	.st31{fill:#F9647D;}
	.st32{fill:#F5AE97;}
	.st33{fill:#ED856E;}
	.st34{fill:#B73108;}
	.st35{fill:#0A3F3B;}
	.st36{fill:#23B9BA;}
	.st37{fill:#072C35;}
	.st38{fill:#0E4959;}
	.st39{fill:#06252C;}
	.st40{fill:#EA7618;}
	.st41{fill:#CB6655;}
	.st42{fill:#542B30;}
	.st43{fill:#82484D;}
	.st44{fill:#71DBD8;}
	.st45{fill:#A0E0D4;}
	.st46{fill:#A04A10;}
	.st47{fill:#4C302B;}
	.st48{fill:#BC848B;}
	.st49{fill:#023531;}
	.st50{fill:#055451;}
</style>
<title>10</title>
<g id="_10">
	<rect class="st0" width="4680" height="3120"/>
	<path class="st1" d="M1413.2,2571.3c0,0-753.9-542.1-545.3-1132.6s769.8-778.9,872.2-915.4s2081.7-319.7,1861.8,1310.8
		C3601.9,1834.1,3474.8,3157.1,1413.2,2571.3z"/>
	<path class="st2" d="M956.8,828.2L956.8,828.2c2.7,0,4.9,2.2,4.9,4.9v640.1c0,2.7-2.2,4.9-4.9,4.9h0c-2.7,0-4.9-2.2-4.9-4.9V833
		C952,830.3,954.1,828.2,956.8,828.2z"/>
	<path class="st2" d="M995.9,923.3L995.9,923.3c2.7,0,4.9,2.2,4.9,4.9v545c0,2.7-2.2,4.9-4.9,4.9h0c-2.7,0-4.9-2.2-4.9-4.9v-545
		C991,925.4,993.2,923.3,995.9,923.3z"/>
	<path class="st2" d="M1035,740.5L1035,740.5c2.7,0,4.9,2.2,4.9,4.9v727.8c0,2.7-2.2,4.9-4.9,4.9h0c-2.7,0-4.9-2.2-4.9-4.9V745.3
		C1030.1,742.6,1032.3,740.5,1035,740.5z"/>
	<path class="st2" d="M949.4,1366.7h92.6c8.2,0,14.8,6.6,14.8,14.8v0c0,8.2-6.6,14.8-14.8,14.8h-92.6c-8.2,0-14.8-6.6-14.8-14.8v0
		C934.6,1373.3,941.2,1366.7,949.4,1366.7z"/>
	<path class="st2" d="M949.4,1198.5h92.6c8.2,0,14.8,6.6,14.8,14.8v0c0,8.2-6.6,14.8-14.8,14.8h-92.6c-8.2,0-14.8-6.6-14.8-14.8v0
		C934.6,1205.1,941.2,1198.5,949.4,1198.5z"/>
	<path class="st2" d="M949.4,1030.3h92.6c8.2,0,14.8,6.6,14.8,14.8v0c0,8.2-6.6,14.8-14.8,14.8h-92.6c-8.2,0-14.8-6.6-14.8-14.8v0
		C934.6,1036.9,941.2,1030.3,949.4,1030.3z"/>
	<path class="st2" d="M1139.3,794L1139.3,794c2.7,0,4.9,2.2,4.9,4.9V1439c0,2.7-2.2,4.9-4.9,4.9h0c-2.7,0-4.9-2.2-4.9-4.9V798.9
		C1134.5,796.2,1136.7,794,1139.3,794z"/>
	<path class="st2" d="M1176.8,888.2L1176.8,888.2c2.7,0,4.9,2.2,4.9,4.9v545c0,2.7-2.2,4.9-4.9,4.9h0c-2.7,0-4.9-2.2-4.9-4.9V893
		C1171.9,890.3,1174.1,888.2,1176.8,888.2z"/>
	<path class="st2" d="M1216.6,888.2L1216.6,888.2c2.7,0,4.9,2.2,4.9,4.9v545c0,2.7-2.2,4.9-4.9,4.9h0c-2.7,0-4.9-2.2-4.9-4.9V893
		C1211.8,890.3,1213.9,888.2,1216.6,888.2z"/>
	<path class="st2" d="M1132.8,1075.7h92.6c8.2,0,14.8,6.6,14.8,14.8v0c0,8.2-6.6,14.8-14.8,14.8h-92.6c-8.2,0-14.8-6.6-14.8-14.8v0
		C1117.9,1082.4,1124.6,1075.7,1132.8,1075.7z"/>
	<path class="st2" d="M1132.8,1256.6h92.6c8.2,0,14.8,6.6,14.8,14.8v0c0,8.2-6.6,14.8-14.8,14.8h-92.6c-8.2,0-14.8-6.6-14.8-14.8v0
		C1117.9,1263.2,1124.6,1256.6,1132.8,1256.6z"/>
	<path class="st2" d="M1132.8,943.7h92.6c8.2,0,14.8,6.6,14.8,14.8v0c0,8.2-6.6,14.8-14.8,14.8h-92.6c-8.2,0-14.8-6.6-14.8-14.8v0
		C1117.9,950.3,1124.6,943.7,1132.8,943.7z"/>
	<rect x="3358.2" y="898.2" class="st2" width="143" height="348.5"/>
	<path class="st2" d="M3329.9,827h194.1c2.5,0,4.6,2.1,4.6,4.6v60.8c0,2.5-2.1,4.6-4.6,4.6h-194.1c-2.5,0-4.6-2.1-4.6-4.6v-60.8
		C3325.3,829,3327.4,827,3329.9,827z"/>
	<path class="st2" d="M3376.3,599.3L3376.3,599.3c2.7,0,4.9,2.2,4.9,4.9v230.6c0,2.7-2.2,4.9-4.9,4.9h0c-2.7,0-4.9-2.2-4.9-4.9
		V604.2C3371.4,601.5,3373.6,599.3,3376.3,599.3z"/>
	<path class="st2" d="M3405.5,599.3L3405.5,599.3c2.7,0,4.9,2.2,4.9,4.9v230.6c0,2.7-2.2,4.9-4.9,4.9h0c-2.7,0-4.9-2.2-4.9-4.9
		V604.2C3400.7,601.5,3402.9,599.3,3405.5,599.3z"/>
	<path class="st2" d="M3437.8,711.4L3437.8,711.4c2.7,0,4.9,2.2,4.9,4.9v113.3c0,2.7-2.2,4.9-4.9,4.9h0c-2.7,0-4.9-2.2-4.9-4.9
		V716.2C3432.9,713.5,3435.1,711.4,3437.8,711.4z"/>
	<g>
		<defs>
			<path id="SVGID_1_" d="M1413.2,2571.3c0,0-753.9-542.1-545.3-1132.6s769.8-778.9,872.2-915.4s2081.7-319.7,1861.8,1310.8
				C3601.9,1834.1,3474.8,3157.1,1413.2,2571.3z"/>
		</defs>
		<clipPath id="SVGID_2_">
			<use xlink:href="#SVGID_1_"  style="overflow:visible;"/>
		</clipPath>
		<g class="st3">
			<polygon class="st2" points="671.5,1373.7 1784.9,1373.7 1784.9,1504.2 660.6,1504.2 			"/>
			<polygon class="st2" points="670.1,1790.4 1641.7,1790.4 1641.7,1920.8 660.6,1920.8 			"/>
			<rect x="1389.6" y="1504.2" class="st2" width="98.4" height="1140.5"/>
			<rect x="926.6" y="1504.2" class="st2" width="98.4" height="1140.5"/>
			<polygon class="st2" points="2684.9,1030 3798.2,1030 3798.2,1160.5 2673.9,1160.5 			"/>
			<polygon class="st2" points="2683.5,1446.6 3655,1446.6 3655,1577.1 2673.9,1577.1 			"/>
			<rect x="3358.2" y="1160.5" class="st2" width="143.1" height="1140.5"/>
			<rect x="2939.9" y="1160.5" class="st2" width="98.4" height="1140.5"/>
		</g>
	</g>
	<path class="st4" d="M3236.1,440.9v1336.5c0,60.7-49.2,109.9-109.9,109.9H1298.6c-60.7,0-109.9-49.2-109.9-109.9V440.9
		c0-60.7,49.2-109.9,109.9-109.9h1827.6C3186.9,331.1,3236.1,380.3,3236.1,440.9z"/>
	<path class="st5" d="M3281.5,440.9v1336.5c0,60.7-49.2,109.9-109.9,109.9H1344c-60.7,0-109.9-49.2-109.9-109.9V440.9
		c0-60.7,49.2-109.9,109.9-109.9h1827.6C3232.3,331.1,3281.5,380.3,3281.5,440.9z"/>
	<path class="st4" d="M3230.5,440.9v1336.5c-0.1,32.5-26.4,58.8-58.9,58.9H1344c-32.5-0.1-58.8-26.4-58.9-58.9V440.9
		c0.1-32.5,26.4-58.8,58.9-58.9h1827.6C3204.1,382.1,3230.4,408.4,3230.5,440.9z"/>
	<path class="st6" d="M3185.1,440.9v1336.5c-0.1,32.5-26.4,58.8-58.9,58.9H1344c-21.7,0-41.5-11.9-51.8-31l0,0
		c-4.6-8.6-7-18.1-7-27.8V440.9c0.1-32.5,26.4-58.8,58.8-58.9h1782.2C3158.7,382.1,3185,408.4,3185.1,440.9L3185.1,440.9z"/>
	<path class="st7" d="M3170.7,402.4L1292.1,1805.3l0,0c-4.6-8.6-7-18.1-7-27.8V440.9c0.1-32.5,26.4-58.8,58.9-58.9h1782.2
		C3143.3,382.1,3159.5,389.5,3170.7,402.4z"/>
	<path class="st4" d="M3047.4,563.3c0-0.2,0-0.5,0-0.7c0-0.5-0.1-1-0.1-1.4c0-0.3-0.1-0.5-0.1-0.8c0-0.4-0.1-0.9-0.2-1.3
		c0-0.3-0.1-0.5-0.1-0.8c-0.1-0.4-0.1-0.8-0.2-1.3c0-0.3-0.1-0.5-0.2-0.8c-0.1-0.4-0.2-0.8-0.3-1.3c-0.1-0.2-0.1-0.5-0.2-0.8
		c-0.1-0.4-0.2-0.9-0.4-1.3l-0.2-0.7c-0.1-0.5-0.3-0.9-0.5-1.4c-0.1-0.2-0.1-0.4-0.2-0.6c-0.2-0.5-0.4-1.1-0.6-1.6
		c0-0.1-0.1-0.2-0.1-0.3c-0.6-1.3-1.1-2.5-1.8-3.7l-0.1-0.2c-0.3-0.5-0.6-1-0.9-1.5c-0.1-0.1-0.2-0.3-0.3-0.4
		c-0.3-0.4-0.5-0.9-0.8-1.3l-0.3-0.5l-0.8-1.1l-0.4-0.5c-0.3-0.4-0.6-0.7-0.8-1l-0.5-0.6c-0.1-0.1-0.2-0.3-0.3-0.4s-0.3-0.3-0.4-0.5
		l-0.8-0.9l-0.7-0.7l-0.9-0.9l-0.7-0.7c-0.3-0.3-0.6-0.6-1-0.8l-0.7-0.6l-1.1-0.8c-0.2-0.2-0.4-0.4-0.7-0.5
		c-0.4-0.3-0.8-0.6-1.2-0.9l-0.6-0.4c-1.2-0.8-2.5-1.6-3.8-2.3l-0.6-0.3c-0.5-0.2-0.9-0.5-1.4-0.7l-0.7-0.3
		c-0.4-0.2-0.9-0.4-1.3-0.6c-0.3-0.1-0.6-0.2-0.8-0.3l-1.3-0.5l-0.9-0.3l-1.3-0.4l-0.9-0.3c-0.4-0.1-0.9-0.2-1.3-0.3l-0.9-0.2
		l-1.3-0.3l-0.9-0.2l-1.4-0.2l-0.9-0.1l-1.6-0.2l-0.8-0.1c-0.8,0-1.6-0.1-2.4-0.1H1541.7c-24,0.1-43.5,19.5-43.6,43.6v1129.1
		c0,24.1,19.5,43.6,43.6,43.6h1462.2c24-0.1,43.5-19.5,43.6-43.6V565.5C3047.5,564.7,3047.5,564,3047.4,563.3z"/>
	<path class="st8" d="M3009.8,529.1v1129.1c-0.1,24-19.5,43.5-43.6,43.6H1504c-24.1,0-43.6-19.5-43.6-43.6V529.1
		c0.1-24,19.5-43.5,43.6-43.6h1462.2C2990.2,485.6,3009.7,505.1,3009.8,529.1z"/>
	<path class="st9" d="M3009.8,529.1v131.7H1460.4V529.1c0.1-24.1,19.6-43.6,43.6-43.6h1462.2
		C2990.2,485.6,3009.7,505.1,3009.8,529.1z"/>
	<path class="st8" d="M1900.4,628c-6.2,0-12.4-0.7-18.5-2c-5.6-1.2-11-3.2-16-5.9c-2.4-1.1-4.3-3.3-5.1-5.8
		c-0.7-2.4-0.5-4.9,0.4-7.2c0.8-2.2,2.5-3.9,4.6-4.9c2.1-1,4.7-0.7,7.7,0.7c4,2.3,8.3,3.9,12.9,4.9c4.6,1,9.3,1.6,14,1.6
		c6.9,0,11.9-1.1,15-3.3s4.6-4.9,4.6-8.2c0.1-2.6-1.1-5.1-3.2-6.7c-2.1-1.6-5.8-3-11.1-4.2l-16.3-3.5c-18.2-3.9-27.3-13.3-27.3-28.3
		c-0.1-6.1,1.7-12,5.2-17c3.7-5,8.7-9,14.5-11.4c6.9-2.8,14.2-4.2,21.6-4c5.4,0,10.7,0.7,15.9,2c4.9,1.2,9.5,3.1,13.7,5.7
		c2.2,1.2,3.8,3.2,4.5,5.6c0.6,2.2,0.4,4.6-0.5,6.7c-0.9,2.1-2.5,3.7-4.6,4.5c-2.2,0.9-4.8,0.5-8-1c-3.2-1.6-6.6-2.9-10.1-3.6
		c-3.6-0.8-7.3-1.2-11-1.2c-6.1,0-10.8,1.2-14.1,3.5c-3.1,2-5,5.5-5,9.2c-0.1,2.6,1,5.1,3,6.8c2,1.7,5.5,3.1,10.6,4.2l16.3,3.5
		c18.7,4,28,13.2,28,27.5c0.1,6-1.7,11.8-5.1,16.7c-3.7,5-8.7,8.8-14.4,11.1C1916.2,626.8,1908.8,628.1,1900.4,628z"/>
	<path class="st8" d="M2006,628c-11,0-20.4-2.2-28.2-6.5c-7.7-4.2-13.9-10.6-18-18.3c-4.2-7.9-6.3-17.1-6.3-27.8
		c0-10.7,2.1-19.9,6.3-27.7c4.1-7.7,10.3-14.1,18-18.3c7.8-4.3,17.2-6.5,28.2-6.5c4.9,0,9.9,0.6,14.7,1.9c4.5,1.1,8.9,2.8,12.9,5.1
		c3,1.7,4.8,3.9,5.5,6.5c0.7,2.5,0.5,5.1-0.7,7.4c-1,2.2-2.9,4-5.1,4.9c-2.3,1-4.9,0.6-7.8-1c-2.8-1.7-5.9-3-9.1-3.8
		c-3.2-0.8-6.4-1.2-9.7-1.2c-9.7,0-17.1,2.8-22,8.5c-4.9,5.6-7.4,13.7-7.4,24.2c0,10.5,2.5,18.6,7.4,24.3c5,5.7,12.3,8.5,22,8.5
		c3.2,0,6.4-0.4,9.5-1.2c3.3-0.8,6.4-2,9.3-3.6c3.1-1.6,5.8-2,8.1-1.1c2.2,0.8,4.1,2.5,5.1,4.6c1.1,2.2,1.4,4.7,0.8,7.1
		c-0.7,2.7-2.5,5-4.9,6.3c-4.1,2.6-8.5,4.5-13.2,5.6C2016.4,627.4,2011.2,628.1,2006,628z"/>
	<path class="st8" d="M2066.7,627.8c-3.7,0-6.5-1-8.4-3s-2.9-4.9-2.9-8.5v-81.4c0-7.7,3.8-11.6,11.3-11.6c7.5,0,11.2,3.9,11.1,11.6
		v30.6h47.4v-30.6c0-7.7,3.7-11.6,11.1-11.6c7.5,0,11.3,3.9,11.3,11.6v81.4c0,3.7-1,6.5-2.9,8.5s-4.7,3-8.4,3s-6.3-1-8.2-3
		s-2.9-4.9-2.9-8.5v-32.1h-47.4v32.1C2077.9,623.9,2074.2,627.8,2066.7,627.8z"/>
	<path class="st8" d="M2179.9,626.5c-7.8,0-11.7-3.9-11.7-11.7v-78.5c0-7.8,3.9-11.7,11.7-11.7h50.4c5.9,0,8.8,2.9,8.8,8.7
		s-2.9,8.7-8.8,8.8h-40.8v23.9h37.4c6,0,9,2.9,9,8.8c0,5.9-3,8.8-9,8.8h-37.4V609h40.8c5.9,0,8.8,2.9,8.8,8.7c0,5.9-2.9,8.8-8.8,8.8
		L2179.9,626.5z"/>
	<path class="st8" d="M2267.4,626.5c-7.8,0-11.7-3.9-11.7-11.7v-78.5c0-7.8,3.9-11.7,11.7-11.7h28.2c17.3,0,30.8,4.4,40.3,13.2
		c9.6,8.8,14.3,21.4,14.3,37.7c0,16.3-4.8,28.9-14.3,37.7s-23,13.3-40.3,13.3L2267.4,626.5z M2278.1,608.1h16.2
		c21.7,0,32.5-10.9,32.5-32.7c0-21.8-10.8-32.6-32.5-32.5h-16.2V608.1z"/>
	<path class="st8" d="M2411.2,628c-14.5,0-25.5-3.7-33-11.1c-7.5-7.4-11.3-18.5-11.4-33.1v-49.2c0-3.7,1-6.5,2.9-8.5
		c1.9-2,4.7-3,8.4-3c7.4,0,11.1,3.8,11.1,11.4V584c0,8.3,1.9,14.5,5.6,18.7c3.8,4.2,9.2,6.3,16.3,6.3c14.5,0,21.8-8.3,21.8-25v-49.3
		c0-7.6,3.7-11.4,11.1-11.4c3.6,0,6.3,1,8.2,3s2.8,4.8,2.8,8.5v49.2c0,14.7-3.7,25.7-11.1,33.1C2436.6,624.4,2425.7,628,2411.2,628z
		"/>
	<path class="st8" d="M2486.4,626.5c-3.8,0-6.6-1-8.5-3s-2.9-4.8-2.9-8.5v-79.3c0-3.7,1-6.5,2.9-8.5s4.7-3,8.4-3
		c7.4,0,11.1,3.8,11.1,11.4v71.8h38.7c6.5,0,9.7,3.1,9.7,9.4c0,6.4-3.2,9.5-9.7,9.5L2486.4,626.5z"/>
	<path class="st8" d="M2569.5,626.5c-7.8,0-11.7-3.9-11.7-11.7v-78.5c0-7.8,3.9-11.7,11.7-11.7h50.4c5.9,0,8.8,2.9,8.8,8.7
		s-2.9,8.7-8.8,8.8h-40.8v23.9h37.4c6,0,9,2.9,9,8.8c0,5.9-3,8.8-9,8.8h-37.4V609h40.8c5.9,0,8.8,2.9,8.8,8.7c0,5.9-2.9,8.8-8.8,8.8
		L2569.5,626.5z"/>
	<circle class="st1" cx="1621.7" cy="848" r="55.6"/>
	<circle class="st1" cx="1826.9" cy="848" r="55.6"/>
	<circle class="st1" cx="2032.2" cy="848" r="55.6"/>
	<circle class="st1" cx="2237.4" cy="848" r="55.6"/>
	<circle class="st1" cx="2442.7" cy="848" r="55.6"/>
	<circle class="st1" cx="2648" cy="848" r="55.6"/>
	<circle class="st1" cx="2853.2" cy="848" r="55.6"/>
	
		<ellipse transform="matrix(0.7071 -0.7071 0.7071 0.7071 -280.309 1459.519)" class="st1" cx="1621.6" cy="1068.1" rx="55.6" ry="55.6"/>
	
		<ellipse transform="matrix(0.7071 -0.7071 0.7071 0.7071 -220.1883 1604.6588)" class="st1" cx="1826.9" cy="1068.1" rx="55.6" ry="55.6"/>
	
		<ellipse transform="matrix(0.7071 -0.7071 0.7071 0.7071 -160.0692 1749.807)" class="st1" cx="2032.2" cy="1068.1" rx="55.6" ry="55.6"/>
	
		<ellipse transform="matrix(0.7071 -0.7071 0.7071 0.7071 -99.9094 1894.9385)" class="st1" cx="2237.4" cy="1068.1" rx="55.6" ry="55.6"/>
	
		<ellipse transform="matrix(0.9247 -0.3807 0.3807 0.9247 -222.703 1010.5082)" class="st1" cx="2442.7" cy="1068.1" rx="55.6" ry="55.6"/>
	
		<ellipse transform="matrix(0.9247 -0.3807 0.3807 0.9247 -207.2456 1088.6609)" class="st1" cx="2648" cy="1068.1" rx="55.6" ry="55.6"/>
	
		<ellipse transform="matrix(0.9247 -0.3807 0.3807 0.9247 -191.786 1166.8168)" class="st1" cx="2853.2" cy="1068.1" rx="55.6" ry="55.6"/>
	<circle class="st1" cx="1621.7" cy="1288.2" r="55.6"/>
	<circle class="st1" cx="1826.9" cy="1288.2" r="55.6"/>
	<circle class="st1" cx="2032.2" cy="1288.2" r="55.6"/>
	<circle class="st1" cx="2237.4" cy="1288.2" r="55.6"/>
	<circle class="st1" cx="2442.7" cy="1288.2" r="55.6"/>
	<circle class="st1" cx="2648" cy="1288.2" r="55.6"/>
	<circle class="st1" cx="2853.2" cy="1288.2" r="55.6"/>
	<circle class="st1" cx="1621.7" cy="1508.2" r="55.6"/>
	<circle class="st1" cx="1826.9" cy="1508.2" r="55.6"/>
	<circle class="st1" cx="2032.2" cy="1508.2" r="55.6"/>
	
		<ellipse transform="matrix(0.7071 -0.7071 0.7071 0.7071 -411.193 2023.8785)" class="st1" cx="2237.4" cy="1508.3" rx="55.6" ry="55.6"/>
	
		<ellipse transform="matrix(0.9122 -0.4098 0.4098 0.9122 -403.5043 1133.3696)" class="st1" cx="2442.7" cy="1508.2" rx="55.6" ry="55.6"/>
	
		<ellipse transform="matrix(0.9122 -0.4098 0.4098 0.9122 -385.4777 1217.4757)" class="st1" cx="2648" cy="1508.2" rx="55.6" ry="55.6"/>
	
		<ellipse transform="matrix(0.9122 -0.4098 0.4098 0.9122 -367.4487 1301.585)" class="st1" cx="2853.2" cy="1508.2" rx="55.6" ry="55.6"/>
	<path class="st10" d="M1957.3,819.7l14.5,16.4l23.1,26.2l5.3,6.1c4.1,3.8,9.5,6,15.1,6.2c5.6-0.1,11-2.3,15-6.2l11.7-11.8
		l27.8-28.1l33.7-34.1l29.1-29.5c4.7-4.8,9.4-9.5,14.1-14.3c0.1-0.1,0.1-0.1,0.2-0.2c3.9-4,6.2-9.4,6.2-15.1
		c-0.3-5.6-2.5-10.9-6.2-15c-4.1-3.7-9.4-6.5-15.1-6.2c-5.6,0.1-11,2.3-15.1,6.2l-11.7,11.8l-27.8,28.1l-33.7,34.1l-29.1,29.5
		c-4.7,4.8-9.5,9.5-14.1,14.3l-0.2,0.2h30.1l-14.5-16.4l-23.1-26.2l-5.3-6.1c-8.4-8-21.7-8-30.1,0c-3.7,4-6.5,9.4-6.2,15l0.8,5.7
		C1952.8,813.8,1954.7,817.1,1957.3,819.7L1957.3,819.7z"/>
	<path class="st9" d="M2352.6,1015.6l3.9,3.3l10.5,8.9l15.6,13.1l19,16l20.8,17.6l21,17.7l19.6,16.5l16.6,14l11.9,10
		c1.9,1.6,3.8,3.2,5.6,4.8l0.2,0.2c8.4,8,21.7,8,30.1,0c3.7-4.1,6.5-9.4,6.2-15.1c-0.2-5.4-2-11.4-6.2-15l-3.9-3.3l-10.5-8.9
		l-15.6-13.1l-19-16l-20.8-17.6l-21-17.7l-19.6-16.5l-16.6-14l-11.9-10l-5.6-4.8l-0.2-0.2c-1.9-2-4.2-3.6-6.9-4.4
		c-5.2-2.5-11.2-2.5-16.4,0c-2.6,0.8-5,2.4-6.9,4.4c-3.7,4.1-6.5,9.4-6.2,15C2346.6,1006,2348.3,1012.1,2352.6,1015.6L2352.6,1015.6
		z"/>
	<path class="st9" d="M2497.4,985.5l-3.9,3.3l-10.6,8.9l-15.6,13.1l-19,16l-20.8,17.6l-21,17.7l-19.6,16.6l-16.6,14l-11.9,10
		c-1.9,1.6-3.8,3.2-5.6,4.8l-0.2,0.2c-8,8.4-8,21.7,0,30.1c4.1,3.7,9.4,6.5,15.1,6.2l5.7-0.8c3.6-1,6.8-2.9,9.4-5.5l3.9-3.3
		l10.5-8.9l15.6-13.2l19-16l20.8-17.6l21-17.7l19.6-16.5l16.6-14l11.9-10c1.9-1.6,3.8-3.2,5.6-4.8c0.1-0.1,0.2-0.1,0.2-0.2
		c8-8.4,8-21.7,0-30.1c-4.1-3.7-9.4-6.5-15.1-6.2l-5.7,0.8C2503.3,981.1,2500.1,982.9,2497.4,985.5L2497.4,985.5z"/>
	<path class="st9" d="M1944.7,1249.4l3.9,3.3l10.5,8.9l15.6,13.1l19,16l20.8,17.6l21,17.7l19.6,16.5l16.6,14l11.9,10l5.6,4.8
		l0.2,0.2c8.4,8,21.7,8,30.1,0c3.7-4.1,6.5-9.4,6.2-15.1c-0.2-5.4-2-11.4-6.2-15l-3.9-3.3l-10.5-8.9l-15.6-13.1l-19-16l-20.8-17.6
		l-21-17.7l-19.6-16.5l-16.6-14l-11.9-10l-5.6-4.8c-0.1-0.1-0.2-0.1-0.2-0.2c-8.4-8-21.7-8-30.1,0c-3.7,4.1-6.5,9.4-6.2,15
		C1938.7,1239.7,1940.5,1245.8,1944.7,1249.4L1944.7,1249.4z"/>
	<path class="st9" d="M2089.6,1219.3l-3.9,3.3l-10.5,8.9l-15.6,13.1l-19,16l-20.8,17.6l-21,17.7l-19.6,16.5l-16.6,14l-11.9,10
		c-1.9,1.6-3.8,3.2-5.6,4.8l-0.2,0.2c-8,8.4-8,21.7,0,30.1c4,3.7,9.4,6.5,15,6.2l5.7-0.8c3.6-1,6.8-2.9,9.4-5.5l3.9-3.3l10.5-8.9
		l15.6-13.1l19-16l20.8-17.6l21-17.7l19.6-16.5l16.6-14l11.9-10.1c1.9-1.6,3.8-3.2,5.6-4.8l0.2-0.2c8-8.4,8-21.7,0-30.1
		c-4-3.7-9.4-6.5-15-6.2l-5.7,0.8C2095.4,1214.7,2092.2,1216.6,2089.6,1219.3L2089.6,1219.3z"/>
	<path class="st9" d="M1521.3,1014l3.9,3.3l10.5,8.9l15.6,13.1l19,16l20.8,17.6l21,17.7l19.6,16.5l16.6,14l11.9,10.1l5.6,4.8
		l0.2,0.2c8.4,8,21.7,8,30.1,0c3.7-4.1,6.5-9.4,6.2-15.1c-0.2-5.4-2-11.4-6.2-15l-3.9-3.3l-10.5-8.9l-15.6-13.1l-19-16l-20.8-17.6
		l-21-17.7l-19.6-16.5l-16.6-14l-11.9-10l-5.6-4.8l-0.2-0.2c-8.4-8-21.7-8-30.1,0c-3.7,4.1-6.5,9.4-6.2,15
		C1515.3,1004.3,1517,1010.4,1521.3,1014L1521.3,1014z"/>
	<path class="st9" d="M1666.1,983.8l-3.9,3.3l-10.5,8.9l-15.6,13.1l-19,16l-20.8,17.6l-21,17.7l-19.7,16.6l-16.6,14l-11.9,10
		c-1.9,1.6-3.8,3.2-5.6,4.8l-0.2,0.2c-8,8.4-8,21.7,0,30.1c4,3.7,9.4,6.5,15,6.2l5.7-0.8c3.6-1,6.8-2.9,9.4-5.5l3.9-3.3l10.5-8.9
		l15.6-13.1l19-16l20.8-17.6l21-17.7l19.6-16.5l16.6-14l11.9-10c1.9-1.6,3.8-3.2,5.6-4.8l0.2-0.2c8-8.4,8-21.7,0-30.1
		c-4-3.7-9.4-6.5-15-6.2l-5.7,0.8C1671.9,979.3,1668.7,981.2,1666.1,983.8L1666.1,983.8z"/>
	<path class="st11" d="M1817.5,2060.4c0,0-37.5-133.3-19.2-241.3s30.8-177.1,29.5-199.9c0,0,49.4,91.4,78.1,143.2
		c63.3,114.2,86.6,206.3,48.7,311.1c0,0,6.4,53.9,6.2,56.4s-48.7,61.8-48.7,61.8l-89.1-40.7L1817.5,2060.4z"/>
	<path class="st12" d="M1892,2211.4c0,0-51.2-286.3-51-457.6c0,0,36.6,303,93.8,437.9L1892,2211.4z"/>
	<path class="st10" d="M1854.7,2205l-0.3,67.9l-0.3,75.4l25.6,4.2c0,0,10.3-10.4,25.7-24.2c23.7-21.2,59.6-50.4,88.7-61.8
		c47.8-18.7,122.8-91.3,179.8-221.6c2-4.6,4.1-9,6.2-13.1c58.7-114.9,164.8-85.4,164.8-85.4c-86.3-28.1-159.7-27-221.4-9.2l0,0
		C1933,1992,1854.7,2205,1854.7,2205z"/>
	<path class="st11" d="M1854.4,2272.9l-0.3,75.4l25.6,4.2c0,0,10.3-10.4,25.7-24.2c172.8-336.9,281.8-378.8,285.2-380.1
		C2025.4,1986.7,1897.6,2194.1,1854.4,2272.9z"/>
	<path class="st10" d="M1940.7,2243.5l-17.1,62.3l-19,69.2l-24.5-2.7c0,0-6.8-12.1-17.3-28.7c-16.3-25.5-41.7-61.4-65.4-79.2
		c-39-29.4-89.1-115-108.1-248.9c-0.7-4.7-1.5-9.2-2.4-13.6c-24.4-120.2-129.1-120.4-129.1-120.4c86.2-3.7,153.2,16.1,205.1,48.1
		l0,0C1923.3,2028.4,1940.7,2243.5,1940.7,2243.5z"/>
	<path class="st11" d="M1923.6,2305.8l-19,69.2l-24.5-2.7c0,0-6.8-12.1-17.3-28.7c-72.2-352.7-161.3-419-164.1-421
		C1840.1,2000,1904.1,2222.6,1923.6,2305.8z"/>
	<path class="st13" d="M2217.8,2120c0,0-237.8,33.4-321.7,206.7C1896.1,2326.7,1968.9,2179.1,2217.8,2120z"/>
	<path class="st13" d="M2191.6,2087.8c-3.7,21.8-13.5,27.3-18,28.7c-1.3,0.4-2.6-0.3-3-1.6c0-0.1-0.1-0.2-0.1-0.3
		c-0.8-4.7-0.4-15.9,17.3-29.2c1.1-0.8,2.6-0.5,3.4,0.6C2191.5,2086.5,2191.6,2087.1,2191.6,2087.8z"/>
	<path class="st13" d="M2164.1,2094.6c-2,22-11.3,28.3-15.7,30c-1.2,0.5-2.6-0.1-3.1-1.3c0-0.1-0.1-0.2-0.1-0.3
		c-1.2-4.6-1.6-15.9,14.9-30.4c1-0.9,2.5-0.8,3.4,0.2C2164,2093.3,2164.2,2094,2164.1,2094.6z"/>
	<path class="st13" d="M2132.9,2106.1c1.5,19.6-5.8,26.6-9.4,28.8c-1,0.6-2.3,0.3-2.9-0.7c-0.1-0.1-0.1-0.2-0.1-0.3
		c-1.8-3.9-3.8-13.7,8.6-29c0.8-0.9,2.1-1.1,3-0.3C2132.6,2104.9,2132.9,2105.5,2132.9,2106.1z"/>
	<path class="st13" d="M2104.3,2115.2c5.4,18.9-0.4,27.2-3.5,30.1c-0.9,0.8-2.2,0.7-3-0.1c-0.1-0.1-0.1-0.1-0.2-0.2
		c-2.5-3.5-6.4-12.7,2.7-30.2c0.6-1.1,1.9-1.5,2.9-0.9C2103.7,2114.2,2104.1,2114.7,2104.3,2115.2z"/>
	<path class="st13" d="M2076.7,2126.7c7.8,16.8,3.6,25.3,1.1,28.5c-0.7,0.9-1.9,1-2.8,0.3c-0.1-0.1-0.1-0.1-0.2-0.2
		c-2.8-2.9-7.8-10.9-1.8-28.4c0.3-1.1,1.5-1.6,2.5-1.3C2076,2125.8,2076.4,2126.2,2076.7,2126.7z"/>
	<path class="st13" d="M2043,2134.7c15.3,10.5,16,19.9,15.5,23.9c-0.1,1.1-1.1,1.9-2.2,1.7c-0.1,0-0.2,0-0.3-0.1
		c-3.9-1-12.3-5.4-16.1-23.5c-0.3-1.1,0.4-2.2,1.4-2.4C2041.9,2134.2,2042.5,2134.3,2043,2134.7z"/>
	<path class="st13" d="M2219.2,2149.9c-16.2-15-27.4-13.4-31.8-11.8c-1.2,0.5-1.9,1.9-1.4,3.1c0,0.1,0.1,0.2,0.1,0.3
		c2.2,4.2,9.4,12.9,31.5,12.6c1.3,0,2.4-1.1,2.4-2.4C2220,2150.9,2219.7,2150.3,2219.2,2149.9z"/>
	<path class="st13" d="M2193.2,2161.2c-15-16.2-26.2-15.5-30.8-14.2c-1.3,0.4-2,1.7-1.7,3c0,0.1,0.1,0.2,0.1,0.3
		c1.9,4.4,8.4,13.6,30.4,15c1.3,0.1,2.5-1,2.5-2.3C2193.9,2162.3,2193.7,2161.6,2193.2,2161.2z"/>
	<path class="st13" d="M2161.5,2171.1c-10.8-16.5-20.8-17.6-25-17.1c-1.2,0.1-2,1.2-1.9,2.4c0,0.1,0,0.2,0,0.3
		c1,4.1,5.4,13.2,24.6,17.7c1.2,0.3,2.3-0.5,2.6-1.6C2161.9,2172.2,2161.8,2171.6,2161.5,2171.1z"/>
	<path class="st13" d="M2133.2,2181.3c-7.3-18.3-16.9-21.3-21.2-21.7c-1.2-0.1-2.2,0.8-2.3,1.9c0,0.1,0,0.2,0,0.3
		c0.2,4.3,2.7,14,20.6,22.3c1.1,0.5,2.4,0,2.9-1.1C2133.4,2182.5,2133.4,2181.9,2133.2,2181.3z"/>
	<path class="st13" d="M2105.3,2197.6c-1.4-19.7-9.7-25.4-13.6-27.1c-1.1-0.5-2.4,0.1-2.8,1.2c0,0.1-0.1,0.2-0.1,0.3
		c-1.1,4.1-1.7,14.2,12.9,27.4c0.9,0.8,2.2,0.7,3.1-0.1C2105.1,2198.8,2105.3,2198.2,2105.3,2197.6z"/>
	<path class="st13" d="M2077.8,2208.7c0.4-19.7-7.2-26.2-11-28.3c-1.1-0.5-2.4-0.1-2.9,0.9c0,0.1-0.1,0.1-0.1,0.2
		c-1.5,4-3,13.9,10.2,28.5c0.8,0.9,2.2,1,3.1,0.1C2077.5,2209.8,2077.8,2209.3,2077.8,2208.7z"/>
	<path class="st13" d="M1579.6,1945c0,0,269.5,145.9,292.5,390.4C1872.2,2335.4,1850.9,2126.6,1579.6,1945z"/>
	<path class="st13" d="M1625.4,1918.1c-5.3,27.6,3.9,38.6,8.8,42.4c1.4,1,3.3,0.8,4.3-0.6c0.1-0.1,0.1-0.2,0.2-0.3
		c3.1-5.3,7.6-18.9-7.7-42.6c-0.9-1.4-2.8-1.8-4.3-0.9C1626,1916.6,1625.5,1917.3,1625.4,1918.1z"/>
	<path class="st13" d="M1655.1,1938.6c-7.4,27.1,0.9,38.8,5.4,42.9c1.2,1.1,3.2,1,4.3-0.2c0.1-0.1,0.2-0.2,0.2-0.3
		c3.5-5,9-18.3-4.3-43c-0.8-1.5-2.7-2.1-4.2-1.3C1655.9,1937.1,1655.4,1937.8,1655.1,1938.6z"/>
	<path class="st13" d="M1687.3,1966.2c-10.6,22.8-5,34.3-1.6,38.6c0.9,1.2,2.7,1.4,3.9,0.4c0.1-0.1,0.2-0.1,0.2-0.2
		c3.8-3.9,10.7-14.7,2.6-38.6c-0.5-1.4-2.1-2.2-3.5-1.7C1688.2,1965,1687.6,1965.5,1687.3,1966.2z"/>
	<path class="st13" d="M1717.5,1989.9c-14.9,20.3-11.7,32.7-9.2,37.5c0.7,1.3,2.4,1.9,3.7,1.2c0.1-0.1,0.2-0.1,0.3-0.2
		c4.5-3,13.4-12.3,10.2-37.3c-0.2-1.5-1.6-2.6-3.1-2.4C1718.6,1988.9,1717.9,1989.3,1717.5,1989.9z"/>
	<path class="st13" d="M1745.4,2015.9c-16.8,16.7-15.6,28.7-14,33.6c0.4,1.4,1.9,2.1,3.2,1.7c0.1,0,0.3-0.1,0.4-0.2
		c4.6-2.2,14.2-9.5,14.8-33.2c0.1-1.4-1-2.6-2.5-2.7C1746.6,2015.1,1745.9,2015.3,1745.4,2015.9z"/>
	<path class="st13" d="M1782.1,2040.4c-22.9,5.8-28,16.7-29.2,21.7c-0.3,1.4,0.6,2.8,2,3.1c0.1,0,0.2,0,0.3,0
		c5.1,0.5,17.1-0.9,29.7-20.9c0.8-1.2,0.4-2.8-0.8-3.6C1783.5,2040.4,1782.8,2040.2,1782.1,2040.4z"/>
	<path class="st13" d="M1564.7,1980.1c26-10.7,38.7-3.9,43.3,0.1c1.3,1.1,1.4,3.1,0.3,4.3c-0.1,0.1-0.2,0.2-0.3,0.3
		c-4.5,4.1-17,11.2-43.3,1c-1.6-0.6-2.4-2.4-1.7-4C1563.3,1981,1563.9,1980.4,1564.7,1980.1z"/>
	<path class="st13" d="M1590.7,2005.2c25.1-12.7,38.3-6.9,43.2-3.3c1.4,1,1.7,2.9,0.6,4.3c-0.1,0.1-0.2,0.2-0.2,0.3
		c-4.2,4.4-16.1,12.5-43.1,4.4c-1.6-0.5-2.6-2.2-2.1-3.8C1589.3,2006.2,1589.9,2005.5,1590.7,2005.2z"/>
	<path class="st13" d="M1624.2,2031.2c20.2-15,32.7-11.7,37.6-9.3c1.3,0.7,1.9,2.4,1.2,3.7c-0.1,0.1-0.1,0.2-0.2,0.3
		c-3,4.5-12.3,13.4-37.3,10.3c-1.5-0.2-2.6-1.6-2.4-3.1C1623.1,2032.3,1623.5,2031.6,1624.2,2031.2z"/>
	<path class="st13" d="M1653.5,2056c16.9-18.7,29.7-18,35-16.5c1.5,0.4,2.3,1.9,1.9,3.4c0,0.1-0.1,0.2-0.1,0.3
		c-2.1,5-9.4,15.6-34.5,17.4c-1.5,0.1-2.8-1-3-2.5C1652.7,2057.3,1653,2056.6,1653.5,2056z"/>
	<path class="st13" d="M1679.6,2087.9c10.5-22.9,22.9-26.1,28.3-26.3c1.5-0.1,2.8,1.1,2.9,2.6c0,0.1,0,0.3,0,0.4
		c-0.5,5.4-4.3,17.7-27.6,27.1c-1.4,0.6-3-0.1-3.6-1.5C1679.3,2089.4,1679.3,2088.6,1679.6,2087.9z"/>
	<path class="st13" d="M1707.5,2113.4c8.2-23.8,20.3-28.2,25.7-28.9c1.5-0.2,2.9,0.9,3.1,2.4c0,0.1,0,0.2,0,0.3
		c0.1,5.4-2.6,18-24.9,29.6c-1.4,0.7-3,0.2-3.7-1.2C1707.3,2114.9,1707.3,2114.1,1707.5,2113.4z"/>
	<path class="st14" d="M2230.9,2447.5c-40.4-44.5-175.8-177-315.3-123.3c-5.2,2-10.4,4.3-15.6,6.8c-1.8,0.9-3.8,1.5-5.8,1.7
		c-3.1,0.3-7.1-0.3-9.2-4.1c-1.6-3.1-1.4-6.8,0.6-9.7c11.2-17,24.2-32.8,38.6-47.2c39.1-39.1,104-81.7,183.5-49.2
		c106.6,43.5,129.3,171.9,134.1,220.4c0.4,3.4-2.1,6.5-5.6,6.8C2234.2,2449.7,2232.2,2448.9,2230.9,2447.5z"/>
	<path class="st15" d="M2184.6,2336.4c-7.9-11.1-120.8-152.9-269-12.3c-5.2,2-10.4,4.3-15.6,6.8c-1.8,0.9-3.8,1.5-5.8,1.7
		c-3.1,0.3-7.1-0.3-9.2-4.1c-1.6-3.1-1.4-6.8,0.6-9.7C1885.5,2318.8,2045.1,2142.1,2184.6,2336.4z"/>
	<path class="st16" d="M2185,2337c-0.1-0.2-0.3-0.4-0.4-0.6C2184.7,2336.6,2184.9,2336.8,2185,2337z"/>
	<path class="st14" d="M1493.4,2265.1c63.7-13.1,266.4-42.5,354,93.3c3.3,5.1,6.4,10.4,9.3,15.9c1,2,2.4,3.7,4,5.2
		c2.5,2.2,6.4,4.3,10.7,2.3c3.4-1.7,5.6-5.1,5.7-8.9c1-22-0.2-44.1-3.6-65.9c-9.2-59.1-38.7-137.7-128.9-160.1
		c-120.8-30-222.5,67.7-257.7,107c-2.5,2.8-2.2,7,0.5,9.5C1489.1,2265,1491.3,2265.5,1493.4,2265.1z"/>
	<path class="st15" d="M1604.6,2197.6c14.1-4.2,203-56.6,242.8,160.8c3.3,5.1,6.4,10.4,9.3,15.9c1,2,2.4,3.7,4,5.2
		c2.5,2.2,6.4,4.3,10.7,2.3c3.4-1.7,5.6-5.1,5.7-8.9c1-22-0.2-44.1-3.6-65.9C1847.6,2234.7,1779.8,2139.2,1604.6,2197.6z"/>
	<path class="st13" d="M2098.8,1738.4c0,0-306.5,368.6-197.8,737.1C1901,2475.5,1810.5,2159.9,2098.8,1738.4z"/>
	<path class="st13" d="M2016.8,1726.1c23.8,37.1,16.7,58.4,11.9,66.6c-1.4,2.3-4.3,3-6.6,1.7c-0.2-0.1-0.3-0.2-0.5-0.3
		c-7.5-5.8-22-23.1-13.6-66.3c0.5-2.6,3-4.3,5.6-3.8C2014.9,1724.2,2016.1,1724.9,2016.8,1726.1z"/>
	<path class="st13" d="M1985.4,1773.1c26.6,35.1,21.3,56.9,17.1,65.5c-1.2,2.4-4.1,3.4-6.4,2.2c-0.2-0.1-0.3-0.2-0.5-0.3
		c-8-5.2-23.7-21.3-18.8-65c0.3-2.6,2.7-4.6,5.3-4.3C1983.4,1771.3,1984.6,1772,1985.4,1773.1z"/>
	<path class="st13" d="M1954.8,1831.8c28.6,27,27.2,47,24.8,55.2c-0.7,2.3-3.1,3.6-5.3,2.9c-0.2,0-0.3-0.1-0.5-0.2
		c-7.8-3.4-24-15.2-26.2-54.5c-0.1-2.4,1.7-4.4,4.1-4.5C1952.7,1830.6,1953.9,1831,1954.8,1831.8z"/>
	<path class="st13" d="M1924.8,1883.8c33.4,20.8,35.9,40.7,35.2,49.2c-0.2,2.4-2.3,4.1-4.6,3.9c-0.2,0-0.4,0-0.5-0.1
		c-8.3-1.8-26.6-10.2-36.4-48.2c-0.6-2.3,0.8-4.7,3.1-5.3C1922.5,1883,1923.7,1883.2,1924.8,1883.8z"/>
	<path class="st13" d="M1899.3,1937.8c34.1,14.5,39.3,32.6,39.8,40.6c0.1,2.2-1.6,4.2-3.8,4.3c-0.2,0-0.3,0-0.5,0
		c-8-0.5-26.2-5.6-40.8-39.6c-0.9-2.1,0.1-4.4,2.1-5.3C1897.2,1937.4,1898.3,1937.4,1899.3,1937.8z"/>
	<path class="st13" d="M1860.3,1994.8c36.7-5,50.4,7.9,55,14.5c1.3,1.8,0.8,4.3-1,5.6c-0.2,0.1-0.3,0.2-0.5,0.3
		c-7.1,3.7-25.4,8.6-55.3-13.1c-1.8-1.3-2.2-3.8-0.9-5.7C1858.2,1995.5,1859.2,1994.9,1860.3,1994.8z"/>
	<path class="st13" d="M2141,1780.7c-44.1-0.4-58.4,16.9-62.8,25.4c-1.2,2.4-0.3,5.3,2.1,6.5c0.2,0.1,0.3,0.2,0.5,0.2
		c9,3.3,31.2,6.4,63.5-23.7c1.9-1.8,2.1-4.9,0.2-6.8C2143.6,1781.2,2142.3,1780.7,2141,1780.7z"/>
	<path class="st13" d="M2117.8,1832.2c-43.9-3.9-59.6,12.2-64.6,20.4c-1.4,2.3-0.7,5.2,1.6,6.6c0.2,0.1,0.3,0.2,0.5,0.3
		c8.7,4,30.6,8.8,65.1-18.7c2.1-1.7,2.4-4.7,0.8-6.8C2120.3,1833,2119.1,1832.4,2117.8,1832.2z"/>
	<path class="st13" d="M2084.3,1889.6c-38.1-9.9-54.3,2-59.9,8.4c-1.6,1.8-1.4,4.5,0.4,6.1c0.1,0.1,0.3,0.2,0.4,0.3
		c7,4.8,25.7,12.3,60.1-6.8c2.1-1.2,2.8-3.8,1.7-5.9C2086.4,1890.6,2085.4,1889.8,2084.3,1889.6z"/>
	<path class="st13" d="M2056.1,1942.7c-35.4-17.3-53.6-8.8-60.4-3.7c-1.9,1.4-2.3,4.1-0.8,6c0.1,0.1,0.2,0.3,0.3,0.4
		c6,6.1,22.8,17.1,60.3,5.2c2.3-0.7,3.5-3.2,2.8-5.4C2058,1944.1,2057.2,1943.2,2056.1,1942.7z"/>
	<path class="st13" d="M2036.7,2004.1c-28.5-27.2-48.4-24.6-56.5-21.8c-2.2,0.8-3.4,3.2-2.6,5.5c0.1,0.2,0.1,0.4,0.2,0.5
		c3.8,7.6,16.5,23.2,55.9,23.2c2.4,0,4.3-1.9,4.3-4.3C2038.1,2006.1,2037.6,2005,2036.7,2004.1z"/>
	<path class="st13" d="M2011,2057.4c-25.8-29.7-45.9-29.1-54.2-27c-2.3,0.6-3.7,2.9-3.1,5.2c0,0.2,0.1,0.3,0.2,0.5
		c3.1,8,14.2,24.7,53.4,28.4c2.4,0.2,4.5-1.5,4.7-3.9C2012.1,2059.4,2011.8,2058.2,2011,2057.4z"/>
	<ellipse class="st17" cx="2254.3" cy="2635.5" rx="1428.5" ry="153.4"/>
	<path class="st18" d="M3178.1,2575.1c0,31.9-148.5,19.1-342.6,38.7c-166,16.8-358.4,68.3-597.9,68.3
		c-203.7,0-389.3-55.8-543.2-68.3c-238.7-19.4-397.3-2.8-397.3-38.7c0-59.1,421.1-107,940.5-107S3178.1,2516.1,3178.1,2575.1z"/>
	<ellipse class="st19" cx="1435.4" cy="2596.9" rx="427" ry="44.2"/>
	<path class="st20" d="M3032.5,2516c-0.9,5-7.8,9.6-53.5,20.1c-71.6,16.5-141.9,4.5-193.8,15.2c-37.1,7.7-51-2-87.9,6.2
		c-62,13.8-126.9,16.9-190,26.9c-95.9,15.2-188.6,46.6-286.4,47.4c-27.9,0.2-55.5-2.1-83-5.6l0,0c-5.8-0.7-11.5-1.5-17.2-2.4
		c-20.6-3-41-6.5-61.4-10c-86.9-14.9-151.8-24.8-206-35.4c-154.3-30.4-214.3-6.3-318.6-21.9c-52.2-7.8-90.9-10.4-107.7-17.1
		c-5.3-2.1-8.4-4.6-9.1-7.8c-0.6-2.9,1-7.6,49.5-33.2c40.7-21.4,113.2-47.2,113.2-47.2c36-12.8,71.3-27.6,105.7-44.4
		c52.8-25.8,89.6-49.8,134-78.7c25.1-16.4,46.8-31.8,90.2-62.6c33.7-24,49.8-36.1,68.4-52c16.4-14.1,18.9-17.9,37.4-34
		c26.2-22.8,48.9-40.4,68.2-55.3c85.5-66.2,108.1-69.4,123.7-68.6c2.4,0.1,4.7,0.4,7.1,0.7c18,2.9,34.9,13.5,65.1,32.6
		c36.5,23,34.5,30.5,72.2,56.4c36.2,24.8,42.5,21,81.1,47.6c29.9,20.6,31.1,26.4,59.3,46.4c28.9,20.6,50.8,31.1,85,48.4
		c61.4,31.2,27.4,16.2,146.9,78.7c88.1,46.2,132.1,69.4,149.5,76.7C2949.7,2474.7,3035.4,2499.9,3032.5,2516z"/>
	<path class="st21" d="M3032.5,2516c-0.9,5-7.8,9.6-53.5,20.1c-71.6,16.5-141.9,4.5-193.8,15.2c-37.1,7.7-51-2-87.9,6.2
		c-62,13.8-126.9,16.9-190,26.9c-15.7,2.5-31.3,5.4-46.9,8.6c-79.5,16.1-157.7,38.2-239.5,38.8c-27.9,0.2-55.5-2.1-83-5.6
		c25.9-1.1,52-0.8,77.4-4.6c39.3-5.9,75-21.3,109.7-36.8c29.4-13.1,58.6-26.4,87.8-39.8c20.4-9.3,42.6-20.5,47.8-38.5
		c7.1-24.5-20.6-45.9-33.5-68.9c-13.8-24.6-32.3-31.2-41.2-57.1c-14.9-43.4-61.7-76.2-79.4-118.9c-8.2-19.7-10.1-41.2-23.3-59.1
		c-11.8-16-31.7-27.8-42.2-44.3c-18.4-28.9-5.9-62.8-20.4-92.4c-1.7-3.3-3.5-6.4-5.6-9.5c18,2.9,34.9,13.5,65.1,32.6
		c36.5,23,34.5,30.5,72.2,56.4c36.2,24.8,42.5,21,81.1,47.6c29.9,20.6,31.1,26.4,59.3,46.4c28.9,20.6,50.8,31.1,85,48.4
		c61.4,31.2,27.4,16.2,146.9,78.7c88.1,46.2,132.1,69.4,149.5,76.7c33.6,14.1,90.8,35.2,113.8,44.2
		C3016.7,2498.5,3034.1,2507.1,3032.5,2516z"/>
	<path class="st21" d="M2120.7,2623.7c-20.6-3-41-6.5-61.4-10c-86.9-14.9-151.8-24.8-206-35.4c-154.3-30.4-214.3-6.3-318.5-21.9
		c-52.2-7.8-90.9-10.4-107.7-17.1c2.7-0.6,5.4-1.2,7.9-1.7c40.1-8.3,131.1-4,172.3-7.6c30.1-2.7,55.8-17.5,79.9-31.8
		c38.4-22.7,76.7-45.4,115.1-68.2c7.1,32.5-27.8,60-51,87.6c-9.6,11.5,5.5,7.6,20,15.3c5.5,3,12.6,3.4,19.1,4.6
		c29.9,5.7,51.6,30.4,82.4,30.9c34.7,0.6,67.9-30.3,98.4-17.4c19.4,8.2,22.8,29.6,39.7,40.7c22.6,15,58.6,6,85.2,16.3
		C2105.4,2611.8,2113.1,2617.7,2120.7,2623.7z"/>
	<path class="st22" d="M2438.2,2375.6c11.8,7.2,25.3,12.5,37.1,19.7c30.2,18.4,48.6,48.9,84.2,59.9c46.3,14.2,49.6,3,77.8,11.7
		c13.7,4.3,25.4,11.7,38.8,16.5s30.5,6.2,41.9-1.1c2.5-1.6,4.6-3.6,5.3-6c0.8-3.3-1.2-6.6-3.6-9.3c-13.1-14.8-37.2-20.4-56.4-30.2
		c-23.3-11.9-39.9-30.5-63-42.6c-16.5-8.7-35.7-13.7-53.2-21c-19.4-8.2-36.6-19.1-53.7-30.1c-33.3-21.3-66.7-42.6-98.4-65.4
		c-11.3-8.1-22.3-16.4-34-24.1c-12,19.2,4.8,41.3,20.9,58.5c10.6,11.4,23.9,22.7,32.3,35.1C2420.8,2357,2423.5,2369.8,2438.2,2375.6
		z"/>
	<path class="st22" d="M2114.3,2154c-12.6,19-25.3,38.2-43.6,54.1c-16.9,14.6-37.9,25.9-58.1,37.8c-48.3,28.3-93.5,61.7-134.7,99.6
		c-7.9,7.3-16.1,15.8-15.4,25.4c14.9-0.1,29.7-4.1,41.4-11.3c7.2-4.4,14.3-10.3,23.4-10.3c17.4,0,24.5,20.2,41.6,23
		c13.2,2.1,24.3-7,33.7-14.5c15.7-12.6,33.2-22.8,51.9-30.2c7.9-3.2,16.7-6,25.4-4.9c6.1,0.9,11.5,3.6,16.8,6.2
		c24.3,12.3,54.9,24.2,80.9,14.3c24.8-9.4,32.6-33.7,37.6-54.9c3.2-13.8,6.1-29.1-3.3-41c-3.5-4.4-8.6-8-12.3-12.4
		c-10.2-11.9-9.1-27.5-7.4-41.8c2.8-22.9,6.3-46.5-1.3-68.8c-2.9-8.4-8.1-17.2-18.1-21C2142.4,2091.6,2122.8,2141.1,2114.3,2154z"/>
	<path class="st23" d="M1643.2,2450.6c-15.7,7-31.5,14.1-48.3,19.4c-11.1,3.5-72,22-81.9,27.4c-11.9,6.4-20.6,16.5-23.7,27.6
		c26.2-3.8,100.9-26.8,124-37.2c15.8-7.1,30.8-15.8,48.1-20.5c10.3-2.8,21.2-4.1,31.2-7.5c14.9-5.1,26.7-14.5,39.7-22.2
		c17.2-10.1,37.5-17.8,49.6-31.7c1-1.2-32,0.1-34.9,0.7c-9,2.1-17.3,5.7-25.6,9.1C1695,2426.7,1669.3,2439,1643.2,2450.6z"/>
	<path class="st22" d="M3032.5,2516c-0.9,5-7.8,9.6-53.5,20.1c-71.6,16.5-141.9,4.5-193.8,15.2c-37.1,7.7-51-2-87.9,6.2
		c-62,13.8-126.9,16.9-190,26.9c-15.7,2.5-31.3,5.4-46.9,8.6c22-6.8,45.3-11.7,64.4-22.4c6.3-3.6,12.2-7.8,19.3-10.3
		c14-4.9,30.3-2.5,45.4-4.9c11.1-1.7,21.1-6,31.1-10.2c5.6-2.4,11.7-5.2,13.4-10c2.4-6.6-4.8-12.7-10.6-17.9
		c-14.6-12.9-24.4-30.8-19-47.5c43.1,15.2,64.6,52,107.8,67.2c10.5,3.7,21.7,7.5,33.1,6.2c18.2-2.1,30.8-19.2,23.9-32.6
		c-1.8-3.4-4.2-8.1-0.3-10.2c1.4-0.6,3-0.9,4.6-0.8c27.4-0.2,48.2,20.2,75.1,24.3c14.8,2.3,30-0.6,44.6-3.5
		c29.1-5.7,85-1.1,114.1-6.8c3.9-9.9-7.4-19.2-17.9-25.5l-1.2-0.7C3016.7,2498.5,3034.1,2507.1,3032.5,2516z"/>
	<ellipse class="st19" cx="3059.1" cy="2596.9" rx="494.7" ry="44.2"/>
	
		<ellipse transform="matrix(0.7071 -0.7071 0.7071 0.7071 -1179.1514 1487.1511)" class="st9" cx="1205.6" cy="2166.9" rx="413.9" ry="413.9"/>
	<circle class="st24" cx="1205.6" cy="2166.9" r="370.4"/>
	<circle class="st9" cx="1205.6" cy="2166.9" r="344.3"/>
	
		<ellipse transform="matrix(0.7071 -0.7071 0.7071 0.7071 -1179.1512 1487.1511)" class="st8" cx="1205.6" cy="2166.9" rx="330.7" ry="330.7"/>
	<path class="st25" d="M1360,2359.8c-1.5,0.3-3-0.2-4-1.3L1161,2138c-1.5-1.7-1.4-4.4,0.4-5.9c1.7-1.5,4.4-1.3,5.9,0.4l194.9,220.5
		c1.5,1.7,1.4,4.3-0.3,5.9C1361.3,2359.3,1360.7,2359.7,1360,2359.8L1360,2359.8z"/>
	<path class="st26" d="M1210.5,2167c0-2.7-2.2-4.9-4.9-4.9c-2.7,0-4.9,2.2-4.9,4.9c0,2.7,2.2,4.9,4.9,4.9c0,0,0,0,0,0
		C1208.3,2171.9,1210.5,2169.7,1210.5,2167C1210.5,2167,1210.5,2167,1210.5,2167z"/>
	<circle class="st27" cx="1206.5" cy="1867.8" r="17.4"/>
	<path class="st27" d="M1216.9,1867.8c0-5.7-4.6-10.4-10.3-10.4c-5.7,0-10.4,4.6-10.4,10.3c0,5.7,4.6,10.4,10.3,10.4c0,0,0,0,0,0
		C1212.2,1878.1,1216.8,1873.5,1216.9,1867.8z"/>
	<path class="st27" d="M1065.8,1902.2c-2.8-4.9-9.2-6.7-14.1-3.8c-4.9,2.8-6.7,9.2-3.8,14.1c2.8,4.9,9.1,6.7,14.1,3.8
		C1066.9,1913.5,1068.6,1907.2,1065.8,1902.2z"/>
	<path class="st27" d="M952.2,2007.6c-4.9-2.9-11.3-1.2-14.1,3.7c-2.9,4.9-1.2,11.3,3.7,14.1c4.9,2.9,11.3,1.2,14.1-3.7c0,0,0,0,0,0
		C958.8,2016.8,957.1,2010.5,952.2,2007.6z"/>
	<path class="st27" d="M906.5,2155.6c-5.7,0-10.4,4.6-10.4,10.3c0,5.7,4.6,10.4,10.3,10.4c5.7,0,10.4-4.6,10.4-10.3c0,0,0,0,0,0
		C916.8,2160.3,912.2,2155.7,906.5,2155.6C906.5,2155.6,906.5,2155.6,906.5,2155.6z"/>
	
		<ellipse transform="matrix(0.6541 -0.7564 0.7564 0.6541 -1424.2661 1516.632)" class="st27" cx="946.1" cy="2315.5" rx="10.3" ry="10.3"/>
	
		<ellipse transform="matrix(0.9739 -0.227 0.227 0.9739 -523.0136 302.8519)" class="st27" cx="1055.3" cy="2425.5" rx="10.3" ry="10.3"/>
	
		<ellipse transform="matrix(8.202977e-03 -1 1 8.202977e-03 -1271.2495 3650.4387)" class="st27" cx="1204.6" cy="2466.1" rx="10.3" ry="10.3"/>
	
		<ellipse transform="matrix(0.5889 -0.8082 0.8082 0.5889 -1404.3191 2092.0564)" class="st27" cx="1354.3" cy="2426.5" rx="10.3" ry="10.3"/>
	<path class="st27" d="M1459,2326.3c4.9,2.9,11.3,1.2,14.1-3.7c2.9-4.9,1.2-11.3-3.7-14.1c-4.9-2.9-11.2-1.2-14.1,3.7
		C1452.4,2317.1,1454.1,2323.4,1459,2326.3C1459,2326.3,1459,2326.3,1459,2326.3z"/>
	<path class="st27" d="M1504.7,2178.2c5.7,0,10.4-4.6,10.4-10.3c0-5.7-4.6-10.4-10.3-10.4c-5.7,0-10.4,4.6-10.4,10.3c0,0,0,0,0,0
		C1494.4,2173.5,1499,2178.2,1504.7,2178.2C1504.7,2178.2,1504.7,2178.2,1504.7,2178.2z"/>
	<circle class="st27" cx="1465.1" cy="2018" r="10.3"/>
	<path class="st27" d="M1364.9,1913.5c2.9-4.9,1.2-11.3-3.7-14.1s-11.3-1.2-14.1,3.7c-2.9,4.9-1.2,11.2,3.7,14.1
		C1355.7,1920.1,1362,1918.5,1364.9,1913.5C1364.9,1913.5,1364.9,1913.5,1364.9,1913.5z"/>
	<path class="st28" d="M1179.1,1868.9c-0.2-2.1-2.1-3.6-4.2-3.4c-2.1,0.2-3.6,2.1-3.4,4.2c0.2,2.1,2.1,3.6,4.2,3.4c0,0,0,0,0,0
		C1177.7,1872.9,1179.3,1871,1179.1,1868.9z"/>
	<path class="st28" d="M1148,1873.3c-0.4-2.1-2.4-3.4-4.5-3c-2.1,0.4-3.4,2.4-3,4.5c0.4,2.1,2.4,3.4,4.5,3c0,0,0,0,0,0
		C1147.1,1877.4,1148.4,1875.4,1148,1873.3C1148,1873.4,1148,1873.4,1148,1873.3z"/>
	<path class="st28" d="M1117.7,1881c-0.6-2-2.8-3.1-4.8-2.5s-3.1,2.8-2.5,4.8s2.8,3.1,4.8,2.5c0,0,0,0,0,0
		C1117.2,1885.1,1118.3,1883,1117.7,1881z"/>
	<path class="st28" d="M1088.3,1891.7c-0.8-1.9-3.1-2.8-5-2s-2.8,3.1-2,5c0.8,1.9,3.1,2.8,5,2c0,0,0,0,0,0
		C1088.2,1895.9,1089.1,1893.6,1088.3,1891.7z"/>
	<path class="st28" d="M1033.6,1922.1c-1.2-1.7-3.6-2.1-5.3-0.9s-2.1,3.6-0.9,5.3c1.2,1.7,3.6,2.1,5.3,0.9
		C1034.5,1926.2,1034.8,1923.8,1033.6,1922.1z"/>
	<path class="st28" d="M1009,1941.4c-1.4-1.6-3.8-1.7-5.4-0.3s-1.7,3.8-0.3,5.4c1.4,1.6,3.8,1.7,5.4,0.3
		C1010.3,1945.4,1010.4,1943,1009,1941.4C1009,1941.5,1009,1941.5,1009,1941.4z"/>
	<path class="st28" d="M986.5,1963.2c-1.6-1.4-4-1.3-5.4,0.3s-1.3,4,0.3,5.4c1.6,1.4,4,1.3,5.4-0.3c0,0,0,0,0,0
		C988.1,1967.1,988,1964.7,986.5,1963.2z"/>
	<path class="st28" d="M966.4,1987.3c-1.7-1.2-4.1-0.9-5.3,0.8c-1.2,1.7-0.9,4.1,0.8,5.3c1.7,1.2,4.1,0.9,5.3-0.8c0,0,0,0,0,0
		C968.4,1990.9,968.1,1988.5,966.4,1987.3z"/>
	<path class="st28" d="M934.2,2040.9c-1.9-0.9-4.2,0-5,1.9c-0.9,1.9,0,4.2,1.9,5c1.9,0.9,4.2,0,5-1.9c0,0,0,0,0,0
		C937,2044,936.1,2041.8,934.2,2040.9z"/>
	<path class="st28" d="M922.6,2070c-2-0.7-4.2,0.4-4.8,2.4s0.4,4.2,2.4,4.8c2,0.7,4.2-0.4,4.8-2.4
		C925.7,2072.8,924.6,2070.7,922.6,2070C922.6,2070,922.6,2070,922.6,2070z"/>
	<path class="st28" d="M914,2100.1c-2.1-0.5-4.1,0.9-4.5,2.9s0.9,4.1,2.9,4.5c2.1,0.5,4.1-0.9,4.5-2.9c0,0,0,0,0,0
		C917.4,2102.6,916.1,2100.5,914,2100.1C914,2100.1,914,2100.1,914,2100.1z"/>
	<path class="st28" d="M908.6,2130.9c-2.1-0.2-4,1.3-4.2,3.4c-0.2,2.1,1.3,4,3.4,4.2c2.1,0.2,4-1.3,4.2-3.4c0,0,0,0,0,0
		C912.2,2133,910.7,2131.2,908.6,2130.9z"/>
	
		<ellipse transform="matrix(3.472503e-02 -0.9994 0.9994 3.472503e-02 -1289.8324 2996.8936)" class="st28" cx="906.5" cy="2166.2" rx="3.8" ry="3.8"/>
	<path class="st28" d="M907.6,2193.5c-2.1,0.2-3.6,2.1-3.4,4.2c0.2,2.1,2.1,3.6,4.2,3.4c2.1-0.2,3.6-2.1,3.4-4.2l0,0
		C911.6,2194.8,909.7,2193.3,907.6,2193.5z"/>
	<path class="st28" d="M912,2224.5c-2.1,0.4-3.4,2.4-3,4.5s2.4,3.4,4.5,3c2.1-0.4,3.4-2.4,3-4.5
		C916.1,2225.4,914.1,2224.1,912,2224.5C912,2224.5,912,2224.5,912,2224.5z"/>
	<path class="st28" d="M919.6,2254.9c-2,0.6-3.1,2.8-2.5,4.8c0.6,2,2.8,3.1,4.8,2.5c2-0.6,3.1-2.8,2.5-4.8c0,0,0,0,0,0
		C923.8,2255.3,921.6,2254.2,919.6,2254.9z"/>
	<path class="st28" d="M930.4,2284.3c-1.9,0.8-2.8,3.1-2,5c0.8,1.9,3.1,2.8,5,2s2.8-3.1,2-5c0,0,0,0,0,0
		C934.5,2284.3,932.3,2283.4,930.4,2284.3z"/>
	<path class="st28" d="M960.8,2338.9c-1.7,1.2-2.1,3.6-0.9,5.3c1.2,1.7,3.6,2.1,5.3,0.9c1.7-1.2,2.1-3.6,0.9-5.3
		C964.9,2338.1,962.5,2337.7,960.8,2338.9z"/>
	<path class="st28" d="M980.1,2363.6c-1.6,1.4-1.7,3.8-0.3,5.4c1.4,1.6,3.8,1.7,5.4,0.3c1.6-1.4,1.7-3.8,0.3-5.4
		C984.1,2362.3,981.7,2362.2,980.1,2363.6C980.1,2363.6,980.1,2363.6,980.1,2363.6z"/>
	<path class="st28" d="M1001.9,2386.1c-1.4,1.6-1.3,4,0.3,5.4c1.6,1.4,4,1.3,5.4-0.3c1.4-1.6,1.3-4-0.3-5.4c0,0,0,0,0,0
		C1005.7,2384.4,1003.3,2384.5,1001.9,2386.1z"/>
	<path class="st28" d="M1025.9,2406.1c-1.2,1.7-0.9,4.1,0.8,5.3c1.7,1.2,4.1,0.9,5.3-0.8c1.2-1.7,0.9-4.1-0.8-5.3c0,0,0,0,0,0
		C1029.5,2404.1,1027.2,2404.4,1025.9,2406.1z"/>
	<path class="st28" d="M1079.6,2438.3c-0.9,1.9,0,4.2,1.9,5c1.9,0.9,4.2,0,5-1.9s0-4.2-1.9-5c0,0,0,0,0,0
		C1082.7,2435.5,1080.4,2436.4,1079.6,2438.3z"/>
	<path class="st28" d="M1108.6,2450c-0.7,2,0.4,4.2,2.4,4.8c2,0.7,4.2-0.4,4.8-2.4c0.7-2-0.4-4.2-2.4-4.8
		C1111.4,2446.9,1109.3,2448,1108.6,2450C1108.6,2450,1108.6,2450,1108.6,2450z"/>
	<path class="st28" d="M1138.7,2458.5c-0.4,2.1,0.9,4.1,2.9,4.5c2.1,0.4,4.1-0.9,4.5-2.9c0.4-2.1-0.9-4.1-2.9-4.5c0,0,0,0,0,0
		C1141.2,2455.2,1139.2,2456.5,1138.7,2458.5z"/>
	<path class="st28" d="M1169.6,2463.9c-0.2,2.1,1.3,4,3.4,4.2c2.1,0.2,4-1.3,4.2-3.4c0.2-2.1-1.3-4-3.4-4.2c0,0,0,0,0,0
		C1171.7,2460.3,1169.8,2461.8,1169.6,2463.9z"/>
	<path class="st28" d="M1200.8,2466.1c0,2.1,1.7,3.8,3.8,3.8c2.1,0,3.8-1.7,3.8-3.8c0-2.1-1.7-3.8-3.8-3.8
		S1200.8,2464,1200.8,2466.1L1200.8,2466.1z"/>
	<path class="st28" d="M1232.1,2464.9c0.2,2.1,2.1,3.6,4.2,3.4c2.1-0.2,3.6-2.1,3.4-4.2c-0.2-2.1-2.1-3.6-4.2-3.4l0,0
		C1233.4,2461,1231.9,2462.8,1232.1,2464.9z"/>
	<path class="st28" d="M1263.1,2460.5c0.4,2.1,2.4,3.4,4.5,3c2.1-0.4,3.4-2.4,3-4.5c-0.4-2-2.4-3.4-4.5-3
		C1264.1,2456.4,1262.7,2458.4,1263.1,2460.5C1263.1,2460.5,1263.1,2460.5,1263.1,2460.5z"/>
	<path class="st28" d="M1293.5,2452.9c0.6,2,2.8,3.1,4.8,2.5s3.1-2.8,2.5-4.8s-2.8-3.1-4.8-2.5c0,0,0,0,0,0
		C1294,2448.8,1292.9,2450.9,1293.5,2452.9z"/>
	<path class="st28" d="M1322.9,2442.1c0.8,1.9,3.1,2.8,5,2c1.9-0.8,2.8-3.1,2-5c-0.8-1.9-3.1-2.8-5-2c0,0,0,0,0,0
		C1322.9,2438,1322.1,2440.2,1322.9,2442.1z"/>
	<path class="st28" d="M1377.6,2411.7c1.2,1.7,3.6,2.1,5.3,0.9c1.7-1.2,2.1-3.6,0.9-5.3s-3.6-2.1-5.3-0.9c0,0,0,0,0,0
		C1376.7,2407.7,1376.3,2410,1377.6,2411.7z"/>
	<path class="st28" d="M1402.2,2392.4c1.4,1.6,3.8,1.7,5.4,0.3c1.6-1.4,1.7-3.8,0.3-5.4c-1.4-1.6-3.8-1.7-5.4-0.3
		C1400.9,2388.4,1400.8,2390.8,1402.2,2392.4C1402.2,2392.4,1402.2,2392.4,1402.2,2392.4z"/>
	<path class="st28" d="M1424.7,2370.6c1.6,1.4,4,1.3,5.4-0.3c1.4-1.6,1.3-4-0.3-5.4c-1.6-1.4-4-1.3-5.4,0.3c0,0,0,0,0,0
		C1423,2366.8,1423.1,2369.2,1424.7,2370.6z"/>
	<path class="st28" d="M1444.8,2346.6c1.7,1.2,4.1,0.9,5.3-0.8c1.2-1.7,0.9-4.1-0.8-5.3c-1.7-1.2-4.1-0.9-5.3,0.8c0,0,0,0,0,0
		C1442.7,2343,1443.1,2345.4,1444.8,2346.6z"/>
	<path class="st28" d="M1476.9,2293c1.9,0.9,4.2,0,5-1.9c0.9-1.9,0-4.2-1.9-5c-1.9-0.9-4.2,0-5,1.9c0,0,0,0,0,0
		C1474.2,2289.9,1475,2292.1,1476.9,2293z"/>
	<path class="st28" d="M1488.6,2263.9c2,0.7,4.1-0.4,4.8-2.4c0.7-2-0.4-4.1-2.4-4.8c-2-0.7-4.1,0.4-4.8,2.4
		C1485.5,2261.1,1486.6,2263.2,1488.6,2263.9C1488.6,2263.9,1488.6,2263.9,1488.6,2263.9z"/>
	<path class="st28" d="M1497.2,2233.8c2.1,0.4,4.1-0.9,4.5-2.9c0.4-2.1-0.9-4.1-2.9-4.5c-2.1-0.4-4.1,0.9-4.5,2.9
		C1493.8,2231.3,1495.1,2233.3,1497.2,2233.8C1497.2,2233.8,1497.2,2233.8,1497.2,2233.8z"/>
	<path class="st28" d="M1502.6,2202.9c2.1,0.2,4-1.3,4.2-3.4c0.2-2.1-1.3-4-3.4-4.2s-4,1.3-4.2,3.4c0,0,0,0,0,0
		C1499,2200.8,1500.5,2202.7,1502.6,2202.9z"/>
	<path class="st28" d="M1504.7,2171.7c2.1,0,3.8-1.7,3.8-3.8s-1.7-3.8-3.8-3.8c-2.1,0-3.8,1.7-3.8,3.8S1502.6,2171.7,1504.7,2171.7
		L1504.7,2171.7z"/>
	<path class="st28" d="M1503.6,2140.4c2.1-0.2,3.6-2.1,3.4-4.2s-2.1-3.6-4.2-3.4c-2.1,0.2-3.6,2.1-3.4,4.2
		C1499.6,2139.1,1501.5,2140.6,1503.6,2140.4z"/>
	<path class="st28" d="M1499.2,2109.4c2.1-0.4,3.4-2.5,2.9-4.5c-0.4-2.1-2.5-3.4-4.5-2.9c-2.1,0.4-3.4,2.5-2.9,4.5c0,0,0,0,0,0
		C1495.1,2108.5,1497.1,2109.8,1499.2,2109.4z"/>
	<path class="st28" d="M1491.6,2079c2-0.6,3.1-2.8,2.5-4.8s-2.8-3.1-4.8-2.5s-3.1,2.8-2.5,4.8c0,0,0,0,0,0
		C1487.4,2078.5,1489.5,2079.6,1491.6,2079z"/>
	<path class="st28" d="M1480.8,2049.6c1.9-0.8,2.8-3.1,2-5c-0.8-1.9-3.1-2.8-5-2c-1.9,0.8-2.8,3.1-2,5c0,0,0,0,0,0
		C1476.6,2049.5,1478.8,2050.4,1480.8,2049.6C1480.8,2049.6,1480.8,2049.6,1480.8,2049.6z"/>
	<path class="st28" d="M1450.4,1995c1.7-1.2,2.1-3.6,0.9-5.3s-3.6-2.1-5.3-0.9s-2.1,3.6-0.9,5.3c0,0,0,0,0,0
		C1446.3,1995.9,1448.7,1996.2,1450.4,1995C1450.4,1995,1450.4,1995,1450.4,1995z"/>
	<path class="st28" d="M1431.1,1970.3c1.6-1.4,1.7-3.8,0.3-5.4c-1.4-1.6-3.8-1.7-5.4-0.3c-1.6,1.4-1.7,3.8-0.3,5.4
		C1427.1,1971.6,1429.5,1971.7,1431.1,1970.3z"/>
	<path class="st28" d="M1409.3,1947.8c1.4-1.6,1.3-4-0.3-5.4s-4-1.3-5.4,0.3c-1.4,1.6-1.3,4,0.3,5.4c0,0,0,0,0,0
		C1405.5,1949.5,1407.9,1949.4,1409.3,1947.8z"/>
	<path class="st28" d="M1385.3,1927.7c1.2-1.7,0.9-4.1-0.8-5.3c-1.7-1.2-4.1-0.9-5.3,0.8c-1.2,1.7-0.9,4.1,0.8,5.3c0,0,0,0,0,0
		C1381.6,1929.8,1384,1929.4,1385.3,1927.7z"/>
	<path class="st28" d="M1331.6,1895.6c0.9-1.9,0-4.2-1.9-5c-1.9-0.9-4.2,0-5,1.9c-0.9,1.9,0,4.2,1.9,5c0,0,0,0,0,0
		C1328.5,1898.3,1330.7,1897.5,1331.6,1895.6z"/>
	<circle class="st28" cx="1299" cy="1882.7" r="3.8"/>
	<path class="st28" d="M1272.4,1875.3c0.4-2.1-0.9-4.1-2.9-4.5s-4.1,0.9-4.5,2.9c-0.4,2.1,0.9,4.1,2.9,4.5c0,0,0,0,0,0
		C1270,1878.7,1272,1877.4,1272.4,1875.3C1272.4,1875.3,1272.4,1875.3,1272.4,1875.3z"/>
	<path class="st28" d="M1241.6,1869.9c0.2-2.1-1.3-4-3.4-4.2s-4,1.3-4.2,3.4s1.3,4,3.4,4.2c0,0,0,0,0,0
		C1239.5,1873.5,1241.4,1872,1241.6,1869.9C1241.6,1869.9,1241.6,1869.9,1241.6,1869.9z"/>
	
		<ellipse transform="matrix(0.9992 -4.117812e-02 4.117812e-02 0.9992 -88.4246 39.1574)" class="st27" cx="906.3" cy="2166" rx="17.4" ry="17.4"/>
	
		<ellipse transform="matrix(0.2489 -0.9685 0.9685 0.2489 -1483.5117 3018.9517)" class="st27" cx="1204.6" cy="2465.9" rx="17.4" ry="17.4"/>
	<path class="st27" d="M1504.7,2185.3c9.6,0,17.4-7.7,17.5-17.3s-7.7-17.4-17.3-17.5c-9.6,0-17.4,7.7-17.5,17.3c0,0,0,0,0,0
		C1487.3,2177.4,1495.1,2185.3,1504.7,2185.3z"/>
	<path class="st25" d="M1211.6,2252.2c-9.2,0-16.7-7.5-16.6-16.7c0,0,0,0,0,0l0.9-288.8c0-9.2,7.5-16.7,16.7-16.6
		s16.7,7.5,16.6,16.7l0,0l-0.9,288.8C1228.3,2244.7,1220.8,2252.2,1211.6,2252.2C1211.6,2252.2,1211.6,2252.2,1211.6,2252.2z"/>
	<path class="st25" d="M1269.5,2135.7c-4.7-7.9-15-10.5-22.9-5.8c0,0,0,0,0,0l-25.3,15.1c-15.5-7.6-34.2-1.2-41.8,14.3
		c-1.9,3.9-3,8.2-3.2,12.6l-123.5,74c-7.9,4.7-10.5,15-5.7,22.9c3,5,8.4,8.1,14.3,8.1c3,0,6-0.8,8.6-2.4l122.8-73.6
		c4.6,2.5,9.7,3.9,14.9,3.9c17.4,0.1,31.6-14,31.6-31.4c0,0,0,0,0,0c0-0.1,0-0.2,0-0.3l24.5-14.7
		C1271.6,2153.9,1274.2,2143.6,1269.5,2135.7C1269.5,2135.7,1269.5,2135.7,1269.5,2135.7z"/>
	<path class="st29" d="M1205.1,2244c-9.2,0-16.7-7.5-16.6-16.7c0,0,0,0,0,0l0.9-288.8c0-9.2,7.5-16.7,16.7-16.6s16.7,7.5,16.6,16.7
		l0,0l-0.9,288.8C1221.8,2236.6,1214.3,2244,1205.1,2244C1205.1,2244,1205.1,2244,1205.1,2244z"/>
	<path class="st29" d="M1267.8,2129.1c-4.7-7.9-15-10.5-22.9-5.8c0,0,0,0,0,0l-25.3,15.1c-15.5-7.6-34.2-1.2-41.8,14.3
		c-1.9,3.9-3,8.2-3.2,12.6l-123.5,74c-7.9,4.7-10.5,15-5.8,22.9c3,5,8.4,8.1,14.3,8.1c3,0,6-0.8,8.6-2.4l122.8-73.6
		c4.6,2.5,9.7,3.9,14.9,3.9c17.4,0.1,31.6-14,31.7-31.4v0c0-0.1,0-0.2,0-0.3l24.5-14.7C1270,2147.3,1272.6,2137.1,1267.8,2129.1
		C1267.9,2129.2,1267.9,2129.1,1267.8,2129.1z"/>
	
		<ellipse transform="matrix(0.9017 -0.4324 0.4324 0.9017 -818.4569 734.5561)" class="st29" cx="1206" cy="2167" rx="31.4" ry="31.4"/>
	<path class="st30" d="M1365.5,2349.6c-1.5,0.3-3-0.2-4.1-1.3l-194.9-220.5c-1.6-1.7-1.4-4.4,0.3-5.9c1.7-1.6,4.4-1.4,5.9,0.3
		c0,0,0,0,0.1,0.1l194.9,220.5c1.5,1.7,1.4,4.4-0.4,5.9C1366.8,2349.1,1366.2,2349.5,1365.5,2349.6z"/>
	
		<ellipse transform="matrix(0.2676 -0.9635 0.9635 0.2676 -1204.5334 2749.2734)" class="st30" cx="1206.1" cy="2166.9" rx="19.6" ry="19.6"/>
	<path class="st31" d="M1199.1,2157.2c2.4,1.2,2.8,5.4,0.8,9.5s-5.6,6.3-8,5.1s-2.8-5.4-0.8-9.5S1196.6,2156,1199.1,2157.2z"/>
	<path class="st31" d="M1206.7,2154c0.2,0.9-0.9,2-2.4,2.3s-3-0.1-3.2-1.1s0.9-2,2.4-2.3S1206.5,2153,1206.7,2154z"/>
	<path class="st32" d="M1673.5,1118.5c0,0,0.1,0.8,0.4,2.3c0.5,3,1,5.9,1.6,8.8c18.7,98.4,54.2,135.7,74.9,149.4
		c8.6,5.7,19.9,5.3,28.1-1c83.8-65.1,169.9-193.2,190.3-224.5c2.8-4.4,7.1-7.6,12.1-9c96.2-26.2,122.1-101.1,104-120.6
		c-1.1-1.2-2.4-2.3-3.8-3.1c-20.2-12.8-59.7,16.3-59.7,16.3c7.6-12.1-5-28.1-12.6-19s-38.6,20.2-80.4,23c-29,2-45.7,29.5-53.2,46
		c-4.4,9.8-10.2,18.9-17.3,27l-68.8,78.9l0,0l-15.2,17.2l-18.5-40.7l-8.1-19.8c0,0,0-0.1,0-0.1L1673.5,1118.5z"/>
	<path class="st33" d="M1980.9,1044.6c-5,1.4-9.3,4.6-12.1,9c-20.4,31.3-106.5,159.4-190.3,224.5c-8.2,6.3-19.5,6.7-28.1,1
		c-21.4-14.2-58.3-53.2-76.5-158.2c3.4,18,27.4,133.8,80.9,138.6c58,5.2,181.2-216.6,181.2-216.6s-48.5-20.9-50.9-49.3
		c2,2.9,53.4,73.7,149.6,10.6c0,0,58.6-40,46.4-83.2c1.4,0.9,2.7,1.9,3.8,3.1C2103,943.5,2077.1,1018.3,1980.9,1044.6z"/>
	<path class="st33" d="M2021.4,937.2c0,0-29.8,17.1-75.7,21.8C1945.7,959,1992.4,967.6,2021.4,937.2z"/>
	<path class="st5" d="M1712.4,949.7l60.8,158.9c0,0-6.5,170.8-34.5,184.2s-61.1-108.3-61.1-108.3l-13.2-148.3L1712.4,949.7z"/>
	<path class="st34" d="M1730.3,2650.6h-257.8l-116.2-186.4l29.6-26l86.6-75.9l90.5-14.9l10.6,9l45.5,176.5l2.4,0.7
		c58.2,16.7,85.8,56.4,98.5,84.9C1728.3,2636.9,1730.3,2650.6,1730.3,2650.6z"/>
	<path class="st21" d="M1730.3,2650.6h-182.1c-0.5-4.1-0.7-8.3-0.7-12.4c0-47,29.7-88.9,74-104.6c58.2,16.7,85.8,56.4,98.5,84.9
		C1728.3,2636.9,1730.3,2650.6,1730.3,2650.6z"/>
	<path class="st8" d="M1730.3,2650.6h-257.8l-116.2-186.4l29.6-26l110.9,180.3h223.3C1728.3,2636.9,1730.3,2650.6,1730.3,2650.6z"/>
	<path class="st9" d="M1529.1,2649.4h402.4c-0.2,0-0.3-0.1-0.4-0.3c-7.9-11.7-16.5-22.9-25.7-33.6c-31.8-36.7-71-65.7-118.3-79
		l-46.9-13.2l-190.3-42.4l-16.6,134.7L1529.1,2649.4z"/>
	<path class="st34" d="M1752,2650.6h179.5c-0.2,0-0.3-0.1-0.4-0.3c-7.9-11.7-16.5-22.9-25.7-33.6c-31.8-36.7-71-65.7-118.3-79
		C1787,2537.7,1708.9,2564.7,1752,2650.6z"/>
	<path class="st8" d="M1529.1,2650.6h402.4c-0.2,0-0.3-0.1-0.4-0.3c-8-11.7-16.6-23-29.6-33.6h-372L1529.1,2650.6z"/>
	<path class="st35" d="M1779.4,1418.1l-30.5,463.1L1609.8,2505c0,0-206.9-31.9-205.3-163.4l150.3-448.2l4.3-463.7L1779.4,1418.1z"/>
	<path class="st4" d="M1457.6,1447.2c0,0-19.8,100.4,29.6,224.4c40.1,100.5,93.1,228.1,111.8,272.8c4.5,10.7,5.8,22.4,3.8,33.8
		l-91.8,532.6c0,0,196.9,77.1,278.3,0l31-589.9c0.6-11.7-0.6-23.4-3.7-34.7l-123.8-457.9L1457.6,1447.2z"/>
	<path class="st36" d="M1553.9,897.9c0,0-59.2,13.3-83.4,48s-29.3,594.7-29.3,594.7s245.1,95.3,361-32.4l-79.7-525
		c-3.9-29.5-19.5-56.2-43.4-74l-18.6-13.8L1553.9,897.9z"/>
	<path class="st32" d="M1540.9,785.4c0.1,0,0.1,0.1,0.1,0.1c2.1,1.5,4.2,2.8,6.2,4c5,2.9,10.2,5.4,15.6,7.5c2.5,0.9,4.3,3.2,4.6,5.8
		c1.6,12.3,5.8,55.5,4.7,79.8c23.2,24.5,40.8,35,53.8,38.2c16.5,4,32.7-7.7,34.6-24.6l3.8-42.7c68.1,4.8,72.4-123.1,72.4-123.1
		l-8.7-87l-85.6-29l-72.6,106.3c0,0-39.4-25.3-50,19.4C1514.8,761.2,1527.5,776,1540.9,785.4z"/>
	<path class="st33" d="M1662.4,871.4c-53-16.2-49.1-51.8-49.1-51.8c17.9,30,43.5,33.6,51.1,34.1L1662.4,871.4z"/>
	<path class="st33" d="M1558.8,743.9c2.3-5.8-4.2-11.4-9.6-8.4c-4.5,2.5-8.4,8.2-5.2,20.7c6.3,24.4,19.7,14,18.8,6.6
		s-7.5-10.7-4.2-18.8C1558.7,744.1,1558.7,744,1558.8,743.9z"/>
	<path class="st37" d="M1665.5,727.5c-0.5-1.9-1.7-3.5-3.4-4.6c-1.9-1.3-4.2-1.9-6.5-1.7c-4.4,0.3-10.3,3.6-11,8.2
		c-0.3,1.9-2.7,2.9-4.4,2.5c-2-0.6-2.7-2.5-2.4-4.4c0.6-4,3.6-7.2,6.8-9.5c3.3-2.3,7.1-3.7,11.1-3.9c7.4-0.5,14.7,4.3,16.7,11.5
		C1673.6,730.1,1666.7,732,1665.5,727.5L1665.5,727.5z"/>
	<path class="st37" d="M1724.9,725.9c-1-3.7-6.2-6.9-10-7c-4.4-0.1-8.1,4.1-10.1,8.1c-1,1.7-3.2,2.2-4.9,1.2c-1.7-1-2.2-3.2-1.2-4.9
		c3.1-6.2,9.4-12,16.7-11.5c6.9,0.4,14.5,5.4,16.4,12.2c0.5,1.9-0.6,3.9-2.5,4.4C1727.3,728.9,1725.4,727.8,1724.9,725.9
		L1724.9,725.9L1724.9,725.9z"/>
	
		<ellipse transform="matrix(8.377541e-03 -1 1 8.377541e-03 952.8666 2456.1301)" class="st37" cx="1714.8" cy="747.6" rx="10.1" ry="6.3"/>
	
		<ellipse transform="matrix(8.377541e-03 -1 1 8.377541e-03 895.6727 2397.4827)" class="st37" cx="1656.7" cy="747.1" rx="10.7" ry="6.7"/>
	<path class="st33" d="M1547.2,789.5c5,2.9,10.2,5.4,15.6,7.5c0,0,15.2,1.4,17.8-12.8C1579.6,785.4,1568.4,798.7,1547.2,789.5z"/>
	<path class="st33" d="M1571.7,724.4c0,0,30,28.6,71.3-19.8c0,0,21.5-25.3,27.7-42.6c4.9-13.7,13.6,4.3,12.6,10.5
		c0,0,12.1-33.9,25.9-3.7c0,0,4,6.8,13,45.8l9-72.8l-40.6-35.4l-78.7-5l-35.6,29.7l-35.1,45.4L1571.7,724.4z"/>
	<path class="st38" d="M1520.2,715.2c0.7,3.8,4.2,6.8,6.5,10.3c0,0,13.3-24.1,43.3-2.1c28.2,20.6,86.2-28.6,93.6-66.9
		c1.3-6.9,8.9-11.2,14.9-7.5c2.8,1.7,5.4,4.9,7,10.5c0,0,8-23.1,24.1,0.2s3.9,65.8,27,81c18.4,12.2,27.3-3.9,29.1-28.3
		c0.4-6.6,0.4-13.2,0-19.8c-2-34.2,0-38.1-12.1-73.9c0,0-22.1-67.2-69.6-37.7c0,0-43.5-46-91.2-17.2c-49.1,29.7-52.7,57.7-52.7,57.7
		S1507.4,640,1520.2,715.2z"/>
	<path class="st39" d="M1520.2,715.2c2,3.3,4.2,6.8,6.5,10.3c0,0,13.3-24.1,43.3-2.1c28.2,20.6,86.2-28.6,93.6-66.9
		c1.3-6.9,8.9-11.2,14.9-7.5c2.8,1.7,5.4,4.9,7,10.5c0,0,8-23.1,24.1,0.2s3.9,65.8,27,81c18.4,12.2,27.3-3.9,29.1-28.3v-0.1
		c0,0-10.5,30.9-26.4,14.1s-12.9-122.1-52.4-79.7c0,0-18.6-29.5-31.1,6.7s-57.9,65.8-78.3,53.6s-50.8-7.4-56.2,6
		C1521,713.7,1520.6,714.5,1520.2,715.2z"/>
	<path class="st39" d="M1638.6,628.8c0,0-14.5,62-80.8,60C1557.8,688.8,1605.9,674.1,1638.6,628.8z"/>
	<path class="st39" d="M1526.4,625c0,0-26.7,17.4-3.7,66.9C1522.7,691.9,1512.4,653.9,1526.4,625z"/>
	<path class="st39" d="M1687.5,591.2c0,0,37-24.1,57,30.3C1744.5,621.4,1729.4,586.8,1687.5,591.2z"/>
	<path class="st39" d="M1540.2,608c0,0,36.4-59.7,117.9-25.1C1658.1,583,1585.4,565,1540.2,608z"/>
	<path class="st20" d="M1771.7,690.7c0-80-53.8-147-133.9-147s-130.4,67.1-130.4,147H1771.7z"/>
	<path class="st9" d="M1493.5,690.7h323.3c4.4,0,8,3.6,8,8v0c0,4.4-3.6,8-8,8h-323.3c-4.4,0-8-3.6-8-8v0
		C1485.6,694.2,1489.1,690.7,1493.5,690.7z"/>
	<path class="st21" d="M1599.1,549.1c66.4-7,63.7,141.6,63.7,141.6h72.4c-11.6-133.2-62.9-149.3-62.9-149.3
		C1627.7,520.8,1599.1,549.1,1599.1,549.1z"/>
	<path class="st40" d="M1599.1,549.1c66.4-7,63.7,141.6,63.7,141.6h12.6c0-0.4,0-0.8,0-1.2C1667.6,516.1,1599.1,549.1,1599.1,549.1z
		"/>
	<path class="st41" d="M1697.7,817.1c2.1-11.5-3-18.5-10.6-19.8s-14.8,3.4-16.9,14.9s3.4,16.5,10.9,17.9S1695.7,828.5,1697.7,817.1z
		"/>
	<polygon class="st20" points="1667.8,920.9 1667.8,959 1653.8,962.1 1647.8,963.5 1627.7,940.1 1627.7,925.4 1632.1,921.6 
		1647.8,908 	"/>
	<path class="st20" d="M1724.3,1197.9c3.8,16.1,4.1,32.9,1,49.2l-8.4,43.3l-2.2,11.3l-76.1-40.1l9-298.1l6-1.4l13.9-3.2
		L1724.3,1197.9z"/>
	<path class="st22" d="M1648.9,1258l4.9-291.9c0.1-3.2,14-7.2,14-7.2c-5.4-2.2-12.3-0.5-15.4,0.5l-20.4-37.8l-4.3,3.8v14.7
		l20.1,23.4l-9,298.1l76.1,40.1l2.2-11.3L1648.9,1258z"/>
	<path class="st42" d="M1760.9,1475.8l52.6-333.5c0.4-2.3,2.1-4.2,4.4-4.8l244.7-62.9c1.9-0.5,3.8,0,5.3,1.2l12,8.6l-11.8,8.1
		l-50.8,322.2c-0.4,2.3-2.1,4.2-4.4,4.8l-228.8,58.9l0.1,1.4l-7.9,10.9l-12.3-8.8l0,0C1761.7,1480.7,1760.5,1478.2,1760.9,1475.8z"
		/>
	<path class="st43" d="M1781.1,1491.6l5.6-1.4l119-30.6l120.1-30.9c2.3-0.6,4-2.5,4.4-4.8l52.6-333.5c0.5-3.2-1.7-6.3-4.9-6.8
		c-0.8-0.1-1.6-0.1-2.4,0.1l-244.7,63c-2.3,0.6-4,2.5-4.3,4.8l-35.3,224.3l0,0l-15.3,97l-1.9,12.2c-0.5,3.2,1.7,6.2,5,6.7
		C1779.5,1491.8,1780.3,1491.8,1781.1,1491.6z"/>
	<path class="st5" d="M1456.4,1301.7c-71.7-39.1-39.5-334.7,22.2-361.1c35.2-15.1,52.6,2.2,61.1,19.7c5.6,11.8,7.9,24.8,6.7,37.8
		l-3.4,193.7L1456.4,1301.7z"/>
	<path class="st32" d="M1802.7,1413c-6.4,3.5-15,2.9-24.2,0l-1.8-0.6c0,0,0,0-0.1,0c-0.6-0.2-1.1-0.4-1.7-0.6
		c-24.4-8.9-68-38.4-68-38.4s-109.3-24.8-181.4-49.1l35.9-105.1c82.9,16.4,166.7,51.6,193.8,42c15.3-5.4,29.5-2.5,43.9,3.3
		c14.2,5.7,28.8,14.2,45.1,20.3C1877.1,1297,1826.7,1399.8,1802.7,1413z"/>
	<path class="st32" d="M1774.8,1411.8c0.6,0.1,1.2,0.3,1.7,0.6L1774.8,1411.8z"/>
	<path class="st33" d="M1802.7,1413c-6.4,3.5-15,2.9-24.2,0c19.3,4.1,65-57,69.4-93.3c4.5-37.6-16.9-24-44.9-39.2
		s-3.8-15.9-3.8-15.9l0,0c14.2,5.7,28.8,14.2,45.1,20.2C1877.1,1297,1826.7,1399.8,1802.7,1413z"/>
	<path class="st44" d="M1456.4,1301.7c0,0,1.9,35.1,77.6,41.3c6.9,0.5,13-4.4,13.9-11.2c3.8-28,16-93.6,47.2-104.6
		c0,0-31.4-66.8-69.7-33.3C1489.1,1225.8,1450.3,1254.4,1456.4,1301.7z"/>
	<path class="st5" d="M1572.4,863.4c0,0-9.6,7.2-18.5,34.5c0,0,23.5,55.1,71.8,69.5l22.1-59.4C1647.8,908,1585.4,885.1,1572.4,863.4
		z"/>
	<path class="st5" d="M1647.8,908l26.2,43.8c0,0,4.3-35.8,4.3-43s-7.7-34.3-15.2-34.3S1670,891.1,1647.8,908z"/>
	<path class="st45" d="M1646.6,2517.6l-7-0.7l1-10l7,0.7L1646.6,2517.6z M1649.8,2484.4l-7-0.7l2.2-23.2l7,0.7L1649.8,2484.4z
		 M1654.2,2437.9l-7-0.7l2.2-23.2l7,0.7L1654.2,2437.9z M1658.7,2391.4l-7-0.7l2.2-23.2l7,0.7L1658.7,2391.4z M1663.1,2345l-7-0.7
		l2.2-23.2l7,0.7L1663.1,2345z M1667.6,2298.5l-7-0.7l2.2-23.2l7,0.7L1667.6,2298.5z M1672,2252l-7-0.7l2.2-23.2l7,0.7L1672,2252z
		 M1676.4,2205.5l-7-0.7l2.2-23.2l7,0.7L1676.4,2205.5z M1680.9,2159.1l-7-0.7l2.2-23.2l7,0.7L1680.9,2159.1z M1685.3,2112.6l-7-0.7
		l2.2-23.2l7,0.7L1685.3,2112.6z M1689.8,2066.1l-7-0.7l2.2-23.2l7,0.7L1689.8,2066.1z M1694.2,2019.7l-7-0.7l2.2-23.2l7,0.7
		L1694.2,2019.7z M1698.6,1973.1l-7-0.4c0.3-4.1,0.4-8.3,0.4-12.4c0-3.5-0.1-7-0.3-10.5l7-0.4c0.2,3.6,0.3,7.3,0.3,10.9
		C1699,1964.5,1698.9,1968.8,1698.6,1973.1L1698.6,1973.1z M1689.1,1927c-1.3-7.5-3.1-15-5.3-22.3l6.7-2c2.3,7.6,4.1,15.3,5.5,23.1
		L1689.1,1927z M1676.3,1882.7l-7.6-22.1l6.6-2.3l7.6,22.1L1676.3,1882.7z M1661.2,1838.5l-7.6-22.1l6.6-2.3l7.6,22.1L1661.2,1838.5
		z M1646,1794.4l-7.6-22.1l6.6-2.3l7.6,22.1L1646,1794.4z M1630.9,1750.2l-7.6-22.1l6.6-2.3l7.6,22.1L1630.9,1750.2z M1615.7,1706.1
		l-7.5-22.1l6.6-2.3l7.6,22.1L1615.7,1706.1z M1600.6,1661.9l-7.6-22.1l6.6-2.3l7.6,22.1L1600.6,1661.9z M1585.4,1617.7l-7.6-22.1
		l6.6-2.3l7.6,22.1L1585.4,1617.7z M1570.3,1573.6l-7.6-22.1l6.6-2.3l7.6,22.1L1570.3,1573.6z"/>
	<path class="st42" d="M3869,1439.1l-240,152.7h-173.8l176.9-112.6c8.4-5.3,10.9-16.5,5.5-24.9c-5.3-8.4-16.5-10.9-24.9-5.5
		L3386,1593.1l0,0l-119.6,479l35,8.7l114.6-459.3h203.8l-112.5,450.5l35,8.7l116.1-465.1l229.9-146.3L3869,1439.1z"/>
	<path class="st4" d="M3530.6,2001.3l-13.3-15.2c-5.6-6.5-15.5-7.2-21.9-1.5c0,0,0,0,0,0l-69.6-82.2
		c-30.8-36.4-85.4-40.9-121.8-10.1c-0.3,0.3-0.6,0.5-0.9,0.8l-27.3,23.8c-5.7-3.1-12.7-2.3-17.6,1.9l-69.6-82.2
		c-30.8-36.4-85.4-40.9-121.8-10.1c-0.3,0.3-0.6,0.5-0.9,0.8l-106,92.3l-2-2.2c-5.6-6.5-15.5-7.2-21.9-1.5c0,0,0,0,0,0l-15.2,13.3
		c-0.8,0.7-1.5,1.4-2.1,2.2l-102.2-188.7l6.2-3.4c7.9-4.3,10.9-14.2,6.6-22.1l-10.1-18.6c-4.3-7.9-14.2-10.9-22.1-6.6c0,0,0,0,0,0
		l-121.1,65.6c-7.9,4.3-10.9,14.2-6.6,22.1c0,0,0,0,0,0l10.1,18.6c4.3,7.9,14.2,10.9,22.1,6.6l31.6-17.1l-34.1,18.5l289.9,535.1
		l117.4-63.6l-160.3-296l59.4,68.2c5.6,6.5,15.5,7.1,21.9,1.5l15.2-13.3c6.5-5.6,7.2-15.5,1.5-21.9c0,0,0,0,0,0l-0.7-0.8l68.6-59.7
		c4.2-3.6,10.5-3.1,14.1,1l32.6,37.4l-0.8,0.7c-5,10.1-5.1,21.8-0.3,32l13.3,15.2c3.1,3.5,7.5,5.5,12.2,5.3l59.5,68.3
		c5.6,6.5,15.4,7.2,21.9,1.5c0,0,0,0,0,0l15.2-13.3c6.5-5.6,7.2-15.5,1.6-22c0,0,0,0,0,0l-0.7-0.8l68.6-59.7
		c4.2-3.6,10.5-3.1,14.1,1l38.1,43.8l-5.1,4.4c-6.5,5.6-7.2,15.4-1.5,21.9c0,0,0,0,0,0l13.3,15.2c5.6,6.5,15.5,7.2,21.9,1.5
		l98.9-86.2C3535.6,2017.6,3536.2,2007.8,3530.6,2001.3z"/>
	<path class="st5" d="M3021.4,2056.5l-105.6-65.8l30.7-49.3c2.9-4.7,1.5-10.9-3.2-13.8c0,0,0,0,0,0l-77.2-48l67.2-108l119.3,74.3
		c40.5,25.2,52.9,78.5,27.6,119c-0.2,0.3-0.4,0.6-0.6,1L3021.4,2056.5z"/>
	<path class="st44" d="M2821.8,1853.2l69.3-111.4c4.5-7.3,14.1-9.5,21.4-5l17.1,10.7c7.3,4.5,9.5,14.1,5,21.4l-69.3,111.4
		c-4.5,7.3-14.1,9.5-21.4,5l-17.1-10.7C2819.5,1870.1,2817.3,1860.5,2821.8,1853.2z"/>
	<path class="st4" d="M2941.6,2006.8l-25.8-16.1l30.7-49.3c2.9-4.7,1.5-10.9-3.2-13.8c0,0,0,0,0,0l-77.2-48l15.6-25.1l83.3,51.9
		c15.6,9.7,20.3,30.2,10.6,45.8L2941.6,2006.8z"/>
	<path class="st44" d="M2877.8,2009.1l10.7-17.1c4.5-7.3,14.1-9.5,21.4-5l111.4,69.3c7.3,4.5,9.5,14.1,5,21.4l-10.7,17.1
		c-4.5,7.3-14.1,9.5-21.4,5l-111.4-69.3C2875.5,2026,2873.3,2016.4,2877.8,2009.1z"/>
	
		<rect x="2802.1" y="1962.5" transform="matrix(0.7055 -0.7087 0.7087 0.7055 -523.2927 2799.126)" class="st2" width="608.6" height="133.5"/>
	<path class="st44" d="M3275.7,1745.4l15-15c6.4-6.4,16.7-6.4,23.1-0.1l97.6,97.1c6.4,6.4,6.4,16.7,0.1,23.1l-15,15
		c-6.4,6.4-16.7,6.4-23.1,0.1l-97.6-97.1C3269.4,1762.2,3269.4,1751.8,3275.7,1745.4z"/>
	
		<rect x="2838.1" y="2049.1" transform="matrix(0.7055 -0.7087 0.7087 0.7055 -538.0894 2835.1863)" class="st5" width="608.6" height="31.9"/>
	<path class="st42" d="M3536.6,2608.9c-13.3,0-25-8.7-29.1-21.3l-137.4-262.7l12.3-6.4l138,263.9l0.2,0.7
		c2.6,8.8,11.7,13.8,20.5,11.3c6.1-1.8,10.7-7,11.7-13.3l-30.6-277.9l13.8-1.5L3567,2581l-0.1,0.8
		C3565.2,2597.2,3552.2,2608.9,3536.6,2608.9z"/>
	<path class="st42" d="M3449.6,2608.9c-13.3,0-25-8.7-29.1-21.3l-137.3-262.7l12.3-6.4l138,263.9l0.2,0.7
		c2.5,8.8,11.7,13.9,20.5,11.3c6.2-1.8,10.8-7,11.8-13.3l-30.6-277.9l13.8-1.5L3480,2581l-0.1,0.8
		C3478.2,2597.2,3465.2,2608.9,3449.6,2608.9z"/>
	<polygon class="st46" points="3139.9,2015.6 3671.3,2015.6 3627.1,2291.4 3060.4,2403.1 	"/>
	<path d="M3070,2510.3v25.5l-155.4,0.3c-5.2,42.9-36.9,76.3-77.6,75.9h-1.7v0.1l-43.1,0.2h-0.5c-37.2-0.4-76.4-35.8-76.5-88
		c0-51.2,37.7-87.7,74.2-88.6l0,0l46.7-0.2h0.6c40.7,0.4,72.3,32.6,77.7,75.3h49.4l-0.1-141l24.7-0.1l0.1,141L3070,2510.3z"/>
	<path d="M3026.8,2523.2c0-52.2,39.1-89.1,76.3-88.6s65.4,39.3,65.4,88.1s-28,89-65.2,88.6S3026.8,2575.4,3026.8,2523.2z"/>
	<polygon points="3103.6,2546.5 3131.7,2546.4 3146.8,2611.1 3103.7,2611.2 	"/>
	<polygon points="3101,2434.6 3147.7,2434.4 3129.1,2499.2 3101.1,2499.3 	"/>
	<path class="st47" d="M3070,2523c0-48.8,33.7-89.1,78.3-88.6s78.4,39.2,78.5,88s-33.7,89-78.3,88.6S3070.1,2571.8,3070,2523z"/>
	<path d="M3100.1,2522.9c0-31.9,22-58.2,51.2-57.9s51.2,25.6,51.3,57.5s-22,58.2-51.2,57.9S3100.1,2554.8,3100.1,2522.9z"/>
	<path class="st8" d="M3126.3,2522.8c0-16.6,10.1-30.2,23.6-30.1s23.6,13.3,23.6,29.9s-10.1,30.2-23.6,30.1
		S3126.3,2539.4,3126.3,2522.8z"/>
	<path class="st21" d="M2904.2,2015.6h-241.5c-12,0-21.8,9.8-21.8,21.8c0,1.8,0.2,3.6,0.7,5.4l87.7,343.9
		c2.5,9.6,11.2,16.4,21.1,16.4H3058c10,0,18.7-6.8,21.1-16.4l87.7-343.9c3-11.7-4.1-23.5-15.7-26.5c-1.8-0.4-3.6-0.7-5.4-0.7
		L2904.2,2015.6z"/>
	<path class="st22" d="M3133.9,2059.7l-78,305.7c-1.5,5.8-6.7,9.8-12.6,9.8h-278c-6,0-11.2-4-12.6-9.8l-78-305.7
		c-1.8-7,2.4-14,9.3-15.8c1.1-0.3,2.2-0.4,3.3-0.4h434c7.2,0,13,5.8,13,13C3134.3,2057.5,3134.1,2058.6,3133.9,2059.7z"/>
	<path class="st46" d="M3133.9,2059.7l-78,305.7c-1.5,5.8-6.7,9.8-12.6,9.8h-264.5c-6,0-11.2-4-12.6-9.8l-78-305.7
		c-1.8-7,2.4-14,9.3-15.8c1.1-0.3,2.2-0.4,3.3-0.4h420.5c7.2,0,13,5.8,13,13C3134.3,2057.5,3134.1,2058.6,3133.9,2059.7z"/>
	<path class="st17" d="M2732,2072.2c1.9,4.8,8.7,3.1,9.2-1c0.7-2.4-0.3-5.3-3.5-5.8C2733.9,2065,2730.5,2068.5,2732,2072.2z"/>
	<path class="st17" d="M2806.1,2108.4c-0.5,3.8,1.6,7.5,5.1,9.1c2.7,1.3,6,1,8.4-0.9c1.5-0.3,2.9-1,4.1-2c1.4-0.7,2.4-2.1,2.6-3.7
		c0-0.5,0-1,0-1.5v-0.2c0-0.4-0.1-0.8-0.1-1.2c-0.1-0.4-0.2-0.9-0.4-1.3c-0.1-0.3-0.2-0.7-0.4-1c0-0.1,0-0.1-0.1-0.2
		c0,0-0.1-0.1-0.1-0.1c-2.2-4.1-6.8-6.3-11.3-5.4c-0.7,0.1-1.3,0.4-1.9,0.8C2809,2102.4,2806.6,2104.9,2806.1,2108.4z"/>
	<path class="st17" d="M2764.7,2126.1c1.5,6.8,8.9,12,15.8,10.4c4.5-1.2,8-4.8,9.1-9.4c0.1-0.3,0.3-0.6,0.3-0.9
		c1.4-6.7-3-13.3-9.7-14.7c-1.4-0.3-2.8-0.3-4.2-0.1C2769,2112.2,2763.1,2118.8,2764.7,2126.1z"/>
	<path class="st17" d="M2794.7,2085.4c-1.9-4.8-8.7-3.2-9.2,0.9c-0.7,2.4,0.3,5.3,3.5,5.8
		C2792.8,2092.6,2796.2,2089.2,2794.7,2085.4z"/>
	<path class="st17" d="M3298.2,2164.8c-1.5-3.3-5-5.3-8.7-4.9c-3.6,0.6-6.4,3.5-6.9,7.2c-0.1,1.1,0.1,2.3,0.5,3.3
		c0.4,1.9,1.5,3.5,3,4.6C3292.9,2180.1,3301.5,2172.1,3298.2,2164.8z"/>
	<path class="st17" d="M3305.4,2194c1.1,7.1,6.7,12.7,13.8,13.8c7.2,0.7,14-3.3,16.7-10c0.8-2.1,1.1-4.4,0.8-6.6
		c0.2-3.7-0.9-7.4-3.2-10.3C3323.4,2167.8,3302.9,2178.5,3305.4,2194z"/>
	<path class="st17" d="M3325.3,2225.1c-0.7-2.1-2.3-3.6-4.7-3.3c-1.8,0.3-3.6,1.2-4.9,2.6c-0.8,0.2-1.5,0.6-2.2,1.1
		c-0.9,0.7-1.4,1.7-1.5,2.8c-1.8,3.3-1,8.2,3.5,9.6c3.3,0.9,6.8-0.4,8.8-3.2C3326.3,2232,3326.3,2228.3,3325.3,2225.1z"/>
	<path class="st17" d="M3397.5,2111.2c4.5-0.6,8.1-4.2,8.5-8.7c0.5-5.8-4.8-10.5-10.4-10.5c-6.2,0-11.5,5.8-10.3,12
		c0.9,5.1,5.8,8.5,10.8,7.6C3396.7,2111.5,3397.1,2111.4,3397.5,2111.2z"/>
	<path class="st17" d="M3363.5,2211.6c-1.3-3.1-4.3-4.9-7.6-4.7c-2.6,0.2-4.9,1.8-5.9,4.2c-1,0.8-1.8,2-2.2,3.2
		c-0.8,1.1-0.9,2.6-0.4,3.9c0.2,0.4,0.4,0.8,0.6,1.1l0.1,0.2c0.2,0.3,0.4,0.6,0.6,0.8c0.2,0.3,0.5,0.6,0.8,0.8
		c0.2,0.2,0.5,0.4,0.7,0.6c0,0,0.1,0.1,0.1,0.1h0.1c3.3,2.2,7.7,1.9,10.7-0.7c0.5-0.4,0.8-0.9,1.1-1.4
		C3364,2217.4,3364.5,2214.4,3363.5,2211.6z"/>
	<path class="st17" d="M3387.1,2181.1c-4-4.5-11.7-5.3-16.2-1.1c-2.9,2.8-4,7-2.9,10.8c0.1,0.3,0.1,0.6,0.1,0.8
		c1.8,5.6,7.8,8.7,13.5,6.9c1.1-0.4,2.2-0.9,3.1-1.6C3389.6,2193.2,3391.3,2185.8,3387.1,2181.1z"/>
	<path class="st17" d="M3338.3,2146.3c-0.7-0.7-1.6-1.3-2.5-1.7c-1.1-1.3-3-1.8-4.6-1.1c-0.2,0.1-0.3,0.2-0.4,0.2h-0.4
		c-1.2,0.2-2.3,1-2.8,2.1c-1.9,1.5-2.6,4.1-1.7,6.3c1.3,2.7,4.2,4.1,7.1,3.5c0.4-0.1,0.9-0.3,1.2-0.5c0.6-0.1,1.2-0.2,1.7-0.5
		C3339,2153.2,3340.8,2149.1,3338.3,2146.3z"/>
	<path class="st17" d="M3250.5,2181.6c-1.5-0.4-3.1-0.3-4.5,0.4c-3.1,1.6-2.5,5.5-0.4,7c0.4,1.4,1.3,2.5,2.5,3.3
		c2.6,1.6,6,0.9,7.6-1.7c0.5-0.8,0.8-1.7,0.9-2.6C3256.9,2184.8,3254,2181.2,3250.5,2181.6z"/>
	<path class="st17" d="M3200.6,2233c0.8,1.4,2,2.4,3.5,2.8c3.4,1,5.6-2.2,5.1-4.8c0.7-1.3,0.8-2.7,0.5-4.1c-0.7-3-3.7-4.8-6.7-4
		c-0.9,0.2-1.7,0.7-2.4,1.3C3198.2,2226.3,3197.8,2231,3200.6,2233z"/>
	<path class="st17" d="M3282.6,2209.4c-1.6-1.5-4.5-0.6-5.6,1c-0.4,0.6-0.6,1.4-0.6,2.1c-1.5,2.6,0.3,6.8,4.1,6.1
		c1.9-0.3,3.5-1.7,4.1-3.6C3285.2,2212.8,3284.3,2210.9,3282.6,2209.4z"/>
	<path class="st17" d="M3355.9,2173.5c4-2,2-7.7-1.6-7.8c-2.1-0.4-4.5,0.7-4.6,3.5c-0.2,2.4,1.5,4.5,3.9,4.7
		C3354.4,2174,3355.2,2173.8,3355.9,2173.5z"/>
	<path class="st17" d="M3339.3,2305.5c-0.6-4.4-6.6-4.5-7.8-1.2c-1.1,1.9-0.9,4.5,1.7,5.6c2.2,1,4.7,0.1,5.8-2.1
		C3339.3,2307,3339.4,2306.3,3339.3,2305.5z"/>
	<path class="st17" d="M3362.9,2108.8c-0.6-4.4-6.6-4.5-7.8-1.2c-1.1,1.9-0.9,4.5,1.7,5.6c2.2,1,4.7,0.1,5.8-2.1
		C3362.8,2110.3,3362.9,2109.5,3362.9,2108.8z"/>
	<path class="st17" d="M3381.7,2224.1c3.5,2.8,7.9-1.2,6.5-4.5c-0.5-2.1-2.4-3.9-5.1-2.9c-2.3,0.8-3.5,3.2-2.7,5.5
		C3380.6,2223,3381.1,2223.6,3381.7,2224.1z"/>
	<path class="st17" d="M3174.2,2242c3.5,2.8,7.9-1.2,6.5-4.5c-0.5-2.1-2.4-3.9-5-2.9c-2.3,0.7-3.5,3.2-2.8,5.4
		C3173.1,2240.8,3173.6,2241.5,3174.2,2242z"/>
	<path class="st17" d="M3291.1,2121.2l-0.6-0.4c-4.3-3-8.9,3.7-4.6,6.6l0.6,0.4C3290.7,2130.8,3295.3,2124.2,3291.1,2121.2z"/>
	<path class="st42" d="M2758.6,2036.2c-0.4-11.2-9.7-20-20.9-19.8c-22.1,0.3-58.1-1.2-85.1-11.6c-41.7-16-62.3,183.8-17.2,194.2
		C2679.3,2209.1,2767.4,2270,2758.6,2036.2z"/>
	<path class="st43" d="M2744.6,2037.9c-0.9-4.7-5.4-7.7-10.1-6.8c-1.5,0.3-2.8,0.9-4,1.9c-14.3,12.3-37.3,45.1-27.4,126.4
		C2716,2265.4,2755.5,2094.6,2744.6,2037.9z"/>
	<path class="st9" d="M2870.1,2650.6h-326.9c0.2-11,1.7-21.9,4.3-32.6c14.7-57.8,63.4-80.4,102.7-89.1c29.7-6.6,60.5,0,60.5,0
		l-6.4-121.2c55.7,22.9,151.1-5.2,151.1-5.2l7.1,119l5.8,96.5L2870.1,2650.6z"/>
	<path class="st34" d="M2703.6,2611.1c0,13.7-3.1,27.2-9.1,39.5h-151.3c0.2-11,1.7-21.9,4.3-32.6c14.7-57.8,63.4-80.4,102.7-89.1
		C2682.7,2543.3,2703.6,2575.5,2703.6,2611.1z"/>
	<path class="st34" d="M2707.6,2476.8c8.8-12.5,21.6-20.6,35.6-25.8c11.1,2.5,21.8,6.3,32,11.4c3.9,2,7.7,4.2,11.4,6.7
		c-0.3,0.7-0.4,1.5-0.4,2.3c0,3.5,2.8,6.3,6.3,6.3s6.3-2.8,6.3-6.3c0-3.5-2.8-6.3-6.3-6.3c-1.2,0-2.4,0.3-3.4,1
		c-11.9-8.1-25.2-13.6-39.1-17.3c7.1-2.1,14.4-3.7,21.7-4.8c6.3-1,12.7-1.6,19.1-2.2c1.5,3.2,5.3,4.5,8.4,3c3.2-1.5,4.5-5.3,3-8.4
		c-1.5-3.2-5.3-4.5-8.4-3c-1.8,0.9-3.1,2.6-3.5,4.6c-16,1.5-32.4,3.7-47.4,9.1c-5.2-1.2-10.4-2.2-15.7-3.1c-7.1-1.1-14.3-2-21.5-2.8
		c-1.1,0-1.9,0.9-1.9,1.9c0,1.1,0.9,1.9,1.9,1.9c10.3,1.1,20.6,2.5,30.8,4.6c-6.4,2.8-12.5,6.3-18,10.5c-5.5,4.2-10.3,9.1-14.2,14.8
		C2702.8,2476.9,2706.1,2478.8,2707.6,2476.8z"/>
	<path class="st34" d="M2792.7,2488c1,3.3,4.6,5.2,7.9,4.2c3.3-1,5.2-4.6,4.2-7.9c-1-3.3-4.6-5.2-7.9-4.2c-1.9,0.6-3.5,2.1-4.1,4
		c-16,1.7-31.6,5.8-46.4,12.1c-5.5-2.6-11.2-4.7-17.1-6.5c-6.9-2-13.9-3.3-21.1-3.9c-2.5-0.2-2.5,3.7,0,3.9
		c11.5,1,22.8,3.9,33.4,8.6c-5.6,2.6-11,5.5-16.3,8.8c-6.1,3.8-11.9,7.9-17.5,12.5c-1.9,1.6,0.8,4.3,2.8,2.8
		c10.9-8.9,22.8-16.2,35.7-21.8c10.1,5,19.7,11,28.6,18c4.3,3.4,8.5,6.9,12.5,10.6c-0.3,0.7-0.5,1.5-0.5,2.3c0,3.5,2.8,6.3,6.3,6.4
		s6.3-2.8,6.4-6.3s-2.8-6.3-6.3-6.4c-1.2,0-2.4,0.3-3.4,0.9c-11.8-10.7-24.7-20.4-38.9-27.6c8.4-3.4,17.1-6.1,26-7.9
		C2782.2,2489.4,2787.4,2488.6,2792.7,2488z"/>
	<path class="st8" d="M2705.7,2441.4c23.8,2.6,48,6.5,69.6,17.5c5.7,2.9,11.1,6.3,16.2,10.1c0.9,0.5,2.1,0.2,2.7-0.7
		c0.5-0.9,0.2-2.1-0.7-2.7c-19.1-14.6-42.8-21.5-66.2-25.3c-7.1-1.1-14.3-2-21.5-2.8c-1.1,0-1.9,0.9-1.9,1.9
		C2703.7,2440.5,2704.6,2441.4,2705.7,2441.4L2705.7,2441.4z"/>
	<path class="st8" d="M2707.6,2473.2c14.5-20.7,40-29.2,63.9-32.8c7.8-1.2,15.7-2,23.5-2.7c2.5-0.2,2.5-4.1,0-3.9
		c-26.6,2.4-54.8,5.8-76.6,22.7c-5.5,4.2-10.2,9.1-14.2,14.8C2702.8,2473.3,2706.1,2475.2,2707.6,2473.2L2707.6,2473.2z"/>
	<path class="st8" d="M2710.7,2518.6c19.3-15.7,41.9-26.5,66.2-31.7c6.8-1.5,13.8-2.5,20.8-3c2.5-0.2,2.5-4.1,0-3.9
		c-32.9,2.4-64.2,14.9-89.7,35.9c-0.7,0.8-0.7,2,0,2.8C2708.7,2519.4,2709.9,2519.4,2710.7,2518.6L2710.7,2518.6z"/>
	<path class="st8" d="M2708.2,2486.1c24.7,1.9,47.5,13.7,66.7,28.8c5.5,4.3,10.7,8.9,15.8,13.6c1.8,1.7,4.6-1,2.8-2.8
		c-18.5-17.2-39.6-32.5-64.1-39.7c-6.9-2-14-3.3-21.2-3.9C2705.7,2482,2705.8,2485.9,2708.2,2486.1z"/>
	<circle class="st21" cx="2796.5" cy="2435.4" r="6.3"/>
	<circle class="st21" cx="2792.4" cy="2467.8" r="6.3"/>
	<circle class="st21" cx="2798.7" cy="2482.5" r="6.3"/>
	<circle class="st21" cx="2793.3" cy="2527.8" r="6.3"/>
	<path class="st34" d="M2870.1,2650.6h-51.5c-11.3-11.6-17.7-27.2-17.6-43.4c0-34.1,27.4-85,61.4-85.7l5.8,96.5L2870.1,2650.6z"/>
	<path class="st8" d="M2870.1,2650.6h-326.9c0.2-11,1.7-21.9,4.3-32.6h320.7L2870.1,2650.6z"/>
	<path class="st43" d="M2866.9,2369.4c-14.4,91.3-188.2,74.8-222.9-7.3c-4.8-11.3-7.4-35.4-8.3-68.5
		c-5.7-206.8,54.2-765.5,54.2-765.5l34.9-107.5c0,0,97.3-22.4,122,31.4c5.2,11.4,7.2,26.1,4.4,45.2
		C2834.8,1606.8,2881.3,2278.1,2866.9,2369.4z"/>
	<path class="st42" d="M2866.9,2369.4c-14.4,91.3-188.2,74.8-222.9-7.3c-4.8-11.3-7.4-35.4-8.3-68.5
		c247.4,223.5,162.5-732.6,162.5-732.6l48.6-109.1c5.2,11.4,7.2,26.1,4.4,45.2C2834.8,1606.8,2881.3,2278.1,2866.9,2369.4z"/>
	<path class="st9" d="M3062,2650.6h-327c0.2-11,1.7-21.9,4.3-32.6c14.7-57.8,63.4-80.4,102.7-89.1c29.7-6.6,60.5,0,60.5,0
		l-6.4-121.2c55.7,22.9,151.1-5.2,151.1-5.2l7.1,119l5.8,96.5L3062,2650.6z"/>
	<path class="st34" d="M2895.5,2611.1c0,13.7-3.1,27.2-9.1,39.5H2735c0.2-11,1.7-21.9,4.3-32.6c14.7-57.8,63.4-80.4,102.7-89.1
		C2874.5,2543.3,2895.5,2575.5,2895.5,2611.1z"/>
	<path class="st34" d="M2899.4,2476.8c8.8-12.5,21.6-20.6,35.6-25.8c11.1,2.5,21.8,6.3,32,11.4c3.9,2,7.7,4.2,11.4,6.7
		c-0.3,0.7-0.5,1.5-0.4,2.3c0,3.5,2.8,6.3,6.3,6.3c3.5,0,6.3-2.8,6.3-6.3c0-3.5-2.8-6.3-6.3-6.3c-1.2,0-2.4,0.4-3.4,1
		c-11.9-8.1-25.2-13.6-39.1-17.3c7.1-2.1,14.4-3.7,21.7-4.8c6.3-1,12.7-1.6,19.1-2.2c1.5,3.2,5.3,4.5,8.4,3c3.2-1.5,4.5-5.3,3-8.4
		c-1.5-3.2-5.3-4.5-8.4-3c-1.8,0.9-3.1,2.6-3.5,4.6c-16,1.5-32.4,3.7-47.4,9.1c-5.2-1.2-10.4-2.2-15.6-3.1c-7.1-1.1-14.3-2-21.5-2.8
		c-1.1,0-2,0.9-2,1.9c0,1.1,0.9,2,2,1.9c10.2,1.1,20.6,2.5,30.8,4.6c-6.4,2.8-12.5,6.3-18,10.5c-5.5,4.2-10.3,9.2-14.2,14.8
		C2894.6,2476.9,2898,2478.8,2899.4,2476.8z"/>
	<path class="st34" d="M2984.6,2488c1,3.3,4.6,5.2,7.9,4.2c3.3-1,5.2-4.6,4.2-7.9c-1-3.3-4.6-5.2-7.9-4.2c-1.9,0.6-3.5,2.1-4.1,4
		c-16,1.7-31.6,5.8-46.4,12.1c-5.5-2.6-11.2-4.7-17.1-6.5c-6.9-2-13.9-3.3-21.1-3.9c-2.5-0.2-2.5,3.7,0,3.9
		c11.5,1,22.8,3.9,33.4,8.6c-5.6,2.6-11,5.5-16.3,8.8c-6.1,3.8-11.9,7.9-17.5,12.5c-1.9,1.6,0.8,4.3,2.8,2.8
		c10.8-8.9,22.8-16.2,35.7-21.8c10.1,5,19.7,11,28.6,18c4.3,3.4,8.5,6.9,12.5,10.6c-0.3,0.7-0.5,1.5-0.5,2.3c0,3.5,2.8,6.3,6.3,6.4
		s6.3-2.8,6.4-6.3s-2.8-6.3-6.3-6.4c-1.2,0-2.4,0.3-3.4,0.9c-11.8-10.7-24.7-20.4-38.9-27.6c8.4-3.4,17.1-6.1,26-7.9
		C2974.1,2489.4,2979.3,2488.6,2984.6,2488z"/>
	<path class="st8" d="M2897.5,2441.4c23.8,2.6,48,6.5,69.6,17.5c5.7,2.9,11.1,6.3,16.2,10.1c0.9,0.5,2.1,0.2,2.7-0.7
		c0.5-0.9,0.2-2.1-0.7-2.7c-19.1-14.6-42.8-21.5-66.2-25.3c-7.1-1.1-14.3-2-21.5-2.8c-1.1,0-2,0.9-2,1.9
		C2895.5,2440.5,2896.4,2441.4,2897.5,2441.4L2897.5,2441.4z"/>
	<path class="st8" d="M2899.4,2473.2c14.5-20.7,40-29.2,63.9-32.8c7.8-1.2,15.7-2,23.5-2.7c2.5-0.2,2.5-4.1,0-3.9
		c-26.6,2.4-54.8,5.8-76.6,22.7c-5.5,4.2-10.2,9.1-14.2,14.8C2894.6,2473.3,2898,2475.2,2899.4,2473.2L2899.4,2473.2z"/>
	<path class="st8" d="M2902.5,2518.6c19.3-15.7,41.9-26.5,66.2-31.7c6.8-1.5,13.8-2.5,20.8-3c2.5-0.2,2.5-4.1,0-3.9
		c-32.9,2.4-64.2,14.9-89.7,35.9c-0.7,0.8-0.7,2,0,2.8C2900.5,2519.4,2901.8,2519.4,2902.5,2518.6L2902.5,2518.6z"/>
	<path class="st8" d="M2900.1,2486.1c24.7,1.9,47.5,13.7,66.7,28.8c5.5,4.3,10.7,8.9,15.8,13.6c1.8,1.7,4.6-1,2.8-2.8
		c-18.5-17.2-39.6-32.5-64.1-39.7c-6.9-2-14-3.3-21.2-3.9C2897.6,2482,2897.6,2485.9,2900.1,2486.1z"/>
	<circle class="st21" cx="2988.4" cy="2435.4" r="6.3"/>
	<circle class="st21" cx="2984.3" cy="2467.8" r="6.3"/>
	<circle class="st21" cx="2990.6" cy="2482.5" r="6.3"/>
	<circle class="st21" cx="2985.1" cy="2527.8" r="6.3"/>
	<path class="st34" d="M3062,2650.6h-51.5c-11.3-11.6-17.7-27.2-17.6-43.4c0-34.1,27.4-85,61.4-85.7l5.7,96.5L3062,2650.6z"/>
	<path class="st8" d="M3062,2650.6h-327c0.2-11,1.7-21.9,4.3-32.6H3060L3062,2650.6z"/>
	<path class="st43" d="M2827.7,1555.8c0,0-22.3,771.6,40.9,834.8s205.5,34.5,218.4-25.9s-1.4-255.8-24.4-433.9
		s30.9-265.1-11.1-402.7l-114.2-69L2827.7,1555.8z"/>
	<path class="st48" d="M3050.3,2404.1l-6.3-3.1c2.3-4.8,4-9.8,5.2-14.9l6.8,1.7C3054.7,2393.4,3052.8,2398.9,3050.3,2404.1z
		 M3060,2364.2l-6.9-0.8c0.8-6.9,1.4-14.7,1.9-23.1l7,0.4C3061.4,2349.3,3060.8,2357.2,3060,2364.2L3060,2364.2z M3062.6,2317.3
		l-7-0.1c0.1-4.1,0.1-8.4,0.1-12.7c0-3.5,0-7-0.1-10.6l7-0.1c0,3.6,0.1,7.1,0.1,10.6C3062.8,2308.9,3062.7,2313.2,3062.6,2317.3z
		 M3055.2,2270.7c-0.2-7.4-0.5-15.2-0.9-23.3l7-0.3c0.4,8.1,0.6,16,0.9,23.4L3055.2,2270.7z M3053.2,2224.1
		c-0.4-7.4-0.9-15.3-1.4-23.3l7-0.4c0.5,8,1,15.9,1.4,23.4L3053.2,2224.1z M3050.3,2177.5c-0.5-7.4-1.1-15.3-1.7-23.3l7-0.5
		c0.6,8,1.2,15.9,1.7,23.3L3050.3,2177.5z M3046.7,2130.9c-0.6-7.7-1.3-15.5-1.9-23.3l7-0.6c0.7,7.8,1.3,15.6,1.9,23.3
		L3046.7,2130.9z M3042.8,2084.4c-0.7-7.8-1.4-15.5-2.1-23.3l7-0.6c0.7,7.8,1.4,15.6,2.1,23.3L3042.8,2084.4z M3038.7,2037.8
		c-0.7-7.8-1.4-15.5-2.1-23.2l7-0.6c0.7,7.7,1.4,15.5,2.1,23.2L3038.7,2037.8z M3034.4,1991.3c-0.7-7.8-1.4-15.6-2.1-23.3l7-0.6
		c0.7,7.7,1.4,15.5,2.1,23.3L3034.4,1991.3z M3030.2,1944.8c-0.7-7.9-1.3-15.6-2-23.3l7-0.6c0.7,7.7,1.3,15.4,2,23.3L3030.2,1944.8z
		 M3026.2,1898.2c-0.7-7.9-1.3-15.7-1.9-23.3l7-0.5c0.6,7.6,1.2,15.4,1.8,23.3L3026.2,1898.2z M3022.7,1851.5
		c-0.6-8.2-1.1-16-1.5-23.4l7-0.4c0.4,7.3,0.9,15.1,1.5,23.3L3022.7,1851.5z M3020,1804.8c-0.4-8.3-0.6-16.2-0.8-23.4l7-0.2
		c0.1,7.2,0.4,15,0.8,23.3L3020,1804.8z M3026.1,1758l-7-0.1c0.1-3.7,0.2-7.2,0.3-10.5c0.2-4.3,0.3-8.6,0.5-12.9l7,0.2
		c-0.1,4.3-0.3,8.7-0.5,13C3026.3,1750.9,3026.2,1754.4,3026.1,1758L3026.1,1758z M3027.4,1711.3l-7-0.1c0.1-4.9,0.1-10,0.1-14.9
		c0-2.8,0-5.6,0-8.3h7c0,2.8,0,5.6,0,8.4C3027.5,1701.3,3027.5,1706.3,3027.4,1711.3L3027.4,1711.3z M3020.1,1664.7
		c-0.2-7.7-0.5-15.5-0.8-23.3l7-0.3c0.3,7.8,0.6,15.7,0.8,23.4L3020.1,1664.7z M3018.1,1618.2c-0.5-7.7-1.1-15.6-1.7-23.2l7-0.6
		c0.6,7.7,1.2,15.6,1.7,23.4L3018.1,1618.2z M3014.2,1571.8c-0.8-7.8-1.7-15.6-2.6-23.1l7-0.8c0.9,7.6,1.8,15.4,2.6,23.3
		L3014.2,1571.8z M3008.5,1525.6c-2.1-14.6-3.8-22.8-3.8-22.9l6.9-1.3c0.1,0.3,1.6,8.5,3.8,23.2L3008.5,1525.6z"/>
	<path class="st42" d="M2965.1,2036.2c0.4-11.2,9.7-20,20.9-19.8c22.1,0.3,58.1-1.2,85.1-11.6c41.7-16,62.3,183.8,17.2,194.2
		C3044.4,2209.1,2956.3,2270,2965.1,2036.2z"/>
	<path class="st43" d="M2979.1,2037.9c0.9-4.7,5.4-7.7,10.1-6.8c1.5,0.3,2.8,0.9,4,1.9c14.3,12.3,37.3,45.1,27.4,126.4
		C3007.6,2265.4,2968.2,2094.6,2979.1,2037.9z"/>
	<path class="st43" d="M3003.6,2037.3c9.2,5.8,18.2,12.2,26.8,18.9c7.6,5.8,14.8,12.1,21.6,18.8c6.1,6.1,12.1,12.7,16.2,20.4
		c1.8,3.2,3.6,9.6,8.3,9.5c4,0,6-4.9,7.2-7.9c2-5.3,3.4-10.8,4.4-16.4c1.3-7,2.3-14.1,2.9-21.2c0.6-6.5,1.1-13.1,1.1-19.7
		c0-4.4,0.1-9.2-1.1-13.4c-0.2-0.7-0.5-1.4-0.8-2c-1.4-2.4-5.1-0.2-3.7,2.2c0.1,0.1,0.1,0.2,0.2,0.3c0.2,0.3-0.2-0.5-0.1-0.1
		s0.2,0.6,0.3,1c0.2,0.8,0.3,1.5,0.4,2.3c-0.1-0.4,0-0.2,0,0.2c0,0.2,0,0.4,0.1,0.7c0.1,0.6,0.1,1.1,0.1,1.7
		c0.1,1.2,0.1,2.4,0.2,3.7c0.1,6.1-0.1,12.2-0.7,18.2c-0.6,7-1.3,13.6-2.4,20.3c-0.9,6-2.2,11.9-3.9,17.6c-0.4,1.1-0.8,2.3-1.2,3.4
		c-0.1,0.2-0.3,0.8-0.1,0.3c-0.1,0.2-0.2,0.5-0.3,0.8c-0.2,0.4-0.4,0.9-0.6,1.3s-0.4,0.7-0.6,1c-0.1,0.2-0.2,0.3-0.4,0.5
		c-0.4,0.6,0.2-0.2-0.1,0.1s-0.4,0.5-0.7,0.7s-0.5,0.3,0.1,0c-0.1,0.1-0.3,0.2-0.4,0.3c-0.4,0.3,0.3-0.1,0.1,0
		c-0.1,0-0.2,0.1-0.4,0.1c0.9-0.1-0.6-0.1,0.3,0c-0.1,0-0.3,0-0.4-0.1c-0.2-0.1,0.5,0.4,0.1,0c-0.1-0.1-0.2-0.1-0.3-0.2
		c-0.1-0.1-0.4-0.4,0.2,0.1c-0.1-0.1-0.2-0.1-0.3-0.2c-0.2-0.3-0.5-0.5-0.7-0.8s0.3,0.4-0.1-0.1c-0.1-0.2-0.3-0.4-0.4-0.6
		c-0.6-1.1-1.2-2.2-1.7-3.4c-3.6-7.6-9.2-14.3-15-20.3c-6.5-6.8-13.5-13.1-20.9-18.9c-9.9-8-20.2-15.4-30.9-22.3l-0.5-0.3
		C3003.4,2032.3,3001.2,2036,3003.6,2037.3L3003.6,2037.3z"/>
	
		<ellipse transform="matrix(0.9814 -0.1918 0.1918 0.9814 -340.5043 628.2335)" class="st43" cx="3074.2" cy="2072.6" rx="4.9" ry="8.7"/>
	<path class="st21" d="M3082.3,1930.7c0,0,108.6-64-30.8-402.6l-30.9,19.9c0,0,166.3,320.4,14.4,389.8c-0.3,0.2-0.5,0.6-0.3,0.9
		c0.1,0.3,0.4,0.4,0.7,0.4L3082.3,1930.7z"/>
	<path class="st20" d="M2898.8,1568.1h-25.5c0,0,27.6,442.1,209,362.7C3082.3,1930.7,2945.4,1971.2,2898.8,1568.1z"/>
	<path class="st21" d="M2651.1,1904.6c0,0-76.5-64,21.7-402.6l21.8,19.9c0,0-117.1,320.4-10.1,389.8c0.5,0.3,0.3,1.4-0.3,1.3
		L2651.1,1904.6z"/>
	<path class="st20" d="M2780.3,1541.9h17.9c0,0-19.5,442-147.2,362.7C2651.1,1904.6,2747.5,1945.1,2780.3,1541.9z"/>
	<path class="st20" d="M3051.5,1528.1c-86,78.4-332.1,20.7-361.5,0c-18.1-12.7-6.3-117.9,5.5-196.9c7.3-49.3,14.6-88.4,14.6-88.4
		c-48.5,61-133.4,0-133.4,0l42.6-131.3l33.6,14.7l90.9-186.2c21.4-25,63-51.6,84.8-64.8c8.2-4.9,13.6-8,14.2-8.3l0,0l0,0l91.5-13.7
		c0,0,14.1,5.1,33.4,13.6c35.5,15.6,88.6,42.5,103.9,69.7C3095.3,978.6,3051.5,1528.1,3051.5,1528.1z"/>
	<path class="st22" d="M2967.9,867c0,0-48.1,57.3-93.4,52.2c-41.3-4.6-45.4-38.1-45.8-43.8c8.2-4.9,13.6-8,14.2-8.3l0,0l0,0
		l91.5-13.7C2934.4,853.4,2948.6,858.5,2967.9,867z"/>
	<path class="st32" d="M2933.5,869.3c0.5-24.5,7-59.7,9.5-71.9c0.5-2.6,2.4-4.8,5-5.6c5.6-1.7,11-3.9,16.2-6.6
		c2.1-1,4.3-2.3,6.6-3.6c0.1,0,0.1-0.1,0.1-0.1c14.1-8.5,27.9-22.7,24.3-44.2c-7.8-45.8-49.6-20.3-49.6-20.3l-59.9-104.5l-5.8-10.2
		l-10.3,2.1l-90.7,19l-1.2,60.6l-0.6,29.1c0,0-4.1,129.2,64.9,128.9l1.6,35.3c0.3,7.1,4.2,13.5,10.4,17.1
		C2868.5,903.2,2898,911,2933.5,869.3z"/>
	<path class="st33" d="M2841.9,842.3c7.7,0,33.8-1.9,53.8-31c0,0,1.5,36.2-53,49L2841.9,842.3z"/>
	<path class="st33" d="M2955.6,738.6c-1.9-6,5-11.2,10.3-7.8c4.4,2.8,7.9,8.8,3.8,21.2c-7.9,24.1-20.8,12.8-19.4,5.5
		s8.2-10.3,5.4-18.7L2955.6,738.6z"/>
	<path class="st37" d="M2790.3,713c0.6-3.9,5.5-7.6,9.3-8.1c4.4-0.6,8.6,3.2,11,7c1.2,1.5,3.4,1.9,5,0.7c1.5-1.2,1.8-3.4,0.7-5
		c-3.8-5.9-10.7-11-18-9.8c-6.9,1.2-14,7-15.1,14.1c-0.3,2,1.1,3.8,3,4.1C2788.1,716.4,2789.9,715,2790.3,713L2790.3,713L2790.3,713
		z"/>
	
		<ellipse transform="matrix(5.704123e-02 -0.9984 0.9984 5.704123e-02 1907.4784 3483.6353)" class="st37" cx="2797.9" cy="732" rx="10.2" ry="6.4"/>
	
		<ellipse transform="matrix(5.704123e-02 -0.9984 0.9984 5.704123e-02 1959.4718 3545.417)" class="st37" cx="2856.6" cy="735.4" rx="10.8" ry="6.8"/>
	<path class="st33" d="M2964.2,785.3c-5.2,2.6-10.7,4.8-16.2,6.5c0,0-15.4,0.5-17.1-14.1C2931.8,779.1,2942.2,793.2,2964.2,785.3z"
		/>
	<path class="st49" d="M3011.6,621c-0.6-0.2-0.9-0.9-0.6-1.4c0.1-0.2,0.3-0.4,0.5-0.6c5.3-2.7,18.9-9.1,24.3-4.6
		C3042.3,619.8,3030.6,627.8,3011.6,621z"/>
	<path class="st49" d="M3007.4,615c-0.7,0.5-1.6,0.4-2.1-0.3c-0.2-0.3-0.3-0.7-0.3-1c0.7-8.1,3.2-28.4,12.4-31.4
		C3028.3,578.6,3029,597.9,3007.4,615z"/>
	<path class="st33" d="M2961.5,650.5l-15.9,66.6c0,0-67.8-61-117-39.2c-25.8,11.4-41.7,10.1-51,6.3l1.2-60.6l90.7-19l16.1,8.1
		L2961.5,650.5z"/>
	<path class="st50" d="M3010.3,711.8L3010.3,711.8c-4.8,8-10,15.6-15.7,23c0,0-8-38.1-49.1-17.7c0,0-49.2-55.7-98.4-54.5
		c-8.8,0.2-17.3,3-25.2,6.9c-12.1,6-44.3,16.7-65.5-10.3c-27-34.4-2.4-66.5-0.5-68.7c0,0,0.1-0.1,0.1-0.1c0,0,0.2-75,61.5-54
		c13.1,4.5,29.4,14.3,38.7,14.9c37.5,2.4,44.9-25.6,70.1-1.8c31.6,29.8,71.5,20.4,64.9,75.9C2991.2,625.5,3055.2,636.1,3010.3,711.8
		z"/>
	<path class="st49" d="M3010.2,711.8c-4.8,8-10,15.6-15.6,23c0,0-8-38.1-49.1-17.7c0,0-49.2-55.7-98.4-54.5
		c-8.8,0.2-17.3,3-25.2,6.9c-12.1,6-44.3,16.7-65.5-10.3c-27-34.4-2.4-66.5-0.5-68.7c-0.6,2.8-12.3,56.8,28.5,69.2
		c41.9,12.7,48.7-32.6,96.1-6.5s86.3,19.9,97.7-6.2C2978.2,647.1,2967.8,715.2,3010.2,711.8z"/>
	<path class="st49" d="M2960.1,579.7c0,0,45.7,29.9,1.4,68.3C2961.4,648,2990,613.1,2960.1,579.7z"/>
	<path class="st49" d="M2771.6,612c0,0-1,41.8,57.6,31.3C2829.2,643.3,2790.7,646.2,2771.6,612z"/>
	<path class="st49" d="M2775.4,573.1c0,0,4-42.1,48.1-25.5C2823.5,547.6,2785,542.6,2775.4,573.1z"/>
	<path class="st49" d="M2833.9,577.6c0,0-7.2,20.1,21,28.9c0,0,23.8,56.5,85.4,30c0,0-56.9,15.3-78.5-34.9
		C2861.8,601.7,2840.3,601.2,2833.9,577.6z"/>
	<path class="st41" d="M2836.7,793.5c2.1,11.5-3,18.5-10.6,19.8s-14.8-3.4-16.9-14.9s3.4-16.5,10.9-17.8S2834.6,782.1,2836.7,793.5z
		"/>
	<path class="st37" d="M2847.7,717.1c3.9-2,8.1-3.5,12.4-4.4c4.7-1.1,9.4-2.2,14.1-3.4c1.7-0.5,2.7-2.2,2.3-3.9
		c-0.5-1.7-2.2-2.7-3.9-2.3c0,0,0,0,0,0c-4.9,1.2-9.7,2.3-14.6,3.5c-4.7,1-9.2,2.7-13.5,4.9C2840.9,713.5,2844.1,719.1,2847.7,717.1
		L2847.7,717.1z"/>
	<path class="st9" d="M3068.5,1324.1c-1.5,27.5-3.1,53.9-4.6,78.1c-4.6,74.8-8.5,128.2-8.5,128.2c-86,78.4-336.1,18.5-365.5-2.2
		c-18.1-12.7-6.3-117.9,5.5-196.9c7.6-31.5,13.1-61.9,14.6-88.4c7.7-128.9,42.8-312.2,42.8-312.2l9.5-9.5
		c14-13.8,29.6-25.9,46.4-35.9l0,0c3.9-2.4,7.9-4.6,12-6.7l22.1-11.5l0,0c-45.2,103.6-13.8,339.4-13.8,339.4
		c12.4-174.1,105.3-353.1,105.3-353.1s10.8,3.9,26.4,10.6c35.1,15,94.6,43.7,110.9,72.8C3085.6,961.4,3077.5,1162.6,3068.5,1324.1z"
		/>
	<path class="st32" d="M2537.2,1101.7l48.5,25.8l-31.4,65l-11.8,24.8c-41-28.2-79.5-40.5-92.9-51.3c-1.9-1.5-4.1-2.7-6.4-3.6l0,0
		c-1.1-0.4-2.3-0.7-3.5-0.9c-1.5-0.3-3.1-0.4-4.6-0.3c-42.3,2.1-75.5-7.9-99-22l0,0c-7.1-4.2-13.7-9.2-19.8-14.8l0,0
		c-18.4-17.2-25.3-36.2-20.2-47.2c0.4-0.8,0.8-1.5,1.2-2.2l0,0c0.4-0.7,0.9-1.4,1.4-2l0,0c15.4-18.6,62.1-3.4,63-3.1
		c-11.2-9.4-4.1-28.8,6.2-22.3s43.9,7.4,85.2-3.1c28.8-7.2,53.6,14.1,66.1,27.8C2526.7,1080.2,2527.8,1096,2537.2,1101.7z"/>
	<path class="st33" d="M2466.7,1153.7c0,0,45.8,16.3,85.8,48.7l-10,14.8l0,0c-41.1-28.2-79.5-40.5-92.9-51.3
		c-1.9-1.5-4.1-2.7-6.4-3.6l0,0c-1.1-0.4-2.3-0.7-3.5-0.9c-1.5-0.3-3.1-0.4-4.6-0.3c-42.3,2.1-75.5-7.9-98.9-22l0,0
		c-7.1-4.2-13.7-9.2-19.8-14.8l0,0c-18.4-17.2-25.3-36.2-20.2-47.2c0.4-0.8,0.8-1.5,1.2-2.2l0,0c0.4-0.7,0.9-1.4,1.4-2
		c1.8,45.8,71.3,66,71.3,66c113.2,30.8,140.6-54.2,141.7-57.6C2518.4,1109.5,2466.7,1153.7,2466.7,1153.7z"/>
	<path class="st33" d="M2361.7,1069.8c0,0,34.4,7.2,80.4-2.8C2442.1,1067,2399.5,1090.1,2361.7,1069.8z"/>
	<path class="st21" d="M2638.6,1120c0,0-3.5,95.6-35.8,132s-92.2-18.4-74.5-39c1.8-2.1,3.4-4.5,4.6-6.9
		c17.1-32,11.9-105.2,50.1-112.7C2624.3,1085.3,2638.6,1120,2638.6,1120z"/>
	<path class="st34" d="M2960.8,863.9L2960.8,863.9c0,0-85.1,116.4-128.2,393.5c0,0-75-148-23.8-372.1l0,0c3.9-2.4,7.9-4.6,12-6.7
		l22.1-11.5l0,0c-45.2,103.6-13.8,339.4-13.8,339.4c12.4-174.1,105.3-353.1,105.3-353.1S2945.2,857.3,2960.8,863.9z"/>
	<path class="st20" d="M3071.7,936.7c0,0-64.6-50.7-82.7,43.2s56.8,253.2,56.8,253.2l131,62.3
		C3176.8,1295.4,3197.1,1129.4,3071.7,936.7z"/>
	<path class="st22" d="M2638.6,1120c0,0-3.5,95.6-35.8,132s-92.2-18.4-74.5-39c1.8-2.1,3.4-4.5,4.6-6.9c0,0,2.4,23.8,40.4,38.4
		S2638.6,1120,2638.6,1120z"/>
	<path class="st22" d="M2596.6,1101.8c0,0-14.4,20.9-18.7,71.1s-8.9,55.3-8.9,55.3s13.5-25.3,15.2-60.2S2596.6,1101.8,2596.6,1101.8
		z"/>
	<path class="st34" d="M2731,1336l1,2.2c-0.7,0.9-1,1.4-1,1.4V1336z"/>
	<path class="st34" d="M3068.5,1324.1c-1.5,27.5-3.1,53.9-4.6,78.1l-59.1,37.3c0,0-10.6,104.6-96.1,103.6
		c-80.2-0.9-166.4-182.5-176.8-204.8c9.7-13,87.6-109.1,219.1-26.6l69.4-53.8L3068.5,1324.1z"/>
	
		<ellipse transform="matrix(0.9946 -0.1038 0.1038 0.9946 -135.9552 297.3362)" class="st24" cx="2787.9" cy="1454.5" rx="131.1" ry="122.1"/>
	
		<ellipse transform="matrix(0.9946 -0.1038 0.1038 0.9946 -135.5273 297.8961)" class="st34" cx="2793.4" cy="1450.6" rx="131.1" ry="122.1"/>
	<path class="st20" d="M2852.6,1560.2c-46.5,4.9-90-11.5-119.5-40.8c-20.6-20.2-33.7-46.8-37.2-75.5c-0.1-0.7-0.2-1.3-0.2-2
		c-7.7-73.6,50.1-139.9,129.2-148.2c50.1-5.2,96.7,14.2,126,47.8c17.4,19.7,28.2,44.3,31,70.5c0.3,2.6,0.5,5.3,0.6,7.9
		C2985.3,1490.3,2928.8,1552.3,2852.6,1560.2z"/>
	<path class="st21" d="M2836.4,1550.4c-36.2,0-71.1-14.1-95.8-38.6c-19.2-19.1-31-43-34.2-69.2v-0.2c-0.1-0.5-0.1-1.1-0.2-1.6
		c-3.4-32.6,7.1-64.8,29.5-90.5c22.6-25.9,54.6-42.3,90.2-46c5-0.5,10-0.8,15.1-0.8c39.8,0,76.9,16.4,101.8,45
		c15.9,18.1,25.8,40.6,28.4,64.6c0.2,2.4,0.4,4.8,0.5,7.2c2.7,65.2-50.1,121.9-120.2,129.3
		C2846.5,1550.1,2841.5,1550.4,2836.4,1550.4z"/>
	<path class="st24" d="M2983.9,1418.8l-252.9,102c-4.1,1.6-8.7,0.6-11.7-2.7c-15.8-17.3-26.4-38.7-30.9-61.7
		c-0.9-4.9,1.8-9.7,6.4-11.6l257.4-104.4c4.3-1.8,9.3-0.4,12.2,3.3c14.5,18.6,23.4,40.9,25.9,64.3v0.1
		C2990.9,1412.7,2988.2,1417.1,2983.9,1418.8z"/>
	<path class="st9" d="M2992.7,1415.1l-252.9,102c-4.1,1.6-8.7,0.6-11.7-2.7c-15.8-17.3-26.4-38.7-30.8-61.7
		c-0.9-4.9,1.8-9.7,6.4-11.6l257.4-104.4c4.3-1.8,9.3-0.4,12.2,3.3c14.5,18.6,23.4,40.9,25.9,64.3v0.1
		C2999.7,1409.1,2997,1413.4,2992.7,1415.1z"/>
	<path class="st32" d="M3150.9,1329.3l-159.3,96c-3.3,13.4-18.4,27.8-40.4,38.9l0,0c-29.6,15-71.9,24.2-114.8,17.4
		c-74.9-11.8-46.8-89.7-33.4-92.3l5.8-0.9c15.3-2.4,30-7.2,43.8-14.3l7.3-3.8c0,0-2.8-16.1,3.8-21.8s13-11.6,32.8-25.4
		s45.3,7.9,45.3,7.9l84.8-57.3l30.7-40.7l79.8,40.7L3150.9,1329.3z"/>
	<path class="st33" d="M2951.1,1464.2c-29.6,15-71.9,24.2-114.8,17.4c-74.9-11.8-46.8-89.7-33.4-92.3l5.8-0.9
		c15.3-2.4,30-7.2,43.8-14.3l7.3-3.8c0,0-2.8-16.1,3.8-21.8s13-11.6,32.8-25.4s45.3,7.9,45.3,7.9s-24.8-9.8-37.5,0
		s-39.4,26.7-34.4,42.8c0,0-19.1,22-54.5,25.3c-8.6,0.8-15.6,7.3-17.1,15.8C2792.9,1445.8,2798.9,1508.1,2951.1,1464.2z"/>
	<path class="st21" d="M3150.9,1329.3c-65.2-63.2-124.5-55.5-124.5-55.5c-32.2-43.2,0-87.1,0-87.1s103.3-10.3,148.9,31.9
		c8,7.3,14.1,16.5,17.6,26.8C3217.2,1318.3,3150.9,1329.3,3150.9,1329.3z"/>
	<path class="st22" d="M3150.9,1329.3c-65.2-63.2-124.5-55.5-124.5-55.5c-32.2-43.2,0-87.1,0-87.1s-15.4,66.9,11.9,77.5
		s89.9,13.3,112.6,39.5s51.5-43.8,24.4-85c8,7.3,14.1,16.5,17.6,26.8C3217.2,1318.3,3150.9,1329.3,3150.9,1329.3z"/>
	<path class="st22" d="M3041.1,1229.5c0,0,82.4-7.8,129.6,41.9C3170.7,1271.4,3136,1206.6,3041.1,1229.5z"/>
</g>
</svg>
