<?xml version="1.0" standalone="no"?>
<svg xmlns:xlink="http://www.w3.org/1999/xlink" id="wave" style="transform:rotate(0deg); transition: 0.3s" viewBox="0 0 1440 490" version="1.1" xmlns="http://www.w3.org/2000/svg"><defs><linearGradient id="sw-gradient-0" x1="0" x2="0" y1="1" y2="0"><stop stop-color="rgba(170, 214, 243, 1)" offset="0%"/><stop stop-color="rgba(170, 214, 243, 1)" offset="100%"/></linearGradient></defs><path style="transform:translate(0, 0px); opacity:1" fill="url(#sw-gradient-0)" d="M0,98L30,89.8C60,82,120,65,180,57.2C240,49,300,49,360,57.2C420,65,480,82,540,122.5C600,163,660,229,720,277.7C780,327,840,359,900,343C960,327,1020,261,1080,253.2C1140,245,1200,294,1260,310.3C1320,327,1380,310,1440,294C1500,278,1560,261,1620,245C1680,229,1740,212,1800,245C1860,278,1920,359,1980,367.5C2040,376,2100,310,2160,310.3C2220,310,2280,376,2340,367.5C2400,359,2460,278,2520,204.2C2580,131,2640,65,2700,98C2760,131,2820,261,2880,277.7C2940,294,3000,196,3060,171.5C3120,147,3180,196,3240,245C3300,294,3360,343,3420,375.7C3480,408,3540,425,3600,408.3C3660,392,3720,343,3780,326.7C3840,310,3900,327,3960,343C4020,359,4080,376,4140,383.8C4200,392,4260,392,4290,392L4320,392L4320,490L4290,490C4260,490,4200,490,4140,490C4080,490,4020,490,3960,490C3900,490,3840,490,3780,490C3720,490,3660,490,3600,490C3540,490,3480,490,3420,490C3360,490,3300,490,3240,490C3180,490,3120,490,3060,490C3000,490,2940,490,2880,490C2820,490,2760,490,2700,490C2640,490,2580,490,2520,490C2460,490,2400,490,2340,490C2280,490,2220,490,2160,490C2100,490,2040,490,1980,490C1920,490,1860,490,1800,490C1740,490,1680,490,1620,490C1560,490,1500,490,1440,490C1380,490,1320,490,1260,490C1200,490,1140,490,1080,490C1020,490,960,490,900,490C840,490,780,490,720,490C660,490,600,490,540,490C480,490,420,490,360,490C300,490,240,490,180,490C120,490,60,490,30,490L0,490Z"/></svg>